G04 #@! TF.GenerationSoftware,KiCad,Pcbnew,(5.1.0)-1*
G04 #@! TF.CreationDate,2019-10-02T17:05:54-05:00*
G04 #@! TF.ProjectId,supercon-2019-blink,73757065-7263-46f6-9e2d-323031392d62,v01*
G04 #@! TF.SameCoordinates,Original*
G04 #@! TF.FileFunction,Soldermask,Bot*
G04 #@! TF.FilePolarity,Negative*
%FSLAX46Y46*%
G04 Gerber Fmt 4.6, Leading zero omitted, Abs format (unit mm)*
G04 Created by KiCad (PCBNEW (5.1.0)-1) date 2019-10-02 17:05:54*
%MOMM*%
%LPD*%
G04 APERTURE LIST*
%ADD10C,0.100000*%
G04 APERTURE END LIST*
D10*
G36*
X150326600Y-123616600D02*
G01*
X148497400Y-123616600D01*
X148497400Y-121787400D01*
X150326600Y-121787400D01*
X150326600Y-123616600D01*
X150326600Y-123616600D01*
G37*
G36*
X152131294Y-121800633D02*
G01*
X152303695Y-121852931D01*
X152462583Y-121937858D01*
X152601849Y-122052151D01*
X152716142Y-122191417D01*
X152801069Y-122350305D01*
X152853367Y-122522706D01*
X152871025Y-122702000D01*
X152853367Y-122881294D01*
X152801069Y-123053695D01*
X152716142Y-123212583D01*
X152601849Y-123351849D01*
X152462583Y-123466142D01*
X152303695Y-123551069D01*
X152131294Y-123603367D01*
X151996931Y-123616600D01*
X151907069Y-123616600D01*
X151772706Y-123603367D01*
X151600305Y-123551069D01*
X151441417Y-123466142D01*
X151302151Y-123351849D01*
X151187858Y-123212583D01*
X151102931Y-123053695D01*
X151050633Y-122881294D01*
X151032975Y-122702000D01*
X151050633Y-122522706D01*
X151102931Y-122350305D01*
X151187858Y-122191417D01*
X151302151Y-122052151D01*
X151441417Y-121937858D01*
X151600305Y-121852931D01*
X151772706Y-121800633D01*
X151907069Y-121787400D01*
X151996931Y-121787400D01*
X152131294Y-121800633D01*
X152131294Y-121800633D01*
G37*
G36*
X154758778Y-121822547D02*
G01*
X154925224Y-121891491D01*
X155075022Y-121991583D01*
X155202417Y-122118978D01*
X155302509Y-122268776D01*
X155371453Y-122435222D01*
X155406600Y-122611918D01*
X155406600Y-122792082D01*
X155371453Y-122968778D01*
X155302509Y-123135224D01*
X155202417Y-123285022D01*
X155075022Y-123412417D01*
X154925224Y-123512509D01*
X154758778Y-123581453D01*
X154582082Y-123616600D01*
X154401918Y-123616600D01*
X154225222Y-123581453D01*
X154058776Y-123512509D01*
X153908978Y-123412417D01*
X153781583Y-123285022D01*
X153681491Y-123135224D01*
X153612547Y-122968778D01*
X153577400Y-122792082D01*
X153577400Y-122611918D01*
X153612547Y-122435222D01*
X153681491Y-122268776D01*
X153781583Y-122118978D01*
X153908978Y-121991583D01*
X154058776Y-121891491D01*
X154225222Y-121822547D01*
X154401918Y-121787400D01*
X154582082Y-121787400D01*
X154758778Y-121822547D01*
X154758778Y-121822547D01*
G37*
G36*
X154758778Y-119282547D02*
G01*
X154925224Y-119351491D01*
X155075022Y-119451583D01*
X155202417Y-119578978D01*
X155302509Y-119728776D01*
X155371453Y-119895222D01*
X155406600Y-120071918D01*
X155406600Y-120252082D01*
X155371453Y-120428778D01*
X155302509Y-120595224D01*
X155202417Y-120745022D01*
X155075022Y-120872417D01*
X154925224Y-120972509D01*
X154758778Y-121041453D01*
X154582082Y-121076600D01*
X154401918Y-121076600D01*
X154225222Y-121041453D01*
X154058776Y-120972509D01*
X153908978Y-120872417D01*
X153781583Y-120745022D01*
X153681491Y-120595224D01*
X153612547Y-120428778D01*
X153577400Y-120252082D01*
X153577400Y-120071918D01*
X153612547Y-119895222D01*
X153681491Y-119728776D01*
X153781583Y-119578978D01*
X153908978Y-119451583D01*
X154058776Y-119351491D01*
X154225222Y-119282547D01*
X154401918Y-119247400D01*
X154582082Y-119247400D01*
X154758778Y-119282547D01*
X154758778Y-119282547D01*
G37*
G36*
X152131294Y-119260633D02*
G01*
X152303695Y-119312931D01*
X152462583Y-119397858D01*
X152601849Y-119512151D01*
X152716142Y-119651417D01*
X152801069Y-119810305D01*
X152853367Y-119982706D01*
X152871025Y-120162000D01*
X152853367Y-120341294D01*
X152801069Y-120513695D01*
X152716142Y-120672583D01*
X152601849Y-120811849D01*
X152462583Y-120926142D01*
X152303695Y-121011069D01*
X152131294Y-121063367D01*
X151996931Y-121076600D01*
X151907069Y-121076600D01*
X151772706Y-121063367D01*
X151600305Y-121011069D01*
X151441417Y-120926142D01*
X151302151Y-120811849D01*
X151187858Y-120672583D01*
X151102931Y-120513695D01*
X151050633Y-120341294D01*
X151032975Y-120162000D01*
X151050633Y-119982706D01*
X151102931Y-119810305D01*
X151187858Y-119651417D01*
X151302151Y-119512151D01*
X151441417Y-119397858D01*
X151600305Y-119312931D01*
X151772706Y-119260633D01*
X151907069Y-119247400D01*
X151996931Y-119247400D01*
X152131294Y-119260633D01*
X152131294Y-119260633D01*
G37*
G36*
X149591294Y-119260633D02*
G01*
X149763695Y-119312931D01*
X149922583Y-119397858D01*
X150061849Y-119512151D01*
X150176142Y-119651417D01*
X150261069Y-119810305D01*
X150313367Y-119982706D01*
X150331025Y-120162000D01*
X150313367Y-120341294D01*
X150261069Y-120513695D01*
X150176142Y-120672583D01*
X150061849Y-120811849D01*
X149922583Y-120926142D01*
X149763695Y-121011069D01*
X149591294Y-121063367D01*
X149456931Y-121076600D01*
X149367069Y-121076600D01*
X149232706Y-121063367D01*
X149060305Y-121011069D01*
X148901417Y-120926142D01*
X148762151Y-120811849D01*
X148647858Y-120672583D01*
X148562931Y-120513695D01*
X148510633Y-120341294D01*
X148492975Y-120162000D01*
X148510633Y-119982706D01*
X148562931Y-119810305D01*
X148647858Y-119651417D01*
X148762151Y-119512151D01*
X148901417Y-119397858D01*
X149060305Y-119312931D01*
X149232706Y-119260633D01*
X149367069Y-119247400D01*
X149456931Y-119247400D01*
X149591294Y-119260633D01*
X149591294Y-119260633D01*
G37*
G36*
X141845591Y-105650085D02*
G01*
X141879569Y-105660393D01*
X141910890Y-105677134D01*
X141938339Y-105699661D01*
X141960866Y-105727110D01*
X141977607Y-105758431D01*
X141987915Y-105792409D01*
X141992000Y-105833890D01*
X141992000Y-106510110D01*
X141987915Y-106551591D01*
X141977607Y-106585569D01*
X141960866Y-106616890D01*
X141938339Y-106644339D01*
X141910890Y-106666866D01*
X141879569Y-106683607D01*
X141845591Y-106693915D01*
X141804110Y-106698000D01*
X141202890Y-106698000D01*
X141161409Y-106693915D01*
X141127431Y-106683607D01*
X141096110Y-106666866D01*
X141068661Y-106644339D01*
X141046134Y-106616890D01*
X141029393Y-106585569D01*
X141019085Y-106551591D01*
X141015000Y-106510110D01*
X141015000Y-105833890D01*
X141019085Y-105792409D01*
X141029393Y-105758431D01*
X141046134Y-105727110D01*
X141068661Y-105699661D01*
X141096110Y-105677134D01*
X141127431Y-105660393D01*
X141161409Y-105650085D01*
X141202890Y-105646000D01*
X141804110Y-105646000D01*
X141845591Y-105650085D01*
X141845591Y-105650085D01*
G37*
G36*
X140270591Y-105650085D02*
G01*
X140304569Y-105660393D01*
X140335890Y-105677134D01*
X140363339Y-105699661D01*
X140385866Y-105727110D01*
X140402607Y-105758431D01*
X140412915Y-105792409D01*
X140417000Y-105833890D01*
X140417000Y-106510110D01*
X140412915Y-106551591D01*
X140402607Y-106585569D01*
X140385866Y-106616890D01*
X140363339Y-106644339D01*
X140335890Y-106666866D01*
X140304569Y-106683607D01*
X140270591Y-106693915D01*
X140229110Y-106698000D01*
X139627890Y-106698000D01*
X139586409Y-106693915D01*
X139552431Y-106683607D01*
X139521110Y-106666866D01*
X139493661Y-106644339D01*
X139471134Y-106616890D01*
X139454393Y-106585569D01*
X139444085Y-106551591D01*
X139440000Y-106510110D01*
X139440000Y-105833890D01*
X139444085Y-105792409D01*
X139454393Y-105758431D01*
X139471134Y-105727110D01*
X139493661Y-105699661D01*
X139521110Y-105677134D01*
X139552431Y-105660393D01*
X139586409Y-105650085D01*
X139627890Y-105646000D01*
X140229110Y-105646000D01*
X140270591Y-105650085D01*
X140270591Y-105650085D01*
G37*
G36*
X145550199Y-101557954D02*
G01*
X145562450Y-101558556D01*
X145580869Y-101558556D01*
X145603149Y-101560750D01*
X145687233Y-101577476D01*
X145708660Y-101583976D01*
X145787858Y-101616780D01*
X145793303Y-101619691D01*
X145793309Y-101619693D01*
X145802169Y-101624429D01*
X145802173Y-101624432D01*
X145807614Y-101627340D01*
X145878899Y-101674971D01*
X145896204Y-101689172D01*
X145956828Y-101749796D01*
X145971029Y-101767101D01*
X146018660Y-101838386D01*
X146021568Y-101843827D01*
X146021571Y-101843831D01*
X146026307Y-101852691D01*
X146026309Y-101852697D01*
X146029220Y-101858142D01*
X146062024Y-101937340D01*
X146068524Y-101958767D01*
X146085250Y-102042851D01*
X146087444Y-102065131D01*
X146087444Y-102083550D01*
X146088046Y-102095801D01*
X146089852Y-102114139D01*
X146089852Y-102651860D01*
X146088263Y-102667999D01*
X146083855Y-102682528D01*
X146078394Y-102695711D01*
X146073612Y-102719745D01*
X146073611Y-102744249D01*
X146078391Y-102768282D01*
X146087768Y-102790921D01*
X146089000Y-102792765D01*
X146089000Y-104024050D01*
X146082525Y-104036164D01*
X146075412Y-104059613D01*
X146073010Y-104083999D01*
X146075412Y-104108385D01*
X146082525Y-104131834D01*
X146084848Y-104136746D01*
X146088263Y-104148001D01*
X146089852Y-104164140D01*
X146089852Y-104701862D01*
X146088046Y-104720199D01*
X146087444Y-104732450D01*
X146087444Y-104750869D01*
X146085250Y-104773149D01*
X146068524Y-104857233D01*
X146062024Y-104878660D01*
X146029220Y-104957858D01*
X146026309Y-104963303D01*
X146026307Y-104963309D01*
X146021571Y-104972169D01*
X146021568Y-104972173D01*
X146018660Y-104977614D01*
X145971029Y-105048899D01*
X145956828Y-105066204D01*
X145896204Y-105126828D01*
X145878899Y-105141029D01*
X145807614Y-105188660D01*
X145802173Y-105191568D01*
X145802169Y-105191571D01*
X145793309Y-105196307D01*
X145793303Y-105196309D01*
X145787858Y-105199220D01*
X145708660Y-105232024D01*
X145687233Y-105238524D01*
X145603149Y-105255250D01*
X145580869Y-105257444D01*
X145562450Y-105257444D01*
X145550199Y-105258046D01*
X145531862Y-105259852D01*
X145044138Y-105259852D01*
X145025801Y-105258046D01*
X145013550Y-105257444D01*
X144995131Y-105257444D01*
X144972851Y-105255250D01*
X144888767Y-105238524D01*
X144867340Y-105232024D01*
X144788142Y-105199220D01*
X144782697Y-105196309D01*
X144782691Y-105196307D01*
X144773831Y-105191571D01*
X144773827Y-105191568D01*
X144768386Y-105188660D01*
X144697101Y-105141029D01*
X144679796Y-105126828D01*
X144619172Y-105066204D01*
X144604971Y-105048899D01*
X144557340Y-104977614D01*
X144554432Y-104972173D01*
X144554429Y-104972169D01*
X144549693Y-104963309D01*
X144549691Y-104963303D01*
X144546780Y-104957858D01*
X144513976Y-104878660D01*
X144507476Y-104857233D01*
X144490750Y-104773149D01*
X144488556Y-104750869D01*
X144488556Y-104732450D01*
X144487954Y-104720199D01*
X144486148Y-104701862D01*
X144486148Y-104164140D01*
X144487737Y-104148001D01*
X144492145Y-104133472D01*
X144497606Y-104120289D01*
X144502388Y-104096255D01*
X144502389Y-104071751D01*
X144497609Y-104047718D01*
X144488232Y-104025079D01*
X144487000Y-104023235D01*
X144487000Y-102791950D01*
X144493475Y-102779836D01*
X144500588Y-102756387D01*
X144502990Y-102732001D01*
X144500588Y-102707615D01*
X144493475Y-102684166D01*
X144491152Y-102679254D01*
X144487737Y-102667999D01*
X144486148Y-102651860D01*
X144486148Y-102114139D01*
X144487954Y-102095801D01*
X144488556Y-102083550D01*
X144488556Y-102065131D01*
X144490750Y-102042851D01*
X144507476Y-101958767D01*
X144513976Y-101937340D01*
X144546780Y-101858142D01*
X144549691Y-101852697D01*
X144549693Y-101852691D01*
X144554429Y-101843831D01*
X144554432Y-101843827D01*
X144557340Y-101838386D01*
X144604971Y-101767101D01*
X144619172Y-101749796D01*
X144679796Y-101689172D01*
X144697101Y-101674971D01*
X144768386Y-101627340D01*
X144773827Y-101624432D01*
X144773831Y-101624429D01*
X144782691Y-101619693D01*
X144782697Y-101619691D01*
X144788142Y-101616780D01*
X144867340Y-101583976D01*
X144888767Y-101577476D01*
X144972851Y-101560750D01*
X144995131Y-101558556D01*
X145013550Y-101558556D01*
X145025801Y-101557954D01*
X145044139Y-101556148D01*
X145531861Y-101556148D01*
X145550199Y-101557954D01*
X145550199Y-101557954D01*
G37*
G36*
X152748000Y-104691000D02*
G01*
X150146000Y-104691000D01*
X150146000Y-103589000D01*
X152748000Y-103589000D01*
X152748000Y-104691000D01*
X152748000Y-104691000D01*
G37*
G36*
X152748000Y-102151000D02*
G01*
X150146000Y-102151000D01*
X150146000Y-101049000D01*
X152748000Y-101049000D01*
X152748000Y-102151000D01*
X152748000Y-102151000D01*
G37*
G36*
X141591591Y-100824085D02*
G01*
X141625569Y-100834393D01*
X141656890Y-100851134D01*
X141684339Y-100873661D01*
X141706866Y-100901110D01*
X141723607Y-100932431D01*
X141733915Y-100966409D01*
X141738000Y-101007890D01*
X141738000Y-101684110D01*
X141733915Y-101725591D01*
X141723607Y-101759569D01*
X141706866Y-101790890D01*
X141684339Y-101818339D01*
X141656890Y-101840866D01*
X141625569Y-101857607D01*
X141591591Y-101867915D01*
X141550110Y-101872000D01*
X140948890Y-101872000D01*
X140907409Y-101867915D01*
X140873431Y-101857607D01*
X140842110Y-101840866D01*
X140814661Y-101818339D01*
X140792134Y-101790890D01*
X140775393Y-101759569D01*
X140765085Y-101725591D01*
X140761000Y-101684110D01*
X140761000Y-101007890D01*
X140765085Y-100966409D01*
X140775393Y-100932431D01*
X140792134Y-100901110D01*
X140814661Y-100873661D01*
X140842110Y-100851134D01*
X140873431Y-100834393D01*
X140907409Y-100824085D01*
X140948890Y-100820000D01*
X141550110Y-100820000D01*
X141591591Y-100824085D01*
X141591591Y-100824085D01*
G37*
G36*
X140016591Y-100824085D02*
G01*
X140050569Y-100834393D01*
X140081890Y-100851134D01*
X140109339Y-100873661D01*
X140131866Y-100901110D01*
X140148607Y-100932431D01*
X140158915Y-100966409D01*
X140163000Y-101007890D01*
X140163000Y-101684110D01*
X140158915Y-101725591D01*
X140148607Y-101759569D01*
X140131866Y-101790890D01*
X140109339Y-101818339D01*
X140081890Y-101840866D01*
X140050569Y-101857607D01*
X140016591Y-101867915D01*
X139975110Y-101872000D01*
X139373890Y-101872000D01*
X139332409Y-101867915D01*
X139298431Y-101857607D01*
X139267110Y-101840866D01*
X139239661Y-101818339D01*
X139217134Y-101790890D01*
X139200393Y-101759569D01*
X139190085Y-101725591D01*
X139186000Y-101684110D01*
X139186000Y-101007890D01*
X139190085Y-100966409D01*
X139200393Y-100932431D01*
X139217134Y-100901110D01*
X139239661Y-100873661D01*
X139267110Y-100851134D01*
X139298431Y-100834393D01*
X139332409Y-100824085D01*
X139373890Y-100820000D01*
X139975110Y-100820000D01*
X140016591Y-100824085D01*
X140016591Y-100824085D01*
G37*
G36*
X152748000Y-99611000D02*
G01*
X150146000Y-99611000D01*
X150146000Y-98509000D01*
X152748000Y-98509000D01*
X152748000Y-99611000D01*
X152748000Y-99611000D01*
G37*
G36*
X139797000Y-98497000D02*
G01*
X139095000Y-98497000D01*
X139095000Y-96895000D01*
X139797000Y-96895000D01*
X139797000Y-98497000D01*
X139797000Y-98497000D01*
G37*
G36*
X147417000Y-98497000D02*
G01*
X146715000Y-98497000D01*
X146715000Y-96895000D01*
X147417000Y-96895000D01*
X147417000Y-98497000D01*
X147417000Y-98497000D01*
G37*
G36*
X146147000Y-98497000D02*
G01*
X145445000Y-98497000D01*
X145445000Y-96895000D01*
X146147000Y-96895000D01*
X146147000Y-98497000D01*
X146147000Y-98497000D01*
G37*
G36*
X144877000Y-98497000D02*
G01*
X144175000Y-98497000D01*
X144175000Y-96895000D01*
X144877000Y-96895000D01*
X144877000Y-98497000D01*
X144877000Y-98497000D01*
G37*
G36*
X142337000Y-98497000D02*
G01*
X141635000Y-98497000D01*
X141635000Y-96895000D01*
X142337000Y-96895000D01*
X142337000Y-98497000D01*
X142337000Y-98497000D01*
G37*
G36*
X141067000Y-98497000D02*
G01*
X140365000Y-98497000D01*
X140365000Y-96895000D01*
X141067000Y-96895000D01*
X141067000Y-98497000D01*
X141067000Y-98497000D01*
G37*
G36*
X143607000Y-98497000D02*
G01*
X142905000Y-98497000D01*
X142905000Y-96895000D01*
X143607000Y-96895000D01*
X143607000Y-98497000D01*
X143607000Y-98497000D01*
G37*
G36*
X152748000Y-97071000D02*
G01*
X150146000Y-97071000D01*
X150146000Y-95969000D01*
X152748000Y-95969000D01*
X152748000Y-97071000D01*
X152748000Y-97071000D01*
G37*
G36*
X137031591Y-95807085D02*
G01*
X137065569Y-95817393D01*
X137096890Y-95834134D01*
X137124339Y-95856661D01*
X137146866Y-95884110D01*
X137163607Y-95915431D01*
X137173915Y-95949409D01*
X137178000Y-95990890D01*
X137178000Y-96592110D01*
X137173915Y-96633591D01*
X137163607Y-96667569D01*
X137146866Y-96698890D01*
X137124339Y-96726339D01*
X137096890Y-96748866D01*
X137065569Y-96765607D01*
X137031591Y-96775915D01*
X136990110Y-96780000D01*
X136313890Y-96780000D01*
X136272409Y-96775915D01*
X136238431Y-96765607D01*
X136207110Y-96748866D01*
X136179661Y-96726339D01*
X136157134Y-96698890D01*
X136140393Y-96667569D01*
X136130085Y-96633591D01*
X136126000Y-96592110D01*
X136126000Y-95990890D01*
X136130085Y-95949409D01*
X136140393Y-95915431D01*
X136157134Y-95884110D01*
X136179661Y-95856661D01*
X136207110Y-95834134D01*
X136238431Y-95817393D01*
X136272409Y-95807085D01*
X136313890Y-95803000D01*
X136990110Y-95803000D01*
X137031591Y-95807085D01*
X137031591Y-95807085D01*
G37*
G36*
X137031591Y-94232085D02*
G01*
X137065569Y-94242393D01*
X137096890Y-94259134D01*
X137124339Y-94281661D01*
X137146866Y-94309110D01*
X137163607Y-94340431D01*
X137173915Y-94374409D01*
X137178000Y-94415890D01*
X137178000Y-95017110D01*
X137173915Y-95058591D01*
X137163607Y-95092569D01*
X137146866Y-95123890D01*
X137124339Y-95151339D01*
X137096890Y-95173866D01*
X137065569Y-95190607D01*
X137031591Y-95200915D01*
X136990110Y-95205000D01*
X136313890Y-95205000D01*
X136272409Y-95200915D01*
X136238431Y-95190607D01*
X136207110Y-95173866D01*
X136179661Y-95151339D01*
X136157134Y-95123890D01*
X136140393Y-95092569D01*
X136130085Y-95058591D01*
X136126000Y-95017110D01*
X136126000Y-94415890D01*
X136130085Y-94374409D01*
X136140393Y-94340431D01*
X136157134Y-94309110D01*
X136179661Y-94281661D01*
X136207110Y-94259134D01*
X136238431Y-94242393D01*
X136272409Y-94232085D01*
X136313890Y-94228000D01*
X136990110Y-94228000D01*
X137031591Y-94232085D01*
X137031591Y-94232085D01*
G37*
G36*
X152748000Y-94531000D02*
G01*
X150146000Y-94531000D01*
X150146000Y-93429000D01*
X152748000Y-93429000D01*
X152748000Y-94531000D01*
X152748000Y-94531000D01*
G37*
G36*
X141067000Y-93097000D02*
G01*
X140365000Y-93097000D01*
X140365000Y-91495000D01*
X141067000Y-91495000D01*
X141067000Y-93097000D01*
X141067000Y-93097000D01*
G37*
G36*
X142337000Y-93097000D02*
G01*
X141635000Y-93097000D01*
X141635000Y-91495000D01*
X142337000Y-91495000D01*
X142337000Y-93097000D01*
X142337000Y-93097000D01*
G37*
G36*
X143607000Y-93097000D02*
G01*
X142905000Y-93097000D01*
X142905000Y-91495000D01*
X143607000Y-91495000D01*
X143607000Y-93097000D01*
X143607000Y-93097000D01*
G37*
G36*
X144877000Y-93097000D02*
G01*
X144175000Y-93097000D01*
X144175000Y-91495000D01*
X144877000Y-91495000D01*
X144877000Y-93097000D01*
X144877000Y-93097000D01*
G37*
G36*
X139797000Y-93097000D02*
G01*
X139095000Y-93097000D01*
X139095000Y-91495000D01*
X139797000Y-91495000D01*
X139797000Y-93097000D01*
X139797000Y-93097000D01*
G37*
G36*
X147417000Y-93097000D02*
G01*
X146715000Y-93097000D01*
X146715000Y-91495000D01*
X147417000Y-91495000D01*
X147417000Y-93097000D01*
X147417000Y-93097000D01*
G37*
G36*
X146147000Y-93097000D02*
G01*
X145445000Y-93097000D01*
X145445000Y-91495000D01*
X146147000Y-91495000D01*
X146147000Y-93097000D01*
X146147000Y-93097000D01*
G37*
G36*
X152748000Y-91991000D02*
G01*
X150146000Y-91991000D01*
X150146000Y-90889000D01*
X152748000Y-90889000D01*
X152748000Y-91991000D01*
X152748000Y-91991000D01*
G37*
G36*
X139825591Y-86688585D02*
G01*
X139859569Y-86698893D01*
X139890890Y-86715634D01*
X139918339Y-86738161D01*
X139940866Y-86765610D01*
X139957607Y-86796931D01*
X139967915Y-86830909D01*
X139972000Y-86872390D01*
X139972000Y-87473610D01*
X139967915Y-87515091D01*
X139957607Y-87549069D01*
X139940866Y-87580390D01*
X139918339Y-87607839D01*
X139890890Y-87630366D01*
X139859569Y-87647107D01*
X139825591Y-87657415D01*
X139784110Y-87661500D01*
X139107890Y-87661500D01*
X139066409Y-87657415D01*
X139032431Y-87647107D01*
X139001110Y-87630366D01*
X138973661Y-87607839D01*
X138951134Y-87580390D01*
X138934393Y-87549069D01*
X138924085Y-87515091D01*
X138920000Y-87473610D01*
X138920000Y-86872390D01*
X138924085Y-86830909D01*
X138934393Y-86796931D01*
X138951134Y-86765610D01*
X138973661Y-86738161D01*
X139001110Y-86715634D01*
X139032431Y-86698893D01*
X139066409Y-86688585D01*
X139107890Y-86684500D01*
X139784110Y-86684500D01*
X139825591Y-86688585D01*
X139825591Y-86688585D01*
G37*
G36*
X153795591Y-86663085D02*
G01*
X153829569Y-86673393D01*
X153860890Y-86690134D01*
X153888339Y-86712661D01*
X153910866Y-86740110D01*
X153927607Y-86771431D01*
X153937915Y-86805409D01*
X153942000Y-86846890D01*
X153942000Y-87448110D01*
X153937915Y-87489591D01*
X153927607Y-87523569D01*
X153910866Y-87554890D01*
X153888339Y-87582339D01*
X153860890Y-87604866D01*
X153829569Y-87621607D01*
X153795591Y-87631915D01*
X153754110Y-87636000D01*
X153077890Y-87636000D01*
X153036409Y-87631915D01*
X153002431Y-87621607D01*
X152971110Y-87604866D01*
X152943661Y-87582339D01*
X152921134Y-87554890D01*
X152904393Y-87523569D01*
X152894085Y-87489591D01*
X152890000Y-87448110D01*
X152890000Y-86846890D01*
X152894085Y-86805409D01*
X152904393Y-86771431D01*
X152921134Y-86740110D01*
X152943661Y-86712661D01*
X152971110Y-86690134D01*
X153002431Y-86673393D01*
X153036409Y-86663085D01*
X153077890Y-86659000D01*
X153754110Y-86659000D01*
X153795591Y-86663085D01*
X153795591Y-86663085D01*
G37*
G36*
X150493591Y-86663085D02*
G01*
X150527569Y-86673393D01*
X150558890Y-86690134D01*
X150586339Y-86712661D01*
X150608866Y-86740110D01*
X150625607Y-86771431D01*
X150635915Y-86805409D01*
X150640000Y-86846890D01*
X150640000Y-87448110D01*
X150635915Y-87489591D01*
X150625607Y-87523569D01*
X150608866Y-87554890D01*
X150586339Y-87582339D01*
X150558890Y-87604866D01*
X150527569Y-87621607D01*
X150493591Y-87631915D01*
X150452110Y-87636000D01*
X149775890Y-87636000D01*
X149734409Y-87631915D01*
X149700431Y-87621607D01*
X149669110Y-87604866D01*
X149641661Y-87582339D01*
X149619134Y-87554890D01*
X149602393Y-87523569D01*
X149592085Y-87489591D01*
X149588000Y-87448110D01*
X149588000Y-86846890D01*
X149592085Y-86805409D01*
X149602393Y-86771431D01*
X149619134Y-86740110D01*
X149641661Y-86712661D01*
X149669110Y-86690134D01*
X149700431Y-86673393D01*
X149734409Y-86663085D01*
X149775890Y-86659000D01*
X150452110Y-86659000D01*
X150493591Y-86663085D01*
X150493591Y-86663085D01*
G37*
G36*
X136523591Y-86663085D02*
G01*
X136557569Y-86673393D01*
X136588890Y-86690134D01*
X136616339Y-86712661D01*
X136638866Y-86740110D01*
X136655607Y-86771431D01*
X136665915Y-86805409D01*
X136670000Y-86846890D01*
X136670000Y-87448110D01*
X136665915Y-87489591D01*
X136655607Y-87523569D01*
X136638866Y-87554890D01*
X136616339Y-87582339D01*
X136588890Y-87604866D01*
X136557569Y-87621607D01*
X136523591Y-87631915D01*
X136482110Y-87636000D01*
X135805890Y-87636000D01*
X135764409Y-87631915D01*
X135730431Y-87621607D01*
X135699110Y-87604866D01*
X135671661Y-87582339D01*
X135649134Y-87554890D01*
X135632393Y-87523569D01*
X135622085Y-87489591D01*
X135618000Y-87448110D01*
X135618000Y-86846890D01*
X135622085Y-86805409D01*
X135632393Y-86771431D01*
X135649134Y-86740110D01*
X135671661Y-86712661D01*
X135699110Y-86690134D01*
X135730431Y-86673393D01*
X135764409Y-86663085D01*
X135805890Y-86659000D01*
X136482110Y-86659000D01*
X136523591Y-86663085D01*
X136523591Y-86663085D01*
G37*
G36*
X143381591Y-86663085D02*
G01*
X143415569Y-86673393D01*
X143446890Y-86690134D01*
X143474339Y-86712661D01*
X143496866Y-86740110D01*
X143513607Y-86771431D01*
X143523915Y-86805409D01*
X143528000Y-86846890D01*
X143528000Y-87448110D01*
X143523915Y-87489591D01*
X143513607Y-87523569D01*
X143496866Y-87554890D01*
X143474339Y-87582339D01*
X143446890Y-87604866D01*
X143415569Y-87621607D01*
X143381591Y-87631915D01*
X143340110Y-87636000D01*
X142663890Y-87636000D01*
X142622409Y-87631915D01*
X142588431Y-87621607D01*
X142557110Y-87604866D01*
X142529661Y-87582339D01*
X142507134Y-87554890D01*
X142490393Y-87523569D01*
X142480085Y-87489591D01*
X142476000Y-87448110D01*
X142476000Y-86846890D01*
X142480085Y-86805409D01*
X142490393Y-86771431D01*
X142507134Y-86740110D01*
X142529661Y-86712661D01*
X142557110Y-86690134D01*
X142588431Y-86673393D01*
X142622409Y-86663085D01*
X142663890Y-86659000D01*
X143340110Y-86659000D01*
X143381591Y-86663085D01*
X143381591Y-86663085D01*
G37*
G36*
X158113591Y-86663085D02*
G01*
X158147569Y-86673393D01*
X158178890Y-86690134D01*
X158206339Y-86712661D01*
X158228866Y-86740110D01*
X158245607Y-86771431D01*
X158255915Y-86805409D01*
X158260000Y-86846890D01*
X158260000Y-87448110D01*
X158255915Y-87489591D01*
X158245607Y-87523569D01*
X158228866Y-87554890D01*
X158206339Y-87582339D01*
X158178890Y-87604866D01*
X158147569Y-87621607D01*
X158113591Y-87631915D01*
X158072110Y-87636000D01*
X157395890Y-87636000D01*
X157354409Y-87631915D01*
X157320431Y-87621607D01*
X157289110Y-87604866D01*
X157261661Y-87582339D01*
X157239134Y-87554890D01*
X157222393Y-87523569D01*
X157212085Y-87489591D01*
X157208000Y-87448110D01*
X157208000Y-86846890D01*
X157212085Y-86805409D01*
X157222393Y-86771431D01*
X157239134Y-86740110D01*
X157261661Y-86712661D01*
X157289110Y-86690134D01*
X157320431Y-86673393D01*
X157354409Y-86663085D01*
X157395890Y-86659000D01*
X158072110Y-86659000D01*
X158113591Y-86663085D01*
X158113591Y-86663085D01*
G37*
G36*
X161669591Y-86663085D02*
G01*
X161703569Y-86673393D01*
X161734890Y-86690134D01*
X161762339Y-86712661D01*
X161784866Y-86740110D01*
X161801607Y-86771431D01*
X161811915Y-86805409D01*
X161816000Y-86846890D01*
X161816000Y-87448110D01*
X161811915Y-87489591D01*
X161801607Y-87523569D01*
X161784866Y-87554890D01*
X161762339Y-87582339D01*
X161734890Y-87604866D01*
X161703569Y-87621607D01*
X161669591Y-87631915D01*
X161628110Y-87636000D01*
X160951890Y-87636000D01*
X160910409Y-87631915D01*
X160876431Y-87621607D01*
X160845110Y-87604866D01*
X160817661Y-87582339D01*
X160795134Y-87554890D01*
X160778393Y-87523569D01*
X160768085Y-87489591D01*
X160764000Y-87448110D01*
X160764000Y-86846890D01*
X160768085Y-86805409D01*
X160778393Y-86771431D01*
X160795134Y-86740110D01*
X160817661Y-86712661D01*
X160845110Y-86690134D01*
X160876431Y-86673393D01*
X160910409Y-86663085D01*
X160951890Y-86659000D01*
X161628110Y-86659000D01*
X161669591Y-86663085D01*
X161669591Y-86663085D01*
G37*
G36*
X164463591Y-86663085D02*
G01*
X164497569Y-86673393D01*
X164528890Y-86690134D01*
X164556339Y-86712661D01*
X164578866Y-86740110D01*
X164595607Y-86771431D01*
X164605915Y-86805409D01*
X164610000Y-86846890D01*
X164610000Y-87448110D01*
X164605915Y-87489591D01*
X164595607Y-87523569D01*
X164578866Y-87554890D01*
X164556339Y-87582339D01*
X164528890Y-87604866D01*
X164497569Y-87621607D01*
X164463591Y-87631915D01*
X164422110Y-87636000D01*
X163745890Y-87636000D01*
X163704409Y-87631915D01*
X163670431Y-87621607D01*
X163639110Y-87604866D01*
X163611661Y-87582339D01*
X163589134Y-87554890D01*
X163572393Y-87523569D01*
X163562085Y-87489591D01*
X163558000Y-87448110D01*
X163558000Y-86846890D01*
X163562085Y-86805409D01*
X163572393Y-86771431D01*
X163589134Y-86740110D01*
X163611661Y-86712661D01*
X163639110Y-86690134D01*
X163670431Y-86673393D01*
X163704409Y-86663085D01*
X163745890Y-86659000D01*
X164422110Y-86659000D01*
X164463591Y-86663085D01*
X164463591Y-86663085D01*
G37*
G36*
X139825591Y-85113585D02*
G01*
X139859569Y-85123893D01*
X139890890Y-85140634D01*
X139918339Y-85163161D01*
X139940866Y-85190610D01*
X139957607Y-85221931D01*
X139967915Y-85255909D01*
X139972000Y-85297390D01*
X139972000Y-85898610D01*
X139967915Y-85940091D01*
X139957607Y-85974069D01*
X139940866Y-86005390D01*
X139918339Y-86032839D01*
X139890890Y-86055366D01*
X139859569Y-86072107D01*
X139825591Y-86082415D01*
X139784110Y-86086500D01*
X139107890Y-86086500D01*
X139066409Y-86082415D01*
X139032431Y-86072107D01*
X139001110Y-86055366D01*
X138973661Y-86032839D01*
X138951134Y-86005390D01*
X138934393Y-85974069D01*
X138924085Y-85940091D01*
X138920000Y-85898610D01*
X138920000Y-85297390D01*
X138924085Y-85255909D01*
X138934393Y-85221931D01*
X138951134Y-85190610D01*
X138973661Y-85163161D01*
X139001110Y-85140634D01*
X139032431Y-85123893D01*
X139066409Y-85113585D01*
X139107890Y-85109500D01*
X139784110Y-85109500D01*
X139825591Y-85113585D01*
X139825591Y-85113585D01*
G37*
G36*
X150493591Y-85088085D02*
G01*
X150527569Y-85098393D01*
X150558890Y-85115134D01*
X150586339Y-85137661D01*
X150608866Y-85165110D01*
X150625607Y-85196431D01*
X150635915Y-85230409D01*
X150640000Y-85271890D01*
X150640000Y-85873110D01*
X150635915Y-85914591D01*
X150625607Y-85948569D01*
X150608866Y-85979890D01*
X150586339Y-86007339D01*
X150558890Y-86029866D01*
X150527569Y-86046607D01*
X150493591Y-86056915D01*
X150452110Y-86061000D01*
X149775890Y-86061000D01*
X149734409Y-86056915D01*
X149700431Y-86046607D01*
X149669110Y-86029866D01*
X149641661Y-86007339D01*
X149619134Y-85979890D01*
X149602393Y-85948569D01*
X149592085Y-85914591D01*
X149588000Y-85873110D01*
X149588000Y-85271890D01*
X149592085Y-85230409D01*
X149602393Y-85196431D01*
X149619134Y-85165110D01*
X149641661Y-85137661D01*
X149669110Y-85115134D01*
X149700431Y-85098393D01*
X149734409Y-85088085D01*
X149775890Y-85084000D01*
X150452110Y-85084000D01*
X150493591Y-85088085D01*
X150493591Y-85088085D01*
G37*
G36*
X164463591Y-85088085D02*
G01*
X164497569Y-85098393D01*
X164528890Y-85115134D01*
X164556339Y-85137661D01*
X164578866Y-85165110D01*
X164595607Y-85196431D01*
X164605915Y-85230409D01*
X164610000Y-85271890D01*
X164610000Y-85873110D01*
X164605915Y-85914591D01*
X164595607Y-85948569D01*
X164578866Y-85979890D01*
X164556339Y-86007339D01*
X164528890Y-86029866D01*
X164497569Y-86046607D01*
X164463591Y-86056915D01*
X164422110Y-86061000D01*
X163745890Y-86061000D01*
X163704409Y-86056915D01*
X163670431Y-86046607D01*
X163639110Y-86029866D01*
X163611661Y-86007339D01*
X163589134Y-85979890D01*
X163572393Y-85948569D01*
X163562085Y-85914591D01*
X163558000Y-85873110D01*
X163558000Y-85271890D01*
X163562085Y-85230409D01*
X163572393Y-85196431D01*
X163589134Y-85165110D01*
X163611661Y-85137661D01*
X163639110Y-85115134D01*
X163670431Y-85098393D01*
X163704409Y-85088085D01*
X163745890Y-85084000D01*
X164422110Y-85084000D01*
X164463591Y-85088085D01*
X164463591Y-85088085D01*
G37*
G36*
X161669591Y-85088085D02*
G01*
X161703569Y-85098393D01*
X161734890Y-85115134D01*
X161762339Y-85137661D01*
X161784866Y-85165110D01*
X161801607Y-85196431D01*
X161811915Y-85230409D01*
X161816000Y-85271890D01*
X161816000Y-85873110D01*
X161811915Y-85914591D01*
X161801607Y-85948569D01*
X161784866Y-85979890D01*
X161762339Y-86007339D01*
X161734890Y-86029866D01*
X161703569Y-86046607D01*
X161669591Y-86056915D01*
X161628110Y-86061000D01*
X160951890Y-86061000D01*
X160910409Y-86056915D01*
X160876431Y-86046607D01*
X160845110Y-86029866D01*
X160817661Y-86007339D01*
X160795134Y-85979890D01*
X160778393Y-85948569D01*
X160768085Y-85914591D01*
X160764000Y-85873110D01*
X160764000Y-85271890D01*
X160768085Y-85230409D01*
X160778393Y-85196431D01*
X160795134Y-85165110D01*
X160817661Y-85137661D01*
X160845110Y-85115134D01*
X160876431Y-85098393D01*
X160910409Y-85088085D01*
X160951890Y-85084000D01*
X161628110Y-85084000D01*
X161669591Y-85088085D01*
X161669591Y-85088085D01*
G37*
G36*
X143381591Y-85088085D02*
G01*
X143415569Y-85098393D01*
X143446890Y-85115134D01*
X143474339Y-85137661D01*
X143496866Y-85165110D01*
X143513607Y-85196431D01*
X143523915Y-85230409D01*
X143528000Y-85271890D01*
X143528000Y-85873110D01*
X143523915Y-85914591D01*
X143513607Y-85948569D01*
X143496866Y-85979890D01*
X143474339Y-86007339D01*
X143446890Y-86029866D01*
X143415569Y-86046607D01*
X143381591Y-86056915D01*
X143340110Y-86061000D01*
X142663890Y-86061000D01*
X142622409Y-86056915D01*
X142588431Y-86046607D01*
X142557110Y-86029866D01*
X142529661Y-86007339D01*
X142507134Y-85979890D01*
X142490393Y-85948569D01*
X142480085Y-85914591D01*
X142476000Y-85873110D01*
X142476000Y-85271890D01*
X142480085Y-85230409D01*
X142490393Y-85196431D01*
X142507134Y-85165110D01*
X142529661Y-85137661D01*
X142557110Y-85115134D01*
X142588431Y-85098393D01*
X142622409Y-85088085D01*
X142663890Y-85084000D01*
X143340110Y-85084000D01*
X143381591Y-85088085D01*
X143381591Y-85088085D01*
G37*
G36*
X136523591Y-85088085D02*
G01*
X136557569Y-85098393D01*
X136588890Y-85115134D01*
X136616339Y-85137661D01*
X136638866Y-85165110D01*
X136655607Y-85196431D01*
X136665915Y-85230409D01*
X136670000Y-85271890D01*
X136670000Y-85873110D01*
X136665915Y-85914591D01*
X136655607Y-85948569D01*
X136638866Y-85979890D01*
X136616339Y-86007339D01*
X136588890Y-86029866D01*
X136557569Y-86046607D01*
X136523591Y-86056915D01*
X136482110Y-86061000D01*
X135805890Y-86061000D01*
X135764409Y-86056915D01*
X135730431Y-86046607D01*
X135699110Y-86029866D01*
X135671661Y-86007339D01*
X135649134Y-85979890D01*
X135632393Y-85948569D01*
X135622085Y-85914591D01*
X135618000Y-85873110D01*
X135618000Y-85271890D01*
X135622085Y-85230409D01*
X135632393Y-85196431D01*
X135649134Y-85165110D01*
X135671661Y-85137661D01*
X135699110Y-85115134D01*
X135730431Y-85098393D01*
X135764409Y-85088085D01*
X135805890Y-85084000D01*
X136482110Y-85084000D01*
X136523591Y-85088085D01*
X136523591Y-85088085D01*
G37*
G36*
X153795591Y-85088085D02*
G01*
X153829569Y-85098393D01*
X153860890Y-85115134D01*
X153888339Y-85137661D01*
X153910866Y-85165110D01*
X153927607Y-85196431D01*
X153937915Y-85230409D01*
X153942000Y-85271890D01*
X153942000Y-85873110D01*
X153937915Y-85914591D01*
X153927607Y-85948569D01*
X153910866Y-85979890D01*
X153888339Y-86007339D01*
X153860890Y-86029866D01*
X153829569Y-86046607D01*
X153795591Y-86056915D01*
X153754110Y-86061000D01*
X153077890Y-86061000D01*
X153036409Y-86056915D01*
X153002431Y-86046607D01*
X152971110Y-86029866D01*
X152943661Y-86007339D01*
X152921134Y-85979890D01*
X152904393Y-85948569D01*
X152894085Y-85914591D01*
X152890000Y-85873110D01*
X152890000Y-85271890D01*
X152894085Y-85230409D01*
X152904393Y-85196431D01*
X152921134Y-85165110D01*
X152943661Y-85137661D01*
X152971110Y-85115134D01*
X153002431Y-85098393D01*
X153036409Y-85088085D01*
X153077890Y-85084000D01*
X153754110Y-85084000D01*
X153795591Y-85088085D01*
X153795591Y-85088085D01*
G37*
G36*
X158113591Y-85088085D02*
G01*
X158147569Y-85098393D01*
X158178890Y-85115134D01*
X158206339Y-85137661D01*
X158228866Y-85165110D01*
X158245607Y-85196431D01*
X158255915Y-85230409D01*
X158260000Y-85271890D01*
X158260000Y-85873110D01*
X158255915Y-85914591D01*
X158245607Y-85948569D01*
X158228866Y-85979890D01*
X158206339Y-86007339D01*
X158178890Y-86029866D01*
X158147569Y-86046607D01*
X158113591Y-86056915D01*
X158072110Y-86061000D01*
X157395890Y-86061000D01*
X157354409Y-86056915D01*
X157320431Y-86046607D01*
X157289110Y-86029866D01*
X157261661Y-86007339D01*
X157239134Y-85979890D01*
X157222393Y-85948569D01*
X157212085Y-85914591D01*
X157208000Y-85873110D01*
X157208000Y-85271890D01*
X157212085Y-85230409D01*
X157222393Y-85196431D01*
X157239134Y-85165110D01*
X157261661Y-85137661D01*
X157289110Y-85115134D01*
X157320431Y-85098393D01*
X157354409Y-85088085D01*
X157395890Y-85084000D01*
X158072110Y-85084000D01*
X158113591Y-85088085D01*
X158113591Y-85088085D01*
G37*
G36*
X133533000Y-79408000D02*
G01*
X132031000Y-79408000D01*
X132031000Y-78506000D01*
X133533000Y-78506000D01*
X133533000Y-79408000D01*
X133533000Y-79408000D01*
G37*
G36*
X138733000Y-79408000D02*
G01*
X137231000Y-79408000D01*
X137231000Y-78506000D01*
X138733000Y-78506000D01*
X138733000Y-79408000D01*
X138733000Y-79408000D01*
G37*
G36*
X147249000Y-79408000D02*
G01*
X145747000Y-79408000D01*
X145747000Y-78506000D01*
X147249000Y-78506000D01*
X147249000Y-79408000D01*
X147249000Y-79408000D01*
G37*
G36*
X152449000Y-79408000D02*
G01*
X150947000Y-79408000D01*
X150947000Y-78506000D01*
X152449000Y-78506000D01*
X152449000Y-79408000D01*
X152449000Y-79408000D01*
G37*
G36*
X138733000Y-77958000D02*
G01*
X137231000Y-77958000D01*
X137231000Y-77056000D01*
X138733000Y-77056000D01*
X138733000Y-77958000D01*
X138733000Y-77958000D01*
G37*
G36*
X152449000Y-77958000D02*
G01*
X150947000Y-77958000D01*
X150947000Y-77056000D01*
X152449000Y-77056000D01*
X152449000Y-77958000D01*
X152449000Y-77958000D01*
G37*
G36*
X133533000Y-77958000D02*
G01*
X132031000Y-77958000D01*
X132031000Y-77056000D01*
X133533000Y-77056000D01*
X133533000Y-77958000D01*
X133533000Y-77958000D01*
G37*
G36*
X147249000Y-77958000D02*
G01*
X145747000Y-77958000D01*
X145747000Y-77056000D01*
X147249000Y-77056000D01*
X147249000Y-77958000D01*
X147249000Y-77958000D01*
G37*
M02*
