G04 #@! TF.GenerationSoftware,KiCad,Pcbnew,(5.1.0)-1*
G04 #@! TF.CreationDate,2019-10-07T14:17:58-05:00*
G04 #@! TF.ProjectId,supercon-2019-blink,73757065-7263-46f6-9e2d-323031392d62,v01*
G04 #@! TF.SameCoordinates,Original*
G04 #@! TF.FileFunction,Soldermask,Top*
G04 #@! TF.FilePolarity,Negative*
%FSLAX46Y46*%
G04 Gerber Fmt 4.6, Leading zero omitted, Abs format (unit mm)*
G04 Created by KiCad (PCBNEW (5.1.0)-1) date 2019-10-07 14:17:58*
%MOMM*%
%LPD*%
G04 APERTURE LIST*
%ADD10C,0.010000*%
%ADD11C,0.100000*%
G04 APERTURE END LIST*
D10*
G36*
X134353214Y-75634605D02*
G01*
X134482105Y-75655318D01*
X134816911Y-75736542D01*
X135125820Y-75857381D01*
X135415065Y-76021037D01*
X135690883Y-76230712D01*
X135806863Y-76335776D01*
X136070428Y-76617507D01*
X136288021Y-76917900D01*
X136458731Y-77235478D01*
X136581648Y-77568763D01*
X136594012Y-77612956D01*
X136616701Y-77700178D01*
X136633712Y-77776996D01*
X136645885Y-77853076D01*
X136654057Y-77938083D01*
X136659069Y-78041681D01*
X136661759Y-78173535D01*
X136662967Y-78343311D01*
X136663184Y-78409800D01*
X136662074Y-78638617D01*
X136656323Y-78827231D01*
X136644400Y-78986143D01*
X136624774Y-79125853D01*
X136595916Y-79256863D01*
X136556295Y-79389673D01*
X136504380Y-79534785D01*
X136496026Y-79556725D01*
X136435517Y-79693834D01*
X136354787Y-79847538D01*
X136262615Y-80003321D01*
X136167784Y-80146666D01*
X136079073Y-80263054D01*
X136046992Y-80299104D01*
X135940104Y-80386352D01*
X135786080Y-80473777D01*
X135588548Y-80559704D01*
X135351139Y-80642456D01*
X135216900Y-80682604D01*
X135066119Y-80724565D01*
X134890613Y-80771868D01*
X134696618Y-80822968D01*
X134490370Y-80876320D01*
X134278107Y-80930382D01*
X134066064Y-80983608D01*
X133860477Y-81034455D01*
X133667583Y-81081377D01*
X133493617Y-81122831D01*
X133344818Y-81157273D01*
X133227420Y-81183158D01*
X133147660Y-81198941D01*
X133114279Y-81203264D01*
X133048304Y-81194474D01*
X132955748Y-81172019D01*
X132862352Y-81142673D01*
X132540561Y-81003520D01*
X132237669Y-80822188D01*
X131958192Y-80603715D01*
X131706644Y-80353142D01*
X131487543Y-80075507D01*
X131305403Y-79775851D01*
X131164741Y-79459211D01*
X131073456Y-79146400D01*
X131054828Y-79029072D01*
X131040489Y-78874934D01*
X131030558Y-78695691D01*
X131025158Y-78503048D01*
X131024409Y-78308712D01*
X131028431Y-78124390D01*
X131037346Y-77961786D01*
X131051274Y-77832608D01*
X131059427Y-77787500D01*
X131163499Y-77427428D01*
X131313221Y-77087043D01*
X131506016Y-76770073D01*
X131739303Y-76480250D01*
X132010504Y-76221303D01*
X132281123Y-76020193D01*
X132569348Y-75860161D01*
X132887741Y-75737222D01*
X133230812Y-75652287D01*
X133593074Y-75606266D01*
X133969037Y-75600069D01*
X134353214Y-75634605D01*
X134353214Y-75634605D01*
G37*
X134353214Y-75634605D02*
X134482105Y-75655318D01*
X134816911Y-75736542D01*
X135125820Y-75857381D01*
X135415065Y-76021037D01*
X135690883Y-76230712D01*
X135806863Y-76335776D01*
X136070428Y-76617507D01*
X136288021Y-76917900D01*
X136458731Y-77235478D01*
X136581648Y-77568763D01*
X136594012Y-77612956D01*
X136616701Y-77700178D01*
X136633712Y-77776996D01*
X136645885Y-77853076D01*
X136654057Y-77938083D01*
X136659069Y-78041681D01*
X136661759Y-78173535D01*
X136662967Y-78343311D01*
X136663184Y-78409800D01*
X136662074Y-78638617D01*
X136656323Y-78827231D01*
X136644400Y-78986143D01*
X136624774Y-79125853D01*
X136595916Y-79256863D01*
X136556295Y-79389673D01*
X136504380Y-79534785D01*
X136496026Y-79556725D01*
X136435517Y-79693834D01*
X136354787Y-79847538D01*
X136262615Y-80003321D01*
X136167784Y-80146666D01*
X136079073Y-80263054D01*
X136046992Y-80299104D01*
X135940104Y-80386352D01*
X135786080Y-80473777D01*
X135588548Y-80559704D01*
X135351139Y-80642456D01*
X135216900Y-80682604D01*
X135066119Y-80724565D01*
X134890613Y-80771868D01*
X134696618Y-80822968D01*
X134490370Y-80876320D01*
X134278107Y-80930382D01*
X134066064Y-80983608D01*
X133860477Y-81034455D01*
X133667583Y-81081377D01*
X133493617Y-81122831D01*
X133344818Y-81157273D01*
X133227420Y-81183158D01*
X133147660Y-81198941D01*
X133114279Y-81203264D01*
X133048304Y-81194474D01*
X132955748Y-81172019D01*
X132862352Y-81142673D01*
X132540561Y-81003520D01*
X132237669Y-80822188D01*
X131958192Y-80603715D01*
X131706644Y-80353142D01*
X131487543Y-80075507D01*
X131305403Y-79775851D01*
X131164741Y-79459211D01*
X131073456Y-79146400D01*
X131054828Y-79029072D01*
X131040489Y-78874934D01*
X131030558Y-78695691D01*
X131025158Y-78503048D01*
X131024409Y-78308712D01*
X131028431Y-78124390D01*
X131037346Y-77961786D01*
X131051274Y-77832608D01*
X131059427Y-77787500D01*
X131163499Y-77427428D01*
X131313221Y-77087043D01*
X131506016Y-76770073D01*
X131739303Y-76480250D01*
X132010504Y-76221303D01*
X132281123Y-76020193D01*
X132569348Y-75860161D01*
X132887741Y-75737222D01*
X133230812Y-75652287D01*
X133593074Y-75606266D01*
X133969037Y-75600069D01*
X134353214Y-75634605D01*
G36*
X147691360Y-75777956D02*
G01*
X147899527Y-75800321D01*
X147932192Y-75805498D01*
X148305406Y-75889202D01*
X148647118Y-76011161D01*
X148961494Y-76173457D01*
X149252701Y-76378173D01*
X149474256Y-76576322D01*
X149677071Y-76803414D01*
X149863785Y-77064894D01*
X150026304Y-77346952D01*
X150156533Y-77635778D01*
X150235454Y-77875012D01*
X150259982Y-77971531D01*
X150277600Y-78057872D01*
X150289464Y-78145947D01*
X150296731Y-78247667D01*
X150300557Y-78374947D01*
X150302101Y-78539696D01*
X150302186Y-78562200D01*
X150295404Y-78869304D01*
X150271230Y-79139499D01*
X150227306Y-79384398D01*
X150161275Y-79615614D01*
X150070780Y-79844763D01*
X150019665Y-79953949D01*
X149835633Y-80273512D01*
X149612091Y-80562921D01*
X149351900Y-80820048D01*
X149057920Y-81042765D01*
X148733012Y-81228942D01*
X148380036Y-81376452D01*
X148001852Y-81483167D01*
X147949720Y-81494190D01*
X147773752Y-81518864D01*
X147564280Y-81530355D01*
X147336812Y-81528837D01*
X147106856Y-81514484D01*
X146889922Y-81487470D01*
X146857138Y-81481928D01*
X146504954Y-81394594D01*
X146170651Y-81260805D01*
X145856687Y-81082508D01*
X145565520Y-80861652D01*
X145299609Y-80600183D01*
X145061412Y-80300049D01*
X144853388Y-79963197D01*
X144793029Y-79846828D01*
X144686006Y-79603746D01*
X144611226Y-79365331D01*
X144565229Y-79116285D01*
X144544555Y-78841306D01*
X144542684Y-78740000D01*
X144545987Y-78502355D01*
X144560937Y-78296984D01*
X144590063Y-78106187D01*
X144635894Y-77912263D01*
X144684248Y-77749400D01*
X144823293Y-77391917D01*
X145003780Y-77062510D01*
X145223415Y-76763408D01*
X145479904Y-76496844D01*
X145770953Y-76265048D01*
X146094270Y-76070252D01*
X146447559Y-75914687D01*
X146634200Y-75852472D01*
X146801651Y-75814393D01*
X147004940Y-75787401D01*
X147230220Y-75771997D01*
X147463642Y-75768681D01*
X147691360Y-75777956D01*
X147691360Y-75777956D01*
G37*
X147691360Y-75777956D02*
X147899527Y-75800321D01*
X147932192Y-75805498D01*
X148305406Y-75889202D01*
X148647118Y-76011161D01*
X148961494Y-76173457D01*
X149252701Y-76378173D01*
X149474256Y-76576322D01*
X149677071Y-76803414D01*
X149863785Y-77064894D01*
X150026304Y-77346952D01*
X150156533Y-77635778D01*
X150235454Y-77875012D01*
X150259982Y-77971531D01*
X150277600Y-78057872D01*
X150289464Y-78145947D01*
X150296731Y-78247667D01*
X150300557Y-78374947D01*
X150302101Y-78539696D01*
X150302186Y-78562200D01*
X150295404Y-78869304D01*
X150271230Y-79139499D01*
X150227306Y-79384398D01*
X150161275Y-79615614D01*
X150070780Y-79844763D01*
X150019665Y-79953949D01*
X149835633Y-80273512D01*
X149612091Y-80562921D01*
X149351900Y-80820048D01*
X149057920Y-81042765D01*
X148733012Y-81228942D01*
X148380036Y-81376452D01*
X148001852Y-81483167D01*
X147949720Y-81494190D01*
X147773752Y-81518864D01*
X147564280Y-81530355D01*
X147336812Y-81528837D01*
X147106856Y-81514484D01*
X146889922Y-81487470D01*
X146857138Y-81481928D01*
X146504954Y-81394594D01*
X146170651Y-81260805D01*
X145856687Y-81082508D01*
X145565520Y-80861652D01*
X145299609Y-80600183D01*
X145061412Y-80300049D01*
X144853388Y-79963197D01*
X144793029Y-79846828D01*
X144686006Y-79603746D01*
X144611226Y-79365331D01*
X144565229Y-79116285D01*
X144544555Y-78841306D01*
X144542684Y-78740000D01*
X144545987Y-78502355D01*
X144560937Y-78296984D01*
X144590063Y-78106187D01*
X144635894Y-77912263D01*
X144684248Y-77749400D01*
X144823293Y-77391917D01*
X145003780Y-77062510D01*
X145223415Y-76763408D01*
X145479904Y-76496844D01*
X145770953Y-76265048D01*
X146094270Y-76070252D01*
X146447559Y-75914687D01*
X146634200Y-75852472D01*
X146801651Y-75814393D01*
X147004940Y-75787401D01*
X147230220Y-75771997D01*
X147463642Y-75768681D01*
X147691360Y-75777956D01*
G36*
X140426151Y-79852638D02*
G01*
X140543677Y-79912211D01*
X140682490Y-80008308D01*
X140838761Y-80138319D01*
X140985650Y-80276700D01*
X141170573Y-80470469D01*
X141315562Y-80649809D01*
X141425276Y-80824625D01*
X141504373Y-81004821D01*
X141557511Y-81200301D01*
X141589351Y-81420969D01*
X141600940Y-81584800D01*
X141608846Y-81787833D01*
X141608936Y-81946360D01*
X141599091Y-82066354D01*
X141577195Y-82153788D01*
X141541131Y-82214635D01*
X141488780Y-82254869D01*
X141418024Y-82280461D01*
X141349536Y-82293969D01*
X141300616Y-82297526D01*
X141205536Y-82300500D01*
X141068933Y-82302871D01*
X140895444Y-82304618D01*
X140689705Y-82305718D01*
X140456353Y-82306150D01*
X140200025Y-82305895D01*
X139925359Y-82304928D01*
X139636990Y-82303231D01*
X139522200Y-82302369D01*
X137881506Y-82305064D01*
X136258201Y-82339235D01*
X134657378Y-82404645D01*
X133084131Y-82501057D01*
X131543556Y-82628232D01*
X130670300Y-82715643D01*
X130498062Y-82734011D01*
X130338017Y-82751053D01*
X130198692Y-82765862D01*
X130088617Y-82777532D01*
X130016323Y-82785157D01*
X129997200Y-82787150D01*
X129941047Y-82786775D01*
X129846070Y-82779604D01*
X129723626Y-82766752D01*
X129585070Y-82749336D01*
X129520349Y-82740287D01*
X129385411Y-82719916D01*
X129268655Y-82700614D01*
X129179166Y-82684015D01*
X129126025Y-82671752D01*
X129115642Y-82667509D01*
X129113606Y-82638042D01*
X129162047Y-82604339D01*
X129260828Y-82566477D01*
X129328140Y-82546269D01*
X129439541Y-82515763D01*
X129597122Y-82473973D01*
X129797718Y-82421687D01*
X130038163Y-82359690D01*
X130315294Y-82288769D01*
X130625943Y-82209712D01*
X130966947Y-82123306D01*
X131335140Y-82030336D01*
X131727357Y-81931592D01*
X132140434Y-81827858D01*
X132571204Y-81719922D01*
X133016503Y-81608572D01*
X133473166Y-81494593D01*
X133938027Y-81378773D01*
X134407922Y-81261899D01*
X134879685Y-81144758D01*
X135350152Y-81028136D01*
X135816156Y-80912821D01*
X136274534Y-80799599D01*
X136722119Y-80689258D01*
X137155748Y-80582583D01*
X137572254Y-80480363D01*
X137968472Y-80383384D01*
X138341238Y-80292433D01*
X138687387Y-80208296D01*
X139003752Y-80131762D01*
X139287170Y-80063616D01*
X139534475Y-80004646D01*
X139742502Y-79955638D01*
X139829298Y-79935463D01*
X139976798Y-79902091D01*
X140110381Y-79873210D01*
X140220871Y-79850700D01*
X140299092Y-79836437D01*
X140333742Y-79832200D01*
X140426151Y-79852638D01*
X140426151Y-79852638D01*
G37*
X140426151Y-79852638D02*
X140543677Y-79912211D01*
X140682490Y-80008308D01*
X140838761Y-80138319D01*
X140985650Y-80276700D01*
X141170573Y-80470469D01*
X141315562Y-80649809D01*
X141425276Y-80824625D01*
X141504373Y-81004821D01*
X141557511Y-81200301D01*
X141589351Y-81420969D01*
X141600940Y-81584800D01*
X141608846Y-81787833D01*
X141608936Y-81946360D01*
X141599091Y-82066354D01*
X141577195Y-82153788D01*
X141541131Y-82214635D01*
X141488780Y-82254869D01*
X141418024Y-82280461D01*
X141349536Y-82293969D01*
X141300616Y-82297526D01*
X141205536Y-82300500D01*
X141068933Y-82302871D01*
X140895444Y-82304618D01*
X140689705Y-82305718D01*
X140456353Y-82306150D01*
X140200025Y-82305895D01*
X139925359Y-82304928D01*
X139636990Y-82303231D01*
X139522200Y-82302369D01*
X137881506Y-82305064D01*
X136258201Y-82339235D01*
X134657378Y-82404645D01*
X133084131Y-82501057D01*
X131543556Y-82628232D01*
X130670300Y-82715643D01*
X130498062Y-82734011D01*
X130338017Y-82751053D01*
X130198692Y-82765862D01*
X130088617Y-82777532D01*
X130016323Y-82785157D01*
X129997200Y-82787150D01*
X129941047Y-82786775D01*
X129846070Y-82779604D01*
X129723626Y-82766752D01*
X129585070Y-82749336D01*
X129520349Y-82740287D01*
X129385411Y-82719916D01*
X129268655Y-82700614D01*
X129179166Y-82684015D01*
X129126025Y-82671752D01*
X129115642Y-82667509D01*
X129113606Y-82638042D01*
X129162047Y-82604339D01*
X129260828Y-82566477D01*
X129328140Y-82546269D01*
X129439541Y-82515763D01*
X129597122Y-82473973D01*
X129797718Y-82421687D01*
X130038163Y-82359690D01*
X130315294Y-82288769D01*
X130625943Y-82209712D01*
X130966947Y-82123306D01*
X131335140Y-82030336D01*
X131727357Y-81931592D01*
X132140434Y-81827858D01*
X132571204Y-81719922D01*
X133016503Y-81608572D01*
X133473166Y-81494593D01*
X133938027Y-81378773D01*
X134407922Y-81261899D01*
X134879685Y-81144758D01*
X135350152Y-81028136D01*
X135816156Y-80912821D01*
X136274534Y-80799599D01*
X136722119Y-80689258D01*
X137155748Y-80582583D01*
X137572254Y-80480363D01*
X137968472Y-80383384D01*
X138341238Y-80292433D01*
X138687387Y-80208296D01*
X139003752Y-80131762D01*
X139287170Y-80063616D01*
X139534475Y-80004646D01*
X139742502Y-79955638D01*
X139829298Y-79935463D01*
X139976798Y-79902091D01*
X140110381Y-79873210D01*
X140220871Y-79850700D01*
X140299092Y-79836437D01*
X140333742Y-79832200D01*
X140426151Y-79852638D01*
G36*
X139324228Y-82608487D02*
G01*
X139761177Y-82613751D01*
X140135728Y-82623107D01*
X140414895Y-82632453D01*
X140647521Y-82640872D01*
X140837846Y-82648746D01*
X140990112Y-82656456D01*
X141108561Y-82664383D01*
X141197434Y-82672910D01*
X141260972Y-82682419D01*
X141303416Y-82693290D01*
X141329009Y-82705906D01*
X141341992Y-82720649D01*
X141345765Y-82732003D01*
X141338112Y-82787366D01*
X141305077Y-82871995D01*
X141253048Y-82975513D01*
X141188411Y-83087543D01*
X141117550Y-83197707D01*
X141046852Y-83295629D01*
X140982703Y-83370932D01*
X140931488Y-83413238D01*
X140924626Y-83416365D01*
X140907441Y-83422150D01*
X140886368Y-83426857D01*
X140857345Y-83430441D01*
X140816307Y-83432857D01*
X140759191Y-83434060D01*
X140681935Y-83434006D01*
X140580474Y-83432649D01*
X140450746Y-83429945D01*
X140288686Y-83425849D01*
X140090232Y-83420317D01*
X139851321Y-83413303D01*
X139567888Y-83404763D01*
X139395200Y-83399511D01*
X138519685Y-83371199D01*
X137686792Y-83340807D01*
X136888370Y-83307925D01*
X136116270Y-83272144D01*
X135362340Y-83233055D01*
X134618431Y-83190249D01*
X133876390Y-83143317D01*
X133128069Y-83091850D01*
X132816600Y-83069272D01*
X132548579Y-83048245D01*
X132331321Y-83028166D01*
X132164801Y-83008821D01*
X132048995Y-82989991D01*
X131983878Y-82971463D01*
X131969426Y-82953020D01*
X132005615Y-82934445D01*
X132092421Y-82915524D01*
X132229818Y-82896040D01*
X132417784Y-82875778D01*
X132656293Y-82854521D01*
X132791200Y-82843708D01*
X133293300Y-82807068D01*
X133823286Y-82772920D01*
X134375098Y-82741444D01*
X134942681Y-82712825D01*
X135519977Y-82687242D01*
X136100929Y-82664878D01*
X136679480Y-82645916D01*
X137249574Y-82630536D01*
X137805152Y-82618922D01*
X138340159Y-82611254D01*
X138848537Y-82607715D01*
X139324228Y-82608487D01*
X139324228Y-82608487D01*
G37*
X139324228Y-82608487D02*
X139761177Y-82613751D01*
X140135728Y-82623107D01*
X140414895Y-82632453D01*
X140647521Y-82640872D01*
X140837846Y-82648746D01*
X140990112Y-82656456D01*
X141108561Y-82664383D01*
X141197434Y-82672910D01*
X141260972Y-82682419D01*
X141303416Y-82693290D01*
X141329009Y-82705906D01*
X141341992Y-82720649D01*
X141345765Y-82732003D01*
X141338112Y-82787366D01*
X141305077Y-82871995D01*
X141253048Y-82975513D01*
X141188411Y-83087543D01*
X141117550Y-83197707D01*
X141046852Y-83295629D01*
X140982703Y-83370932D01*
X140931488Y-83413238D01*
X140924626Y-83416365D01*
X140907441Y-83422150D01*
X140886368Y-83426857D01*
X140857345Y-83430441D01*
X140816307Y-83432857D01*
X140759191Y-83434060D01*
X140681935Y-83434006D01*
X140580474Y-83432649D01*
X140450746Y-83429945D01*
X140288686Y-83425849D01*
X140090232Y-83420317D01*
X139851321Y-83413303D01*
X139567888Y-83404763D01*
X139395200Y-83399511D01*
X138519685Y-83371199D01*
X137686792Y-83340807D01*
X136888370Y-83307925D01*
X136116270Y-83272144D01*
X135362340Y-83233055D01*
X134618431Y-83190249D01*
X133876390Y-83143317D01*
X133128069Y-83091850D01*
X132816600Y-83069272D01*
X132548579Y-83048245D01*
X132331321Y-83028166D01*
X132164801Y-83008821D01*
X132048995Y-82989991D01*
X131983878Y-82971463D01*
X131969426Y-82953020D01*
X132005615Y-82934445D01*
X132092421Y-82915524D01*
X132229818Y-82896040D01*
X132417784Y-82875778D01*
X132656293Y-82854521D01*
X132791200Y-82843708D01*
X133293300Y-82807068D01*
X133823286Y-82772920D01*
X134375098Y-82741444D01*
X134942681Y-82712825D01*
X135519977Y-82687242D01*
X136100929Y-82664878D01*
X136679480Y-82645916D01*
X137249574Y-82630536D01*
X137805152Y-82618922D01*
X138340159Y-82611254D01*
X138848537Y-82607715D01*
X139324228Y-82608487D01*
D11*
G36*
X154504778Y-122076547D02*
G01*
X154671224Y-122145491D01*
X154821022Y-122245583D01*
X154948417Y-122372978D01*
X155048509Y-122522776D01*
X155117453Y-122689222D01*
X155152600Y-122865918D01*
X155152600Y-123046082D01*
X155117453Y-123222778D01*
X155048509Y-123389224D01*
X154948417Y-123539022D01*
X154821022Y-123666417D01*
X154671224Y-123766509D01*
X154504778Y-123835453D01*
X154328082Y-123870600D01*
X154147918Y-123870600D01*
X153971222Y-123835453D01*
X153804776Y-123766509D01*
X153654978Y-123666417D01*
X153527583Y-123539022D01*
X153427491Y-123389224D01*
X153358547Y-123222778D01*
X153323400Y-123046082D01*
X153323400Y-122865918D01*
X153358547Y-122689222D01*
X153427491Y-122522776D01*
X153527583Y-122372978D01*
X153654978Y-122245583D01*
X153804776Y-122145491D01*
X153971222Y-122076547D01*
X154147918Y-122041400D01*
X154328082Y-122041400D01*
X154504778Y-122076547D01*
X154504778Y-122076547D01*
G37*
G36*
X151877294Y-122054633D02*
G01*
X152049695Y-122106931D01*
X152208583Y-122191858D01*
X152347849Y-122306151D01*
X152462142Y-122445417D01*
X152547069Y-122604305D01*
X152599367Y-122776706D01*
X152617025Y-122956000D01*
X152599367Y-123135294D01*
X152547069Y-123307695D01*
X152462142Y-123466583D01*
X152347849Y-123605849D01*
X152208583Y-123720142D01*
X152049695Y-123805069D01*
X151877294Y-123857367D01*
X151742931Y-123870600D01*
X151653069Y-123870600D01*
X151518706Y-123857367D01*
X151346305Y-123805069D01*
X151187417Y-123720142D01*
X151048151Y-123605849D01*
X150933858Y-123466583D01*
X150848931Y-123307695D01*
X150796633Y-123135294D01*
X150778975Y-122956000D01*
X150796633Y-122776706D01*
X150848931Y-122604305D01*
X150933858Y-122445417D01*
X151048151Y-122306151D01*
X151187417Y-122191858D01*
X151346305Y-122106931D01*
X151518706Y-122054633D01*
X151653069Y-122041400D01*
X151742931Y-122041400D01*
X151877294Y-122054633D01*
X151877294Y-122054633D01*
G37*
G36*
X150072600Y-123870600D02*
G01*
X148243400Y-123870600D01*
X148243400Y-122041400D01*
X150072600Y-122041400D01*
X150072600Y-123870600D01*
X150072600Y-123870600D01*
G37*
G36*
X154504778Y-119536547D02*
G01*
X154671224Y-119605491D01*
X154821022Y-119705583D01*
X154948417Y-119832978D01*
X155048509Y-119982776D01*
X155117453Y-120149222D01*
X155152600Y-120325918D01*
X155152600Y-120506082D01*
X155117453Y-120682778D01*
X155048509Y-120849224D01*
X154948417Y-120999022D01*
X154821022Y-121126417D01*
X154671224Y-121226509D01*
X154504778Y-121295453D01*
X154328082Y-121330600D01*
X154147918Y-121330600D01*
X153971222Y-121295453D01*
X153804776Y-121226509D01*
X153654978Y-121126417D01*
X153527583Y-120999022D01*
X153427491Y-120849224D01*
X153358547Y-120682778D01*
X153323400Y-120506082D01*
X153323400Y-120325918D01*
X153358547Y-120149222D01*
X153427491Y-119982776D01*
X153527583Y-119832978D01*
X153654978Y-119705583D01*
X153804776Y-119605491D01*
X153971222Y-119536547D01*
X154147918Y-119501400D01*
X154328082Y-119501400D01*
X154504778Y-119536547D01*
X154504778Y-119536547D01*
G37*
G36*
X151877294Y-119514633D02*
G01*
X152049695Y-119566931D01*
X152208583Y-119651858D01*
X152347849Y-119766151D01*
X152462142Y-119905417D01*
X152547069Y-120064305D01*
X152599367Y-120236706D01*
X152617025Y-120416000D01*
X152599367Y-120595294D01*
X152547069Y-120767695D01*
X152462142Y-120926583D01*
X152347849Y-121065849D01*
X152208583Y-121180142D01*
X152049695Y-121265069D01*
X151877294Y-121317367D01*
X151742931Y-121330600D01*
X151653069Y-121330600D01*
X151518706Y-121317367D01*
X151346305Y-121265069D01*
X151187417Y-121180142D01*
X151048151Y-121065849D01*
X150933858Y-120926583D01*
X150848931Y-120767695D01*
X150796633Y-120595294D01*
X150778975Y-120416000D01*
X150796633Y-120236706D01*
X150848931Y-120064305D01*
X150933858Y-119905417D01*
X151048151Y-119766151D01*
X151187417Y-119651858D01*
X151346305Y-119566931D01*
X151518706Y-119514633D01*
X151653069Y-119501400D01*
X151742931Y-119501400D01*
X151877294Y-119514633D01*
X151877294Y-119514633D01*
G37*
G36*
X149337294Y-119514633D02*
G01*
X149509695Y-119566931D01*
X149668583Y-119651858D01*
X149807849Y-119766151D01*
X149922142Y-119905417D01*
X150007069Y-120064305D01*
X150059367Y-120236706D01*
X150077025Y-120416000D01*
X150059367Y-120595294D01*
X150007069Y-120767695D01*
X149922142Y-120926583D01*
X149807849Y-121065849D01*
X149668583Y-121180142D01*
X149509695Y-121265069D01*
X149337294Y-121317367D01*
X149202931Y-121330600D01*
X149113069Y-121330600D01*
X148978706Y-121317367D01*
X148806305Y-121265069D01*
X148647417Y-121180142D01*
X148508151Y-121065849D01*
X148393858Y-120926583D01*
X148308931Y-120767695D01*
X148256633Y-120595294D01*
X148238975Y-120416000D01*
X148256633Y-120236706D01*
X148308931Y-120064305D01*
X148393858Y-119905417D01*
X148508151Y-119766151D01*
X148647417Y-119651858D01*
X148806305Y-119566931D01*
X148978706Y-119514633D01*
X149113069Y-119501400D01*
X149202931Y-119501400D01*
X149337294Y-119514633D01*
X149337294Y-119514633D01*
G37*
M02*
