G04 #@! TF.GenerationSoftware,KiCad,Pcbnew,(5.1.0)-1*
G04 #@! TF.CreationDate,2019-10-02T17:05:54-05:00*
G04 #@! TF.ProjectId,supercon-2019-blink,73757065-7263-46f6-9e2d-323031392d62,v01*
G04 #@! TF.SameCoordinates,Original*
G04 #@! TF.FileFunction,Soldermask,Top*
G04 #@! TF.FilePolarity,Negative*
%FSLAX46Y46*%
G04 Gerber Fmt 4.6, Leading zero omitted, Abs format (unit mm)*
G04 Created by KiCad (PCBNEW (5.1.0)-1) date 2019-10-02 17:05:54*
%MOMM*%
%LPD*%
G04 APERTURE LIST*
%ADD10C,0.100000*%
G04 APERTURE END LIST*
D10*
G36*
X154758778Y-121822547D02*
G01*
X154925224Y-121891491D01*
X155075022Y-121991583D01*
X155202417Y-122118978D01*
X155302509Y-122268776D01*
X155371453Y-122435222D01*
X155406600Y-122611918D01*
X155406600Y-122792082D01*
X155371453Y-122968778D01*
X155302509Y-123135224D01*
X155202417Y-123285022D01*
X155075022Y-123412417D01*
X154925224Y-123512509D01*
X154758778Y-123581453D01*
X154582082Y-123616600D01*
X154401918Y-123616600D01*
X154225222Y-123581453D01*
X154058776Y-123512509D01*
X153908978Y-123412417D01*
X153781583Y-123285022D01*
X153681491Y-123135224D01*
X153612547Y-122968778D01*
X153577400Y-122792082D01*
X153577400Y-122611918D01*
X153612547Y-122435222D01*
X153681491Y-122268776D01*
X153781583Y-122118978D01*
X153908978Y-121991583D01*
X154058776Y-121891491D01*
X154225222Y-121822547D01*
X154401918Y-121787400D01*
X154582082Y-121787400D01*
X154758778Y-121822547D01*
X154758778Y-121822547D01*
G37*
G36*
X152131294Y-121800633D02*
G01*
X152303695Y-121852931D01*
X152462583Y-121937858D01*
X152601849Y-122052151D01*
X152716142Y-122191417D01*
X152801069Y-122350305D01*
X152853367Y-122522706D01*
X152871025Y-122702000D01*
X152853367Y-122881294D01*
X152801069Y-123053695D01*
X152716142Y-123212583D01*
X152601849Y-123351849D01*
X152462583Y-123466142D01*
X152303695Y-123551069D01*
X152131294Y-123603367D01*
X151996931Y-123616600D01*
X151907069Y-123616600D01*
X151772706Y-123603367D01*
X151600305Y-123551069D01*
X151441417Y-123466142D01*
X151302151Y-123351849D01*
X151187858Y-123212583D01*
X151102931Y-123053695D01*
X151050633Y-122881294D01*
X151032975Y-122702000D01*
X151050633Y-122522706D01*
X151102931Y-122350305D01*
X151187858Y-122191417D01*
X151302151Y-122052151D01*
X151441417Y-121937858D01*
X151600305Y-121852931D01*
X151772706Y-121800633D01*
X151907069Y-121787400D01*
X151996931Y-121787400D01*
X152131294Y-121800633D01*
X152131294Y-121800633D01*
G37*
G36*
X150326600Y-123616600D02*
G01*
X148497400Y-123616600D01*
X148497400Y-121787400D01*
X150326600Y-121787400D01*
X150326600Y-123616600D01*
X150326600Y-123616600D01*
G37*
G36*
X154758778Y-119282547D02*
G01*
X154925224Y-119351491D01*
X155075022Y-119451583D01*
X155202417Y-119578978D01*
X155302509Y-119728776D01*
X155371453Y-119895222D01*
X155406600Y-120071918D01*
X155406600Y-120252082D01*
X155371453Y-120428778D01*
X155302509Y-120595224D01*
X155202417Y-120745022D01*
X155075022Y-120872417D01*
X154925224Y-120972509D01*
X154758778Y-121041453D01*
X154582082Y-121076600D01*
X154401918Y-121076600D01*
X154225222Y-121041453D01*
X154058776Y-120972509D01*
X153908978Y-120872417D01*
X153781583Y-120745022D01*
X153681491Y-120595224D01*
X153612547Y-120428778D01*
X153577400Y-120252082D01*
X153577400Y-120071918D01*
X153612547Y-119895222D01*
X153681491Y-119728776D01*
X153781583Y-119578978D01*
X153908978Y-119451583D01*
X154058776Y-119351491D01*
X154225222Y-119282547D01*
X154401918Y-119247400D01*
X154582082Y-119247400D01*
X154758778Y-119282547D01*
X154758778Y-119282547D01*
G37*
G36*
X152131294Y-119260633D02*
G01*
X152303695Y-119312931D01*
X152462583Y-119397858D01*
X152601849Y-119512151D01*
X152716142Y-119651417D01*
X152801069Y-119810305D01*
X152853367Y-119982706D01*
X152871025Y-120162000D01*
X152853367Y-120341294D01*
X152801069Y-120513695D01*
X152716142Y-120672583D01*
X152601849Y-120811849D01*
X152462583Y-120926142D01*
X152303695Y-121011069D01*
X152131294Y-121063367D01*
X151996931Y-121076600D01*
X151907069Y-121076600D01*
X151772706Y-121063367D01*
X151600305Y-121011069D01*
X151441417Y-120926142D01*
X151302151Y-120811849D01*
X151187858Y-120672583D01*
X151102931Y-120513695D01*
X151050633Y-120341294D01*
X151032975Y-120162000D01*
X151050633Y-119982706D01*
X151102931Y-119810305D01*
X151187858Y-119651417D01*
X151302151Y-119512151D01*
X151441417Y-119397858D01*
X151600305Y-119312931D01*
X151772706Y-119260633D01*
X151907069Y-119247400D01*
X151996931Y-119247400D01*
X152131294Y-119260633D01*
X152131294Y-119260633D01*
G37*
G36*
X149591294Y-119260633D02*
G01*
X149763695Y-119312931D01*
X149922583Y-119397858D01*
X150061849Y-119512151D01*
X150176142Y-119651417D01*
X150261069Y-119810305D01*
X150313367Y-119982706D01*
X150331025Y-120162000D01*
X150313367Y-120341294D01*
X150261069Y-120513695D01*
X150176142Y-120672583D01*
X150061849Y-120811849D01*
X149922583Y-120926142D01*
X149763695Y-121011069D01*
X149591294Y-121063367D01*
X149456931Y-121076600D01*
X149367069Y-121076600D01*
X149232706Y-121063367D01*
X149060305Y-121011069D01*
X148901417Y-120926142D01*
X148762151Y-120811849D01*
X148647858Y-120672583D01*
X148562931Y-120513695D01*
X148510633Y-120341294D01*
X148492975Y-120162000D01*
X148510633Y-119982706D01*
X148562931Y-119810305D01*
X148647858Y-119651417D01*
X148762151Y-119512151D01*
X148901417Y-119397858D01*
X149060305Y-119312931D01*
X149232706Y-119260633D01*
X149367069Y-119247400D01*
X149456931Y-119247400D01*
X149591294Y-119260633D01*
X149591294Y-119260633D01*
G37*
M02*
