  0
SECTION
  2
HEADER
  9
$ACADVER
  1
AC1014
  9
$HANDSEED
  5
FFFF
  9
$MEASUREMENT
 70
     1
  0
ENDSEC
  0
SECTION
  2
TABLES
  0
TABLE
  2
VPORT
  5
8
330
0
100
AcDbSymbolTable
 70
     4
  0
VPORT
  5
2E
330
8
100
AcDbSymbolTableRecord
100
AcDbViewportTableRecord
  2
*ACTIVE
 70
     0
 10
0.0
 20
0.0
 11
1.0
 21
1.0
 12
210.0
 22
148.5
 13
0.0
 23
0.0
 14
10.0
 24
10.0
 15
10.0
 25
10.0
 16
0.0
 26
0.0
 36
1.0
 17
0.0
 27
0.0
 37
0.0
 40
341.0
 41
1.24
 42
50.0
 43
0.0
 44
0.0
 50
0.0
 51
0.0
 71
     0
 72
   100
 73
     1
 74
     3
 75
     0
 76
     0
 77
     0
 78
     0
  0
ENDTAB
  0
TABLE
  2
LTYPE
  5
5
330
0
100
AcDbSymbolTable
 70
     1
  0
LTYPE
  5
14
330
5
100
AcDbSymbolTableRecord
100
AcDbLinetypeTableRecord
  2
BYBLOCK
 70
     0
  3

 72
    65
 73
     0
 40
0.0
  0
LTYPE
  5
15
330
5
100
AcDbSymbolTableRecord
100
AcDbLinetypeTableRecord
  2
BYLAYER
 70
     0
  3

 72
    65
 73
     0
 40
0.0
  0
LTYPE
  5
16
330
5
100
AcDbSymbolTableRecord
100
AcDbLinetypeTableRecord
  2
CONTINUOUS
 70
     0
  3
Solid line
 72
    65
 73
     0
 40
0.0
  0
ENDTAB
  0
TABLE
  2
LAYER
  5
2
100
AcDbSymbolTable
 70
2
  0
LAYER
  5
50
100
AcDbSymbolTableRecord
100
AcDbLayerTableRecord
  2
0
 70
0
  6
CONTINUOUS
  0
LAYER
  5
51
100
AcDbSymbolTableRecord
100
AcDbLayerTableRecord
  2
Layer_1
 70
0
  6
CONTINUOUS
  0
ENDTAB
  0
TABLE
  2
STYLE
  5
3
330
0
100
AcDbSymbolTable
 70
     1
  0
STYLE
  5
11
330
3
100
AcDbSymbolTableRecord
100
AcDbTextStyleTableRecord
  2
STANDARD
 70
     0
 40
0.0
 41
1.0
 50
0.0
 71
     0
 42
2.5
  3
txt
  4

  0
ENDTAB
  0
TABLE
  2
VIEW
  5
6
330
0
100
AcDbSymbolTable
 70
     0
  0
ENDTAB
  0
TABLE
  2
UCS
  5
7
330
0
100
AcDbSymbolTable
 70
     0
  0
ENDTAB
  0
TABLE
  2
APPID
  5
9
330
0
100
AcDbSymbolTable
 70
     2
  0
APPID
  5
12
330
9
100
AcDbSymbolTableRecord
100
AcDbRegAppTableRecord
  2
ACAD
 70
     0
  0
ENDTAB
  0
TABLE
  2
DIMSTYLE
  5
A
330
0
100
AcDbSymbolTable
 70
     1
  0
DIMSTYLE
105
27
330
A
100
AcDbSymbolTableRecord
100
AcDbDimStyleTableRecord
  2
ISO-25
 70
     0
  3

  4

  5

  6

  7

 40
1.0
 41
2.5
 42
0.625
 43
3.75
 44
1.25
 45
0.0
 46
0.0
 47
0.0
 48
0.0
140
2.5
141
2.5
142
0.0
143
0.03937007874016
144
1.0
145
0.0
146
1.0
147
0.625
 71
     0
 72
     0
 73
     0
 74
     0
 75
     0
 76
     0
 77
     1
 78
     8
170
     0
171
     3
172
     1
173
     0
174
     0
175
     0
176
     0
177
     0
178
     0
270
     2
271
     2
272
     2
273
     2
274
     3
340
11
275
     0
280
     0
281
     0
282
     0
283
     0
284
     8
285
     0
286
     0
287
     3
288
     0
  0
ENDTAB
  0
TABLE
  2
BLOCK_RECORD
  5
1
330
0
100
AcDbSymbolTable
 70
     1
  0
BLOCK_RECORD
  5
1F
330
1
100
AcDbSymbolTableRecord
100
AcDbBlockTableRecord
  2
*MODEL_SPACE
  0
BLOCK_RECORD
  5
1B
330
1
100
AcDbSymbolTableRecord
100
AcDbBlockTableRecord
  2
*PAPER_SPACE
  0
ENDTAB
  0
ENDSEC
  0
SECTION
  2
BLOCKS
  0
BLOCK
  5
20
330
1F
100
AcDbEntity
  8
0
100
AcDbBlockBegin
  2
*MODEL_SPACE
 70
     0
 10
0.0
 20
0.0
 30
0.0
  3
*MODEL_SPACE
  1

  0
ENDBLK
  5
21
330
1F
100
AcDbEntity
  8
0
100
AcDbBlockEnd
  0
BLOCK
  5
1C
330
1B
100
AcDbEntity
 67
     1
  8
0
100
AcDbBlockBegin
  2
*PAPER_SPACE
  1

  0
ENDBLK
  5
1D
330
1B
100
AcDbEntity
 67
     1
  8
0
100
AcDbBlockEnd
  0
ENDSEC
  0
SECTION
  2
ENTITIES
  0
SPLINE
  5
100
100
AcDbEntity
  8
Layer_1
 62
7
100
AcDbSpline
 70
8
 71
3
 72
8
 73
4
 74
0
 40
0
 40
0
 40
0
 40
0
 40
1
 40
1
 40
1
 40
1
 10
31.555338
 20
0.339943
 30
0.0
 10
30.068372
 20
1.625703
 30
0.0
 10
28.832863
 20
3.802723
 30
0.0
 10
28.173242
 20
6.299352
 30
0.0
  0
SPLINE
  5
101
100
AcDbEntity
  8
Layer_1
 62
7
100
AcDbSpline
 70
8
 71
3
 72
8
 73
4
 74
0
 40
0
 40
0
 40
0
 40
0
 40
1
 40
1
 40
1
 40
1
 10
28.173242
 20
6.299352
 30
0.0
 10
27.601174
 20
8.464602
 30
0.0
 10
27.379065
 20
10.402732
 30
0.0
 10
27.378983
 20
13.230102
 30
0.0
  0
LINE
  5
102
100
AcDbEntity
  8
Layer_1
 62
7
100
AcDbLine
 10
27.378983
 20
13.230102
 30
0.0
 11
27.378924
 21
15.220562
 31
0.0
  0
LINE
  5
103
100
AcDbEntity
  8
Layer_1
 62
7
100
AcDbLine
 10
27.378924
 20
15.220562
 30
0.0
 11
27.995198
 21
15.465022
 31
0.0
  0
SPLINE
  5
104
100
AcDbEntity
  8
Layer_1
 62
7
100
AcDbSpline
 70
8
 71
3
 72
8
 73
4
 74
0
 40
0
 40
0
 40
0
 40
0
 40
1
 40
1
 40
1
 40
1
 10
27.995198
 20
15.465022
 30
0.0
 10
29.727886
 20
16.152342
 30
0.0
 10
30.986942
 20
16.969942
 30
0.0
 10
32.329863
 20
18.279842
 30
0.0
  0
SPLINE
  5
105
100
AcDbEntity
  8
Layer_1
 62
7
100
AcDbSpline
 70
8
 71
3
 72
8
 73
4
 74
0
 40
0
 40
0
 40
0
 40
0
 40
1
 40
1
 40
1
 40
1
 10
32.329863
 20
18.279842
 30
0.0
 10
33.698289
 20
19.614622
 30
0.0
 10
34.623487
 20
20.887442
 30
0.0
 10
35.446403
 20
22.567332
 30
0.0
  0
SPLINE
  5
106
100
AcDbEntity
  8
Layer_1
 62
7
100
AcDbSpline
 70
8
 71
3
 72
8
 73
4
 74
0
 40
0
 40
0
 40
0
 40
0
 40
1
 40
1
 40
1
 40
1
 10
35.446403
 20
22.567332
 30
0.0
 10
36.290319
 20
24.290102
 30
0.0
 10
36.686244
 20
25.547362
 30
0.0
 10
37.034663
 20
27.610852
 30
0.0
  0
SPLINE
  5
107
100
AcDbEntity
  8
Layer_1
 62
7
100
AcDbSpline
 70
8
 71
3
 72
8
 73
4
 74
0
 40
0
 40
0
 40
0
 40
0
 40
1
 40
1
 40
1
 40
1
 10
37.034663
 20
27.610852
 30
0.0
 10
37.165583
 20
28.386222
 30
0.0
 10
37.308910
 20
30.271942
 30
0.0
 10
37.248823
 20
30.428522
 30
0.0
  0
SPLINE
  5
108
100
AcDbEntity
  8
Layer_1
 62
7
100
AcDbSpline
 70
8
 71
3
 72
8
 73
4
 74
0
 40
0
 40
0
 40
0
 40
0
 40
1
 40
1
 40
1
 40
1
 10
37.248823
 20
30.428522
 30
0.0
 10
37.224793
 20
30.491122
 30
0.0
 10
37.161083
 20
30.521422
 30
0.0
 10
37.078161
 20
30.509622
 30
0.0
  0
SPLINE
  5
109
100
AcDbEntity
  8
Layer_1
 62
7
100
AcDbSpline
 70
8
 71
3
 72
8
 73
4
 74
0
 40
0
 40
0
 40
0
 40
0
 40
1
 40
1
 40
1
 40
1
 10
37.078161
 20
30.509622
 30
0.0
 10
36.956679
 20
30.492422
 30
0.0
 10
36.942387
 20
30.449922
 30
0.0
 10
36.903687
 20
29.991942
 30
0.0
  0
SPLINE
  5
10a
100
AcDbEntity
  8
Layer_1
 62
7
100
AcDbSpline
 70
8
 71
3
 72
8
 73
4
 74
0
 40
0
 40
0
 40
0
 40
0
 40
1
 40
1
 40
1
 40
1
 10
36.903687
 20
29.991942
 30
0.0
 10
36.769863
 20
28.408152
 30
0.0
 10
36.721218
 20
27.961542
 30
0.0
 10
36.617186
 20
27.361572
 30
0.0
  0
SPLINE
  5
10b
100
AcDbEntity
  8
Layer_1
 62
7
100
AcDbSpline
 70
8
 71
3
 72
8
 73
4
 74
0
 40
0
 40
0
 40
0
 40
0
 40
1
 40
1
 40
1
 40
1
 10
36.617186
 20
27.361572
 30
0.0
 10
36.308070
 20
25.578872
 30
0.0
 10
35.895755
 20
24.307762
 30
0.0
 10
35.100127
 20
22.684692
 30
0.0
  0
SPLINE
  5
10c
100
AcDbEntity
  8
Layer_1
 62
7
100
AcDbSpline
 70
8
 71
3
 72
8
 73
4
 74
0
 40
0
 40
0
 40
0
 40
0
 40
1
 40
1
 40
1
 40
1
 10
35.100127
 20
22.684692
 30
0.0
 10
34.344519
 20
21.143272
 30
0.0
 10
33.547606
 20
20.033102
 30
0.0
 10
32.262581
 20
18.731782
 30
0.0
  0
SPLINE
  5
10d
100
AcDbEntity
  8
Layer_1
 62
7
100
AcDbSpline
 70
8
 71
3
 72
8
 73
4
 74
0
 40
0
 40
0
 40
0
 40
0
 40
1
 40
1
 40
1
 40
1
 10
32.262581
 20
18.731782
 30
0.0
 10
31.483579
 20
17.942892
 30
0.0
 10
30.940855
 20
17.493442
 30
0.0
 10
30.119971
 20
16.957392
 30
0.0
  0
SPLINE
  5
10e
100
AcDbEntity
  8
Layer_1
 62
7
100
AcDbSpline
 70
8
 71
3
 72
8
 73
4
 74
0
 40
0
 40
0
 40
0
 40
0
 40
1
 40
1
 40
1
 40
1
 10
30.119971
 20
16.957392
 30
0.0
 10
28.391878
 20
15.828922
 30
0.0
 10
26.372371
 20
15.171662
 30
0.0
 10
24.240931
 20
15.044022
 30
0.0
  0
SPLINE
  5
10f
100
AcDbEntity
  8
Layer_1
 62
7
100
AcDbSpline
 70
8
 71
3
 72
8
 73
4
 74
0
 40
0
 40
0
 40
0
 40
0
 40
1
 40
1
 40
1
 40
1
 10
24.240931
 20
15.044022
 30
0.0
 10
23.299073
 20
14.987622
 30
0.0
 10
22.394610
 20
15.196662
 30
0.0
 10
21.970924
 20
15.568662
 30
0.0
  0
SPLINE
  5
110
100
AcDbEntity
  8
Layer_1
 62
7
100
AcDbSpline
 70
8
 71
3
 72
8
 73
4
 74
0
 40
0
 40
0
 40
0
 40
0
 40
1
 40
1
 40
1
 40
1
 10
21.970924
 20
15.568662
 30
0.0
 10
21.642650
 20
15.856892
 30
0.0
 10
21.538997
 20
16.121752
 30
0.0
 10
21.538997
 20
16.672372
 30
0.0
  0
SPLINE
  5
111
100
AcDbEntity
  8
Layer_1
 62
7
100
AcDbSpline
 70
8
 71
3
 72
8
 73
4
 74
0
 40
0
 40
0
 40
0
 40
0
 40
1
 40
1
 40
1
 40
1
 10
21.538997
 20
16.672372
 30
0.0
 10
21.538997
 20
17.518392
 30
0.0
 10
21.779525
 20
18.089102
 30
0.0
 10
23.340696
 20
20.947282
 30
0.0
  0
SPLINE
  5
112
100
AcDbEntity
  8
Layer_1
 62
7
100
AcDbSpline
 70
8
 71
3
 72
8
 73
4
 74
0
 40
0
 40
0
 40
0
 40
0
 40
1
 40
1
 40
1
 40
1
 10
23.340696
 20
20.947282
 30
0.0
 10
25.809301
 20
25.466782
 30
0.0
 10
29.161275
 20
30.710742
 30
0.0
 10
31.988779
 20
34.476681
 30
0.0
  0
SPLINE
  5
113
100
AcDbEntity
  8
Layer_1
 62
7
100
AcDbSpline
 70
8
 71
3
 72
8
 73
4
 74
0
 40
0
 40
0
 40
0
 40
0
 40
1
 40
1
 40
1
 40
1
 10
31.988779
 20
34.476681
 30
0.0
 10
32.310228
 20
34.904811
 30
0.0
 10
32.573232
 20
35.309421
 30
0.0
 10
32.573232
 20
35.375801
 30
0.0
  0
SPLINE
  5
114
100
AcDbEntity
  8
Layer_1
 62
7
100
AcDbSpline
 70
8
 71
3
 72
8
 73
4
 74
0
 40
0
 40
0
 40
0
 40
0
 40
1
 40
1
 40
1
 40
1
 10
32.573232
 20
35.375801
 30
0.0
 10
32.573232
 20
35.474801
 30
0.0
 10
32.472517
 20
35.567751
 30
0.0
 10
32.365151
 20
35.567751
 30
0.0
  0
SPLINE
  5
115
100
AcDbEntity
  8
Layer_1
 62
7
100
AcDbSpline
 70
8
 71
3
 72
8
 73
4
 74
0
 40
0
 40
0
 40
0
 40
0
 40
1
 40
1
 40
1
 40
1
 10
32.365151
 20
35.567751
 30
0.0
 10
32.299851
 20
35.567751
 30
0.0
 10
30.842373
 20
33.563271
 30
0.0
 10
29.505853
 20
31.635342
 30
0.0
  0
SPLINE
  5
116
100
AcDbEntity
  8
Layer_1
 62
7
100
AcDbSpline
 70
8
 71
3
 72
8
 73
4
 74
0
 40
0
 40
0
 40
0
 40
0
 40
1
 40
1
 40
1
 40
1
 10
29.505853
 20
31.635342
 30
0.0
 10
29.024717
 20
30.941292
 30
0.0
 10
28.603810
 20
30.363632
 30
0.0
 10
28.570506
 20
30.351632
 30
0.0
  0
SPLINE
  5
117
100
AcDbEntity
  8
Layer_1
 62
7
100
AcDbSpline
 70
8
 71
3
 72
8
 73
4
 74
0
 40
0
 40
0
 40
0
 40
0
 40
1
 40
1
 40
1
 40
1
 10
28.570506
 20
30.351632
 30
0.0
 10
28.503406
 20
30.327432
 30
0.0
 10
28.511236
 20
30.446532
 30
0.0
 10
28.734022
 20
32.838541
 30
0.0
  0
SPLINE
  5
118
100
AcDbEntity
  8
Layer_1
 62
7
100
AcDbSpline
 70
8
 71
3
 72
8
 73
4
 74
0
 40
0
 40
0
 40
0
 40
0
 40
1
 40
1
 40
1
 40
1
 10
28.734022
 20
32.838541
 30
0.0
 10
29.185084
 20
37.681521
 30
0.0
 10
29.239753
 20
39.400221
 30
0.0
 10
29.047668
 20
42.698921
 30
0.0
  0
SPLINE
  5
119
100
AcDbEntity
  8
Layer_1
 62
7
100
AcDbSpline
 70
8
 71
3
 72
8
 73
4
 74
0
 40
0
 40
0
 40
0
 40
0
 40
1
 40
1
 40
1
 40
1
 10
29.047668
 20
42.698921
 30
0.0
 10
28.859169
 20
45.936041
 30
0.0
 10
28.204157
 20
49.428201
 30
0.0
 10
27.231997
 20
52.379071
 30
0.0
  0
SPLINE
  5
11a
100
AcDbEntity
  8
Layer_1
 62
7
100
AcDbSpline
 70
8
 71
3
 72
8
 73
4
 74
0
 40
0
 40
0
 40
0
 40
0
 40
1
 40
1
 40
1
 40
1
 10
27.231997
 20
52.379071
 30
0.0
 10
26.847066
 20
53.547491
 30
0.0
 10
26.589710
 20
54.040841
 30
0.0
 10
25.913507
 20
54.906631
 30
0.0
  0
SPLINE
  5
11b
100
AcDbEntity
  8
Layer_1
 62
7
100
AcDbSpline
 70
8
 71
3
 72
8
 73
4
 74
0
 40
0
 40
0
 40
0
 40
0
 40
1
 40
1
 40
1
 40
1
 10
25.913507
 20
54.906631
 30
0.0
 10
25.418988
 20
55.539801
 30
0.0
 10
24.554929
 20
56.354751
 30
0.0
 10
23.914079
 20
56.792441
 30
0.0
  0
SPLINE
  5
11c
100
AcDbEntity
  8
Layer_1
 62
7
100
AcDbSpline
 70
8
 71
3
 72
8
 73
4
 74
0
 40
0
 40
0
 40
0
 40
0
 40
1
 40
1
 40
1
 40
1
 10
23.914079
 20
56.792441
 30
0.0
 10
22.423024
 20
57.810801
 30
0.0
 10
20.165793
 20
58.571091
 30
0.0
 10
17.665278
 20
58.897181
 30
0.0
  0
SPLINE
  5
11d
100
AcDbEntity
  8
Layer_1
 62
7
100
AcDbSpline
 70
8
 71
3
 72
8
 73
4
 74
0
 40
0
 40
0
 40
0
 40
0
 40
1
 40
1
 40
1
 40
1
 10
17.665278
 20
58.897181
 30
0.0
 10
16.777335
 20
59.012981
 30
0.0
 10
14.943964
 20
59.012851
 30
0.0
 10
14.044008
 20
58.896931
 30
0.0
  0
SPLINE
  5
11e
100
AcDbEntity
  8
Layer_1
 62
7
100
AcDbSpline
 70
8
 71
3
 72
8
 73
4
 74
0
 40
0
 40
0
 40
0
 40
0
 40
1
 40
1
 40
1
 40
1
 10
14.044008
 20
58.896931
 30
0.0
 10
13.296246
 20
58.800631
 30
0.0
 10
12.100098
 20
58.556571
 30
0.0
 10
11.722034
 20
58.423181
 30
0.0
  0
SPLINE
  5
11f
100
AcDbEntity
  8
Layer_1
 62
7
100
AcDbSpline
 70
8
 71
3
 72
8
 73
4
 74
0
 40
0
 40
0
 40
0
 40
0
 40
1
 40
1
 40
1
 40
1
 10
11.722034
 20
58.423181
 30
0.0
 10
11.211319
 20
58.242991
 30
0.0
 10
11.266785
 20
58.356381
 30
0.0
 10
11.957409
 20
58.904201
 30
0.0
  0
SPLINE
  5
120
100
AcDbEntity
  8
Layer_1
 62
7
100
AcDbSpline
 70
8
 71
3
 72
8
 73
4
 74
0
 40
0
 40
0
 40
0
 40
0
 40
1
 40
1
 40
1
 40
1
 10
11.957409
 20
58.904201
 30
0.0
 10
13.273555
 20
59.948270
 30
0.0
 10
15.082089
 20
60.958800
 30
0.0
 10
16.505726
 20
61.445580
 30
0.0
  0
SPLINE
  5
121
100
AcDbEntity
  8
Layer_1
 62
7
100
AcDbSpline
 70
8
 71
3
 72
8
 73
4
 74
0
 40
0
 40
0
 40
0
 40
0
 40
1
 40
1
 40
1
 40
1
 10
16.505726
 20
61.445580
 30
0.0
 10
17.431832
 20
61.762240
 30
0.0
 10
18.720206
 20
62.075920
 30
0.0
 10
19.543444
 20
62.185170
 30
0.0
  0
SPLINE
  5
122
100
AcDbEntity
  8
Layer_1
 62
7
100
AcDbSpline
 70
8
 71
3
 72
8
 73
4
 74
0
 40
0
 40
0
 40
0
 40
0
 40
1
 40
1
 40
1
 40
1
 10
19.543444
 20
62.185170
 30
0.0
 10
19.914676
 20
62.234470
 30
0.0
 10
20.429705
 20
62.313020
 30
0.0
 10
20.687953
 20
62.359800
 30
0.0
  0
SPLINE
  5
123
100
AcDbEntity
  8
Layer_1
 62
7
100
AcDbSpline
 70
8
 71
3
 72
8
 73
4
 74
0
 40
0
 40
0
 40
0
 40
0
 40
1
 40
1
 40
1
 40
1
 10
20.687953
 20
62.359800
 30
0.0
 10
22.071205
 20
62.610380
 30
0.0
 10
25.061603
 20
62.629460
 30
0.0
 10
26.574174
 20
62.397400
 30
0.0
  0
SPLINE
  5
124
100
AcDbEntity
  8
Layer_1
 62
7
100
AcDbSpline
 70
8
 71
3
 72
8
 73
4
 74
0
 40
0
 40
0
 40
0
 40
0
 40
1
 40
1
 40
1
 40
1
 10
26.574174
 20
62.397400
 30
0.0
 10
28.372425
 20
62.121470
 30
0.0
 10
29.929866
 20
61.623940
 30
0.0
 10
31.394845
 20
60.857440
 30
0.0
  0
SPLINE
  5
125
100
AcDbEntity
  8
Layer_1
 62
7
100
AcDbSpline
 70
8
 71
3
 72
8
 73
4
 74
0
 40
0
 40
0
 40
0
 40
0
 40
1
 40
1
 40
1
 40
1
 10
31.394845
 20
60.857440
 30
0.0
 10
34.387004
 20
59.291881
 30
0.0
 10
36.727577
 20
56.599991
 30
0.0
 10
38.335220
 20
52.875321
 30
0.0
  0
SPLINE
  5
126
100
AcDbEntity
  8
Layer_1
 62
7
100
AcDbSpline
 70
8
 71
3
 72
8
 73
4
 74
0
 40
0
 40
0
 40
0
 40
0
 40
1
 40
1
 40
1
 40
1
 10
38.335220
 20
52.875321
 30
0.0
 10
40.137182
 20
48.700431
 30
0.0
 10
41.470211
 20
42.002091
 30
0.0
 10
42.048222
 20
34.217861
 30
0.0
  0
SPLINE
  5
127
100
AcDbEntity
  8
Layer_1
 62
7
100
AcDbSpline
 70
8
 71
3
 72
8
 73
4
 74
0
 40
0
 40
0
 40
0
 40
0
 40
1
 40
1
 40
1
 40
1
 10
42.048222
 20
34.217861
 30
0.0
 10
42.471078
 20
28.523142
 30
0.0
 10
42.577892
 20
25.153072
 30
0.0
 10
42.567235
 20
17.842592
 30
0.0
  0
SPLINE
  5
128
100
AcDbEntity
  8
Layer_1
 62
7
100
AcDbSpline
 70
8
 71
3
 72
8
 73
4
 74
0
 40
0
 40
0
 40
0
 40
0
 40
1
 40
1
 40
1
 40
1
 10
42.567235
 20
17.842592
 30
0.0
 10
42.559635
 20
12.650762
 30
0.0
 10
42.517585
 20
10.895702
 30
0.0
 10
42.371617
 20
9.684302
 30
0.0
  0
SPLINE
  5
129
100
AcDbEntity
  8
Layer_1
 62
7
100
AcDbSpline
 70
8
 71
3
 72
8
 73
4
 74
0
 40
0
 40
0
 40
0
 40
0
 40
1
 40
1
 40
1
 40
1
 10
42.371617
 20
9.684302
 30
0.0
 10
42.220455
 20
8.429782
 30
0.0
 10
41.969973
 20
7.026982
 30
0.0
 10
41.758533
 20
6.250772
 30
0.0
  0
SPLINE
  5
12a
100
AcDbEntity
  8
Layer_1
 62
7
100
AcDbSpline
 70
8
 71
3
 72
8
 73
4
 74
0
 40
0
 40
0
 40
0
 40
0
 40
1
 40
1
 40
1
 40
1
 10
41.758533
 20
6.250772
 30
0.0
 10
40.893963
 20
3.076893
 30
0.0
 10
38.873000
 20
1.231373
 30
0.0
 10
35.654600
 20
0.676753
 30
0.0
  0
SPLINE
  5
12b
100
AcDbEntity
  8
Layer_1
 62
7
100
AcDbSpline
 70
8
 71
3
 72
8
 73
4
 74
0
 40
0
 40
0
 40
0
 40
0
 40
1
 40
1
 40
1
 40
1
 10
35.654600
 20
0.676753
 30
0.0
 10
35.364071
 20
0.626653
 30
0.0
 10
34.888660
 20
0.534523
 30
0.0
 10
34.598131
 20
0.471943
 30
0.0
  0
SPLINE
  5
12c
100
AcDbEntity
  8
Layer_1
 62
7
100
AcDbSpline
 70
8
 71
3
 72
8
 73
4
 74
0
 40
0
 40
0
 40
0
 40
0
 40
1
 40
1
 40
1
 40
1
 10
34.598131
 20
0.471943
 30
0.0
 10
34.172419
 20
0.380243
 30
0.0
 10
32.055281
 20
0.000003
 30
0.0
 10
31.970520
 20
0.000003
 30
0.0
  0
SPLINE
  5
12d
100
AcDbEntity
  8
Layer_1
 62
7
100
AcDbSpline
 70
8
 71
3
 72
8
 73
4
 74
0
 40
0
 40
0
 40
0
 40
0
 40
1
 40
1
 40
1
 40
1
 10
31.970520
 20
0.000003
 30
0.0
 10
31.958410
 20
0.000003
 30
0.0
 10
31.771581
 20
0.152983
 30
0.0
 10
31.555338
 20
0.339963
 30
0.0
  0
LINE
  5
12e
100
AcDbEntity
  8
Layer_1
 62
7
100
AcDbLine
 10
31.555338
 20
0.339963
 30
0.0
 11
31.555338
 21
0.339943
 31
0.0
  0
SPLINE
  5
12f
100
AcDbEntity
  8
Layer_1
 62
7
100
AcDbSpline
 70
8
 71
3
 72
8
 73
4
 74
0
 40
0
 40
0
 40
0
 40
0
 40
1
 40
1
 40
1
 40
1
 10
0.624995
 20
16.117182
 30
0.0
 10
0.209706
 20
16.532472
 30
0.0
 10
-0.002238
 20
17.804282
 30
0.0
 10
0.000018
 20
19.867472
 30
0.0
  0
SPLINE
  5
130
100
AcDbEntity
  8
Layer_1
 62
7
100
AcDbSpline
 70
8
 71
3
 72
8
 73
4
 74
0
 40
0
 40
0
 40
0
 40
0
 40
1
 40
1
 40
1
 40
1
 10
0.000018
 20
19.867472
 30
0.0
 10
0.003718
 20
23.280782
 30
0.0
 10
0.845392
 20
26.630062
 30
0.0
 10
2.581081
 20
30.138702
 30
0.0
  0
SPLINE
  5
131
100
AcDbEntity
  8
Layer_1
 62
7
100
AcDbSpline
 70
8
 71
3
 72
8
 73
4
 74
0
 40
0
 40
0
 40
0
 40
0
 40
1
 40
1
 40
1
 40
1
 10
2.581081
 20
30.138702
 30
0.0
 10
3.184493
 20
31.358472
 30
0.0
 10
4.086479
 20
32.931141
 30
0.0
 10
4.204631
 20
32.969461
 30
0.0
  0
SPLINE
  5
132
100
AcDbEntity
  8
Layer_1
 62
7
100
AcDbSpline
 70
8
 71
3
 72
8
 73
4
 74
0
 40
0
 40
0
 40
0
 40
0
 40
1
 40
1
 40
1
 40
1
 10
4.204631
 20
32.969461
 30
0.0
 10
4.253671
 20
32.985361
 30
0.0
 10
4.265711
 20
32.863691
 30
0.0
 10
4.247781
 20
32.533542
 30
0.0
  0
SPLINE
  5
133
100
AcDbEntity
  8
Layer_1
 62
7
100
AcDbSpline
 70
8
 71
3
 72
8
 73
4
 74
0
 40
0
 40
0
 40
0
 40
0
 40
1
 40
1
 40
1
 40
1
 10
4.247781
 20
32.533542
 30
0.0
 10
4.173321
 20
31.163132
 30
0.0
 10
4.107030
 20
27.115472
 30
0.0
 10
4.107137
 20
23.946372
 30
0.0
  0
LINE
  5
134
100
AcDbEntity
  8
Layer_1
 62
7
100
AcDbLine
 10
4.107137
 20
23.946372
 30
0.0
 11
4.107259
 21
20.336522
 31
0.0
  0
LINE
  5
135
100
AcDbEntity
  8
Layer_1
 62
7
100
AcDbLine
 10
4.107259
 20
20.336522
 30
0.0
 11
3.609754
 21
19.412472
 31
0.0
  0
SPLINE
  5
136
100
AcDbEntity
  8
Layer_1
 62
7
100
AcDbSpline
 70
8
 71
3
 72
8
 73
4
 74
0
 40
0
 40
0
 40
0
 40
0
 40
1
 40
1
 40
1
 40
1
 10
3.609754
 20
19.412472
 30
0.0
 10
2.652544
 20
17.634592
 30
0.0
 10
1.884035
 20
16.539032
 30
0.0
 10
1.327618
 20
16.159132
 30
0.0
  0
SPLINE
  5
137
100
AcDbEntity
  8
Layer_1
 62
7
100
AcDbSpline
 70
8
 71
3
 72
8
 73
4
 74
0
 40
0
 40
0
 40
0
 40
0
 40
1
 40
1
 40
1
 40
1
 10
1.327618
 20
16.159132
 30
0.0
 10
0.983963
 20
15.924492
 30
0.0
 10
0.827058
 20
15.915122
 30
0.0
 10
0.624998
 20
16.117232
 30
0.0
  0
LINE
  5
138
100
AcDbEntity
  8
Layer_1
 62
7
100
AcDbLine
 10
0.624998
 20
16.117232
 30
0.0
 11
0.624995
 21
16.117182
 31
0.0
  0
ENDSEC
  0
SECTION
  2
OBJECTS
  0
DICTIONARY
  5
C
330
0
100
AcDbDictionary
  3
ACAD_GROUP
350
D
  3
ACAD_MLINESTYLE
350
17
  0
DICTIONARY
  5
D
330
C
100
AcDbDictionary
  0
DICTIONARY
  5
1A
330
C
100
AcDbDictionary
  0
DICTIONARY
  5
17
330
C
100
AcDbDictionary
  3
STANDARD
350
18
  0
DICTIONARY
  5
19
330
C
100
AcDbDictionary
  0
ENDSEC
  0
EOF
