  0
SECTION
  2
HEADER
  9
$ACADVER
  1
AC1014
  9
$HANDSEED
  5
FFFF
  9
$MEASUREMENT
 70
     1
  0
ENDSEC
  0
SECTION
  2
TABLES
  0
TABLE
  2
VPORT
  5
8
330
0
100
AcDbSymbolTable
 70
     4
  0
VPORT
  5
2E
330
8
100
AcDbSymbolTableRecord
100
AcDbViewportTableRecord
  2
*ACTIVE
 70
     0
 10
0.0
 20
0.0
 11
1.0
 21
1.0
 12
210.0
 22
148.5
 13
0.0
 23
0.0
 14
10.0
 24
10.0
 15
10.0
 25
10.0
 16
0.0
 26
0.0
 36
1.0
 17
0.0
 27
0.0
 37
0.0
 40
341.0
 41
1.24
 42
50.0
 43
0.0
 44
0.0
 50
0.0
 51
0.0
 71
     0
 72
   100
 73
     1
 74
     3
 75
     0
 76
     0
 77
     0
 78
     0
  0
ENDTAB
  0
TABLE
  2
LTYPE
  5
5
330
0
100
AcDbSymbolTable
 70
     1
  0
LTYPE
  5
14
330
5
100
AcDbSymbolTableRecord
100
AcDbLinetypeTableRecord
  2
BYBLOCK
 70
     0
  3

 72
    65
 73
     0
 40
0.0
  0
LTYPE
  5
15
330
5
100
AcDbSymbolTableRecord
100
AcDbLinetypeTableRecord
  2
BYLAYER
 70
     0
  3

 72
    65
 73
     0
 40
0.0
  0
LTYPE
  5
16
330
5
100
AcDbSymbolTableRecord
100
AcDbLinetypeTableRecord
  2
CONTINUOUS
 70
     0
  3
Solid line
 72
    65
 73
     0
 40
0.0
  0
ENDTAB
  0
TABLE
  2
LAYER
  5
2
100
AcDbSymbolTable
 70
2
  0
LAYER
  5
50
100
AcDbSymbolTableRecord
100
AcDbLayerTableRecord
  2
0
 70
0
  6
CONTINUOUS
  0
LAYER
  5
51
100
AcDbSymbolTableRecord
100
AcDbLayerTableRecord
  2
Layer_1
 70
0
  6
CONTINUOUS
  0
ENDTAB
  0
TABLE
  2
STYLE
  5
3
330
0
100
AcDbSymbolTable
 70
     1
  0
STYLE
  5
11
330
3
100
AcDbSymbolTableRecord
100
AcDbTextStyleTableRecord
  2
STANDARD
 70
     0
 40
0.0
 41
1.0
 50
0.0
 71
     0
 42
2.5
  3
txt
  4

  0
ENDTAB
  0
TABLE
  2
VIEW
  5
6
330
0
100
AcDbSymbolTable
 70
     0
  0
ENDTAB
  0
TABLE
  2
UCS
  5
7
330
0
100
AcDbSymbolTable
 70
     0
  0
ENDTAB
  0
TABLE
  2
APPID
  5
9
330
0
100
AcDbSymbolTable
 70
     2
  0
APPID
  5
12
330
9
100
AcDbSymbolTableRecord
100
AcDbRegAppTableRecord
  2
ACAD
 70
     0
  0
ENDTAB
  0
TABLE
  2
DIMSTYLE
  5
A
330
0
100
AcDbSymbolTable
 70
     1
  0
DIMSTYLE
105
27
330
A
100
AcDbSymbolTableRecord
100
AcDbDimStyleTableRecord
  2
ISO-25
 70
     0
  3

  4

  5

  6

  7

 40
1.0
 41
2.5
 42
0.625
 43
3.75
 44
1.25
 45
0.0
 46
0.0
 47
0.0
 48
0.0
140
2.5
141
2.5
142
0.0
143
0.03937007874016
144
1.0
145
0.0
146
1.0
147
0.625
 71
     0
 72
     0
 73
     0
 74
     0
 75
     0
 76
     0
 77
     1
 78
     8
170
     0
171
     3
172
     1
173
     0
174
     0
175
     0
176
     0
177
     0
178
     0
270
     2
271
     2
272
     2
273
     2
274
     3
340
11
275
     0
280
     0
281
     0
282
     0
283
     0
284
     8
285
     0
286
     0
287
     3
288
     0
  0
ENDTAB
  0
TABLE
  2
BLOCK_RECORD
  5
1
330
0
100
AcDbSymbolTable
 70
     1
  0
BLOCK_RECORD
  5
1F
330
1
100
AcDbSymbolTableRecord
100
AcDbBlockTableRecord
  2
*MODEL_SPACE
  0
BLOCK_RECORD
  5
1B
330
1
100
AcDbSymbolTableRecord
100
AcDbBlockTableRecord
  2
*PAPER_SPACE
  0
ENDTAB
  0
ENDSEC
  0
SECTION
  2
BLOCKS
  0
BLOCK
  5
20
330
1F
100
AcDbEntity
  8
0
100
AcDbBlockBegin
  2
*MODEL_SPACE
 70
     0
 10
0.0
 20
0.0
 30
0.0
  3
*MODEL_SPACE
  1

  0
ENDBLK
  5
21
330
1F
100
AcDbEntity
  8
0
100
AcDbBlockEnd
  0
BLOCK
  5
1C
330
1B
100
AcDbEntity
 67
     1
  8
0
100
AcDbBlockBegin
  2
*PAPER_SPACE
  1

  0
ENDBLK
  5
1D
330
1B
100
AcDbEntity
 67
     1
  8
0
100
AcDbBlockEnd
  0
ENDSEC
  0
SECTION
  2
ENTITIES
  0
SPLINE
  5
100
100
AcDbEntity
  8
Layer_1
 62
7
100
AcDbSpline
 70
8
 71
3
 72
8
 73
4
 74
0
 40
0
 40
0
 40
0
 40
0
 40
1
 40
1
 40
1
 40
1
 10
24.359122
 20
63.601356
 30
0.0
 10
23.640569
 20
63.604356
 30
0.0
 10
21.601468
 20
63.493436
 30
0.0
 10
19.334431
 20
63.107486
 30
0.0
  0
SPLINE
  5
101
100
AcDbEntity
  8
Layer_1
 62
7
100
AcDbSpline
 70
8
 71
3
 72
8
 73
4
 74
0
 40
0
 40
0
 40
0
 40
0
 40
1
 40
1
 40
1
 40
1
 10
19.334431
 20
63.107486
 30
0.0
 10
16.140781
 20
62.563786
 30
0.0
 10
13.292294
 20
61.093496
 30
0.0
 10
10.798672
 20
58.701556
 30
0.0
  0
SPLINE
  5
102
100
AcDbEntity
  8
Layer_1
 62
7
100
AcDbSpline
 70
8
 71
3
 72
8
 73
4
 74
0
 40
0
 40
0
 40
0
 40
0
 40
1
 40
1
 40
1
 40
1
 10
10.798672
 20
58.701556
 30
0.0
 10
9.379965
 20
57.340706
 30
0.0
 10
8.630251
 20
56.344757
 30
0.0
 10
7.894619
 20
54.843017
 30
0.0
  0
SPLINE
  5
103
100
AcDbEntity
  8
Layer_1
 62
7
100
AcDbSpline
 70
8
 71
3
 72
8
 73
4
 74
0
 40
0
 40
0
 40
0
 40
0
 40
1
 40
1
 40
1
 40
1
 10
7.894619
 20
54.843017
 30
0.0
 10
7.505134
 20
54.047937
 30
0.0
 10
6.873866
 20
52.359917
 30
0.0
 10
6.873399
 20
52.112117
 30
0.0
  0
SPLINE
  5
104
100
AcDbEntity
  8
Layer_1
 62
7
100
AcDbSpline
 70
8
 71
3
 72
8
 73
4
 74
0
 40
0
 40
0
 40
0
 40
0
 40
1
 40
1
 40
1
 40
1
 10
6.873399
 20
52.112117
 30
0.0
 10
6.873264
 20
52.043317
 30
0.0
 10
6.795229
 20
51.992007
 30
0.0
 10
6.624520
 20
51.948327
 30
0.0
  0
SPLINE
  5
105
100
AcDbEntity
  8
Layer_1
 62
7
100
AcDbSpline
 70
8
 71
3
 72
8
 73
4
 74
0
 40
0
 40
0
 40
0
 40
0
 40
1
 40
1
 40
1
 40
1
 10
6.624520
 20
51.948327
 30
0.0
 10
5.774617
 20
51.730847
 30
0.0
 10
5.232725
 20
51.427397
 30
0.0
 10
4.645280
 20
50.840337
 30
0.0
  0
SPLINE
  5
106
100
AcDbEntity
  8
Layer_1
 62
7
100
AcDbSpline
 70
8
 71
3
 72
8
 73
4
 74
0
 40
0
 40
0
 40
0
 40
0
 40
1
 40
1
 40
1
 40
1
 10
4.645280
 20
50.840337
 30
0.0
 10
3.296504
 20
49.492417
 30
0.0
 10
3.235374
 20
47.306547
 30
0.0
 10
4.507809
 20
45.933037
 30
0.0
  0
SPLINE
  5
107
100
AcDbEntity
  8
Layer_1
 62
7
100
AcDbSpline
 70
8
 71
3
 72
8
 73
4
 74
0
 40
0
 40
0
 40
0
 40
0
 40
1
 40
1
 40
1
 40
1
 10
4.507809
 20
45.933037
 30
0.0
 10
4.728884
 20
45.694397
 30
0.0
 10
4.811463
 20
45.567767
 30
0.0
 10
4.758471
 20
45.549077
 30
0.0
  0
SPLINE
  5
108
100
AcDbEntity
  8
Layer_1
 62
7
100
AcDbSpline
 70
8
 71
3
 72
8
 73
4
 74
0
 40
0
 40
0
 40
0
 40
0
 40
1
 40
1
 40
1
 40
1
 10
4.758471
 20
45.549077
 30
0.0
 10
4.715001
 20
45.533777
 30
0.0
 10
3.876299
 20
45.322127
 30
0.0
 10
2.894921
 20
45.078747
 30
0.0
  0
SPLINE
  5
109
100
AcDbEntity
  8
Layer_1
 62
7
100
AcDbSpline
 70
8
 71
3
 72
8
 73
4
 74
0
 40
0
 40
0
 40
0
 40
0
 40
1
 40
1
 40
1
 40
1
 10
2.894921
 20
45.078747
 30
0.0
 10
0.603730
 20
44.510607
 30
0.0
 10
0.730364
 20
44.553347
 30
0.0
 10
0.730364
 20
44.347227
 30
0.0
  0
SPLINE
  5
10a
100
AcDbEntity
  8
Layer_1
 62
7
100
AcDbSpline
 70
8
 71
3
 72
8
 73
4
 74
0
 40
0
 40
0
 40
0
 40
0
 40
1
 40
1
 40
1
 40
1
 10
0.730364
 20
44.347227
 30
0.0
 10
0.730364
 20
44.255127
 30
0.0
 10
0.751754
 20
44.166737
 30
0.0
 10
0.777844
 20
44.150627
 30
0.0
  0
SPLINE
  5
10b
100
AcDbEntity
  8
Layer_1
 62
7
100
AcDbSpline
 70
8
 71
3
 72
8
 73
4
 74
0
 40
0
 40
0
 40
0
 40
0
 40
1
 40
1
 40
1
 40
1
 10
0.777844
 20
44.150627
 30
0.0
 10
0.846544
 20
44.108227
 30
0.0
 10
2.013708
 20
43.961307
 30
0.0
 10
3.621907
 20
43.792697
 30
0.0
  0
SPLINE
  5
10c
100
AcDbEntity
  8
Layer_1
 62
7
100
AcDbSpline
 70
8
 71
3
 72
8
 73
4
 74
0
 40
0
 40
0
 40
0
 40
0
 40
1
 40
1
 40
1
 40
1
 10
3.621907
 20
43.792697
 30
0.0
 10
4.391698
 20
43.711997
 30
0.0
 10
5.029158
 20
43.638507
 30
0.0
 10
5.038403
 20
43.629277
 30
0.0
  0
SPLINE
  5
10d
100
AcDbEntity
  8
Layer_1
 62
7
100
AcDbSpline
 70
8
 71
3
 72
8
 73
4
 74
0
 40
0
 40
0
 40
0
 40
0
 40
1
 40
1
 40
1
 40
1
 10
5.038403
 20
43.629277
 30
0.0
 10
5.047603
 20
43.620277
 30
0.0
 10
5.017313
 20
42.824347
 30
0.0
 10
4.971273
 20
41.861117
 30
0.0
  0
SPLINE
  5
10e
100
AcDbEntity
  8
Layer_1
 62
7
100
AcDbSpline
 70
8
 71
3
 72
8
 73
4
 74
0
 40
0
 40
0
 40
0
 40
0
 40
1
 40
1
 40
1
 40
1
 10
4.971273
 20
41.861117
 30
0.0
 10
4.832294
 20
38.954247
 30
0.0
 10
4.708182
 20
35.817427
 30
0.0
 10
4.708470
 20
35.225997
 30
0.0
  0
LINE
  5
10f
100
AcDbEntity
  8
Layer_1
 62
7
100
AcDbLine
 10
4.708470
 20
35.225997
 30
0.0
 11
4.708835
 21
34.668607
 31
0.0
  0
LINE
  5
110
100
AcDbEntity
  8
Layer_1
 62
7
100
AcDbLine
 10
4.708835
 20
34.668607
 30
0.0
 11
4.238574
 21
33.923877
 31
0.0
  0
SPLINE
  5
111
100
AcDbEntity
  8
Layer_1
 62
7
100
AcDbSpline
 70
8
 71
3
 72
8
 73
4
 74
0
 40
0
 40
0
 40
0
 40
0
 40
1
 40
1
 40
1
 40
1
 10
4.238574
 20
33.923877
 30
0.0
 10
2.247533
 20
30.768947
 30
0.0
 10
0.870529
 20
27.328468
 30
0.0
 10
0.310088
 20
24.108588
 30
0.0
  0
SPLINE
  5
112
100
AcDbEntity
  8
Layer_1
 62
7
100
AcDbSpline
 70
8
 71
3
 72
8
 73
4
 74
0
 40
0
 40
0
 40
0
 40
0
 40
1
 40
1
 40
1
 40
1
 10
0.310088
 20
24.108588
 30
0.0
 10
0.253148
 20
23.719438
 30
0.0
 10
0.039131
 20
23.347598
 30
0.0
 10
0.029431
 20
20.842768
 30
0.0
  0
SPLINE
  5
113
100
AcDbEntity
  8
Layer_1
 62
7
100
AcDbSpline
 70
8
 71
3
 72
8
 73
4
 74
0
 40
0
 40
0
 40
0
 40
0
 40
1
 40
1
 40
1
 40
1
 10
0.029431
 20
20.842768
 30
0.0
 10
0.025531
 20
19.848008
 30
0.0
 10
0.176683
 20
17.945498
 30
0.0
 10
0.311160
 20
17.513078
 30
0.0
  0
SPLINE
  5
114
100
AcDbEntity
  8
Layer_1
 62
7
100
AcDbSpline
 70
8
 71
3
 72
8
 73
4
 74
0
 40
0
 40
0
 40
0
 40
0
 40
1
 40
1
 40
1
 40
1
 10
0.311160
 20
17.513078
 30
0.0
 10
0.638469
 20
16.460588
 30
0.0
 10
1.077911
 20
16.145778
 30
0.0
 10
1.777289
 20
16.462888
 30
0.0
  0
SPLINE
  5
115
100
AcDbEntity
  8
Layer_1
 62
7
100
AcDbSpline
 70
8
 71
3
 72
8
 73
4
 74
0
 40
0
 40
0
 40
0
 40
0
 40
1
 40
1
 40
1
 40
1
 10
1.777289
 20
16.462888
 30
0.0
 10
2.291380
 20
16.695978
 30
0.0
 10
3.095607
 20
17.698258
 30
0.0
 10
3.932922
 20
19.149908
 30
0.0
  0
SPLINE
  5
116
100
AcDbEntity
  8
Layer_1
 62
7
100
AcDbSpline
 70
8
 71
3
 72
8
 73
4
 74
0
 40
0
 40
0
 40
0
 40
0
 40
1
 40
1
 40
1
 40
1
 10
3.932922
 20
19.149908
 30
0.0
 10
4.127672
 20
19.487548
 30
0.0
 10
4.337855
 20
19.865948
 30
0.0
 10
4.400328
 20
19.990628
 30
0.0
  0
LINE
  5
117
100
AcDbEntity
  8
Layer_1
 62
7
100
AcDbLine
 10
4.400328
 20
19.990628
 30
0.0
 11
4.514233
 21
20.217228
 31
0.0
  0
LINE
  5
118
100
AcDbEntity
  8
Layer_1
 62
7
100
AcDbLine
 10
4.514233
 20
20.217228
 30
0.0
 11
4.554573
 21
18.178228
 31
0.0
  0
SPLINE
  5
119
100
AcDbEntity
  8
Layer_1
 62
7
100
AcDbSpline
 70
8
 71
3
 72
8
 73
4
 74
0
 40
0
 40
0
 40
0
 40
0
 40
1
 40
1
 40
1
 40
1
 10
4.554573
 20
18.178228
 30
0.0
 10
4.576913
 20
17.056718
 30
0.0
 10
4.621053
 20
15.744438
 30
0.0
 10
4.652413
 20
15.262108
 30
0.0
  0
SPLINE
  5
11a
100
AcDbEntity
  8
Layer_1
 62
7
100
AcDbSpline
 70
8
 71
3
 72
8
 73
4
 74
0
 40
0
 40
0
 40
0
 40
0
 40
1
 40
1
 40
1
 40
1
 10
4.652413
 20
15.262108
 30
0.0
 10
4.683763
 20
14.779778
 30
0.0
 10
4.733093
 20
13.451128
 30
0.0
 10
4.762392
 20
12.309608
 30
0.0
  0
SPLINE
  5
11b
100
AcDbEntity
  8
Layer_1
 62
7
100
AcDbSpline
 70
8
 71
3
 72
8
 73
4
 74
0
 40
0
 40
0
 40
0
 40
0
 40
1
 40
1
 40
1
 40
1
 10
4.762392
 20
12.309608
 30
0.0
 10
4.818702
 20
10.114838
 30
0.0
 10
4.914250
 20
9.018558
 30
0.0
 10
5.154454
 20
7.808038
 30
0.0
  0
SPLINE
  5
11c
100
AcDbEntity
  8
Layer_1
 62
7
100
AcDbSpline
 70
8
 71
3
 72
8
 73
4
 74
0
 40
0
 40
0
 40
0
 40
0
 40
1
 40
1
 40
1
 40
1
 10
5.154454
 20
7.808038
 30
0.0
 10
5.854896
 20
4.278128
 30
0.0
 10
7.333683
 20
2.251799
 30
0.0
 10
9.633186
 20
1.671429
 30
0.0
  0
SPLINE
  5
11d
100
AcDbEntity
  8
Layer_1
 62
7
100
AcDbSpline
 70
8
 71
3
 72
8
 73
4
 74
0
 40
0
 40
0
 40
0
 40
0
 40
1
 40
1
 40
1
 40
1
 10
9.633186
 20
1.671429
 30
0.0
 10
12.460288
 20
0.957889
 30
0.0
 10
15.693958
 20
0.494049
 30
0.0
 10
19.977863
 20
0.188039
 30
0.0
  0
LINE
  5
11e
100
AcDbEntity
  8
Layer_1
 62
7
100
AcDbLine
 10
19.977863
 20
0.188039
 30
0.0
 11
19.977863
 21
0.188409
 31
0.0
  0
SPLINE
  5
11f
100
AcDbEntity
  8
Layer_1
 62
7
100
AcDbSpline
 70
8
 71
3
 72
8
 73
4
 74
0
 40
0
 40
0
 40
0
 40
0
 40
1
 40
1
 40
1
 40
1
 10
19.977863
 20
0.188409
 30
0.0
 10
20.429880
 20
0.156109
 30
0.0
 10
23.605254
 20
0.018239
 30
0.0
 10
23.573896
 20
0.049579
 30
0.0
  0
SPLINE
  5
120
100
AcDbEntity
  8
Layer_1
 62
7
100
AcDbSpline
 70
8
 71
3
 72
8
 73
4
 74
0
 40
0
 40
0
 40
0
 40
0
 40
1
 40
1
 40
1
 40
1
 10
23.573896
 20
0.049579
 30
0.0
 10
24.449872
 20
0.017679
 30
0.0
 10
25.787423
 20
0.026479
 30
0.0
 10
26.553982
 20
0.055579
 30
0.0
  0
SPLINE
  5
121
100
AcDbEntity
  8
Layer_1
 62
7
100
AcDbSpline
 70
8
 71
3
 72
8
 73
4
 74
0
 40
0
 40
0
 40
0
 40
0
 40
1
 40
1
 40
1
 40
1
 10
26.553982
 20
0.055579
 30
0.0
 10
26.797149
 20
0.044479
 30
0.0
 10
27.931961
 20
0.102179
 30
0.0
 10
28.807136
 20
0.155949
 30
0.0
  0
SPLINE
  5
122
100
AcDbEntity
  8
Layer_1
 62
7
100
AcDbSpline
 70
8
 71
3
 72
8
 73
4
 74
0
 40
0
 40
0
 40
0
 40
0
 40
1
 40
1
 40
1
 40
1
 10
28.807136
 20
0.155949
 30
0.0
 10
30.919642
 20
0.313389
 30
0.0
 10
31.330986
 20
0.273769
 30
0.0
 10
33.228022
 20
0.585579
 30
0.0
  0
SPLINE
  5
123
100
AcDbEntity
  8
Layer_1
 62
7
100
AcDbSpline
 70
8
 71
3
 72
8
 73
4
 74
0
 40
0
 40
0
 40
0
 40
0
 40
1
 40
1
 40
1
 40
1
 10
33.228022
 20
0.585579
 30
0.0
 10
34.845898
 20
0.851499
 30
0.0
 10
36.790957
 20
1.259259
 30
0.0
 10
37.460374
 20
1.472679
 30
0.0
  0
SPLINE
  5
124
100
AcDbEntity
  8
Layer_1
 62
7
100
AcDbSpline
 70
8
 71
3
 72
8
 73
4
 74
0
 40
0
 40
0
 40
0
 40
0
 40
1
 40
1
 40
1
 40
1
 10
37.460374
 20
1.472679
 30
0.0
 10
40.308494
 20
2.380779
 30
0.0
 10
42.029716
 20
4.517418
 30
0.0
 10
42.703591
 20
7.981128
 30
0.0
  0
SPLINE
  5
125
100
AcDbEntity
  8
Layer_1
 62
7
100
AcDbSpline
 70
8
 71
3
 72
8
 73
4
 74
0
 40
0
 40
0
 40
0
 40
0
 40
1
 40
1
 40
1
 40
1
 10
42.703591
 20
7.981128
 30
0.0
 10
43.113390
 20
10.087498
 30
0.0
 10
43.104270
 20
9.956468
 30
0.0
 10
43.128862
 20
13.945388
 30
0.0
  0
SPLINE
  5
126
100
AcDbEntity
  8
Layer_1
 62
7
100
AcDbSpline
 70
8
 71
3
 72
8
 73
4
 74
0
 40
0
 40
0
 40
0
 40
0
 40
1
 40
1
 40
1
 40
1
 10
43.128862
 20
13.945388
 30
0.0
 10
43.138912
 20
15.575768
 30
0.0
 10
43.134662
 20
16.902478
 30
0.0
 10
43.120662
 20
17.351438
 30
0.0
  0
SPLINE
  5
127
100
AcDbEntity
  8
Layer_1
 62
7
100
AcDbSpline
 70
8
 71
3
 72
8
 73
4
 74
0
 40
0
 40
0
 40
0
 40
0
 40
1
 40
1
 40
1
 40
1
 10
43.120662
 20
17.351438
 30
0.0
 10
43.125762
 20
19.030448
 30
0.0
 10
43.089812
 20
20.761138
 30
0.0
 10
43.086382
 20
22.512098
 30
0.0
  0
SPLINE
  5
128
100
AcDbEntity
  8
Layer_1
 62
7
100
AcDbSpline
 70
8
 71
3
 72
8
 73
4
 74
0
 40
0
 40
0
 40
0
 40
0
 40
1
 40
1
 40
1
 40
1
 10
43.086382
 20
22.512098
 30
0.0
 10
43.158102
 20
21.696868
 30
0.0
 10
43.106992
 20
29.925727
 30
0.0
 10
43.033542
 20
31.018857
 30
0.0
  0
SPLINE
  5
129
100
AcDbEntity
  8
Layer_1
 62
7
100
AcDbSpline
 70
8
 71
3
 72
8
 73
4
 74
0
 40
0
 40
0
 40
0
 40
0
 40
1
 40
1
 40
1
 40
1
 10
43.033542
 20
31.018857
 30
0.0
 10
42.997882
 20
31.549417
 30
0.0
 10
42.928046
 20
32.601927
 30
0.0
 10
42.878573
 20
33.357597
 30
0.0
  0
SPLINE
  5
12a
100
AcDbEntity
  8
Layer_1
 62
7
100
AcDbSpline
 70
8
 71
3
 72
8
 73
4
 74
0
 40
0
 40
0
 40
0
 40
0
 40
1
 40
1
 40
1
 40
1
 10
42.878573
 20
33.357597
 30
0.0
 10
42.458247
 20
39.777307
 30
0.0
 10
41.632578
 20
45.319337
 30
0.0
 10
40.474050
 20
49.493617
 30
0.0
  0
SPLINE
  5
12b
100
AcDbEntity
  8
Layer_1
 62
7
100
AcDbSpline
 70
8
 71
3
 72
8
 73
4
 74
0
 40
0
 40
0
 40
0
 40
0
 40
1
 40
1
 40
1
 40
1
 10
40.474050
 20
49.493617
 30
0.0
 10
39.487884
 20
53.046867
 30
0.0
 10
38.346408
 20
55.553957
 30
0.0
 10
36.720885
 20
57.737376
 30
0.0
  0
SPLINE
  5
12c
100
AcDbEntity
  8
Layer_1
 62
7
100
AcDbSpline
 70
8
 71
3
 72
8
 73
4
 74
0
 40
0
 40
0
 40
0
 40
0
 40
1
 40
1
 40
1
 40
1
 10
36.720885
 20
57.737376
 30
0.0
 10
36.091550
 20
58.582726
 30
0.0
 10
34.597233
 20
60.087296
 30
0.0
 10
33.804694
 20
60.673846
 30
0.0
  0
SPLINE
  5
12d
100
AcDbEntity
  8
Layer_1
 62
7
100
AcDbSpline
 70
8
 71
3
 72
8
 73
4
 74
0
 40
0
 40
0
 40
0
 40
0
 40
1
 40
1
 40
1
 40
1
 10
33.804694
 20
60.673846
 30
0.0
 10
32.053779
 20
61.969646
 30
0.0
 10
30.219959
 20
62.769086
 30
0.0
 10
27.846263
 20
63.271286
 30
0.0
  0
SPLINE
  5
12e
100
AcDbEntity
  8
Layer_1
 62
7
100
AcDbSpline
 70
8
 71
3
 72
8
 73
4
 74
0
 40
0
 40
0
 40
0
 40
0
 40
1
 40
1
 40
1
 40
1
 10
27.846263
 20
63.271286
 30
0.0
 10
27.088931
 20
63.431516
 30
0.0
 10
24.907609
 20
63.599576
 30
0.0
 10
24.359117
 20
63.601726
 30
0.0
  0
LINE
  5
12f
100
AcDbEntity
  8
Layer_1
 62
7
100
AcDbLine
 10
24.359117
 20
63.601726
 30
0.0
 11
24.359122
 21
63.601356
 31
0.0
  0
ENDSEC
  0
SECTION
  2
OBJECTS
  0
DICTIONARY
  5
C
330
0
100
AcDbDictionary
  3
ACAD_GROUP
350
D
  3
ACAD_MLINESTYLE
350
17
  0
DICTIONARY
  5
D
330
C
100
AcDbDictionary
  0
DICTIONARY
  5
1A
330
C
100
AcDbDictionary
  0
DICTIONARY
  5
17
330
C
100
AcDbDictionary
  3
STANDARD
350
18
  0
DICTIONARY
  5
19
330
C
100
AcDbDictionary
  0
ENDSEC
  0
EOF
