G04 #@! TF.GenerationSoftware,KiCad,Pcbnew,(5.1.0)-1*
G04 #@! TF.CreationDate,2019-11-03T19:19:06-06:00*
G04 #@! TF.ProjectId,wenk_sao_jig,77656e6b-5f73-4616-9f5f-6a69672e6b69,rev?*
G04 #@! TF.SameCoordinates,Original*
G04 #@! TF.FileFunction,Copper,L2,Bot*
G04 #@! TF.FilePolarity,Positive*
%FSLAX46Y46*%
G04 Gerber Fmt 4.6, Leading zero omitted, Abs format (unit mm)*
G04 Created by KiCad (PCBNEW (5.1.0)-1) date 2019-11-03 19:19:06*
%MOMM*%
%LPD*%
G04 APERTURE LIST*
%ADD10R,1.700000X1.700000*%
%ADD11O,1.700000X1.700000*%
%ADD12C,0.254000*%
G04 APERTURE END LIST*
D10*
X149860000Y-101600000D03*
D11*
X147320000Y-101600000D03*
X149860000Y-99060000D03*
X147320000Y-99060000D03*
X149860000Y-96520000D03*
X147320000Y-96520000D03*
D10*
X139700000Y-93980000D03*
D11*
X139700000Y-96520000D03*
X139700000Y-99060000D03*
X139700000Y-101600000D03*
X139700000Y-104140000D03*
X139700000Y-106680000D03*
D12*
X144018000Y-98298000D02*
X147320000Y-101600000D01*
X139700000Y-96520000D02*
X142240000Y-96520000D01*
X142240000Y-96520000D02*
X144018000Y-98298000D01*
X143510000Y-95250000D02*
X147320000Y-99060000D01*
X138811000Y-95250000D02*
X143510000Y-95250000D01*
X138176000Y-95885000D02*
X138811000Y-95250000D01*
X138176000Y-101278081D02*
X138176000Y-95885000D01*
X139700000Y-101600000D02*
X138497919Y-101600000D01*
X138497919Y-101600000D02*
X138176000Y-101278081D01*
X151511000Y-98171000D02*
X149860000Y-96520000D01*
X151511000Y-103632000D02*
X151511000Y-98171000D01*
X149733000Y-105410000D02*
X151511000Y-103632000D01*
X139700000Y-104140000D02*
X140970000Y-105410000D01*
X140970000Y-105410000D02*
X149733000Y-105410000D01*
X148590000Y-100330000D02*
X149860000Y-99060000D01*
X148590000Y-102362000D02*
X148590000Y-100330000D01*
X147955000Y-102997000D02*
X148590000Y-102362000D01*
X145923000Y-102997000D02*
X147955000Y-102997000D01*
X139700000Y-99060000D02*
X141986000Y-99060000D01*
X141986000Y-99060000D02*
X145923000Y-102997000D01*
X149860000Y-103124000D02*
X149860000Y-101600000D01*
X148844000Y-104140000D02*
X149860000Y-103124000D01*
X144780000Y-104140000D02*
X148844000Y-104140000D01*
X139700000Y-93980000D02*
X138176000Y-93980000D01*
X137160000Y-94996000D02*
X137160000Y-101219000D01*
X137160000Y-101219000D02*
X138811000Y-102870000D01*
X138176000Y-93980000D02*
X137160000Y-94996000D01*
X138811000Y-102870000D02*
X143510000Y-102870000D01*
X143510000Y-102870000D02*
X144780000Y-104140000D01*
X149098000Y-94742000D02*
X147320000Y-96520000D01*
X150749000Y-94742000D02*
X149098000Y-94742000D01*
X152400000Y-96393000D02*
X150749000Y-94742000D01*
X152400000Y-104013000D02*
X152400000Y-96393000D01*
X139700000Y-106680000D02*
X149733000Y-106680000D01*
X149733000Y-106680000D02*
X152400000Y-104013000D01*
M02*
