M48
INCH,TZ
T1C0.0160
T2C0.0400
%
G90
G05
T1
X52500Y-37100
X54500Y-35600
X54500Y-44000
X55000Y-35600
X55000Y-39200
X55000Y-40500
X55000Y-43300
X56000Y-39200
X56000Y-43300
X56500Y-35600
X56500Y-39200
X57000Y-35600
X57000Y-39200
X57500Y-39200
X58000Y-35600
X58000Y-39200
X58500Y-35600
X58550Y-41150
X59200Y-36100
X60500Y-35000
X60600Y-32900
T2
X58724Y-47408
X58724Y-48408
X59724Y-47408
X59724Y-48408
X60724Y-47408
X60724Y-48408
T0
M30
