%TF.GenerationSoftware,KiCad,Pcbnew,(5.1.0)-1*%
%TF.CreationDate,2019-10-25T10:12:22-05:00*%
%TF.ProjectId,wenk_sao,77656e6b-5f73-4616-9f2e-6b696361645f,v01*%
%TF.SameCoordinates,Original*%
%TF.FileFunction,Soldermask,Bot*%
%TF.FilePolarity,Negative*%
%FSLAX46Y46*%
G04 Gerber Fmt 4.6, Leading zero omitted, Abs format (unit mm)*
G04 Created by KiCad (PCBNEW (5.1.0)-1) date 2019-10-25 10:12:22*
%MOMM*%
%LPD*%
G04 APERTURE LIST*
%ADD10C,0.100000*%
G04 APERTURE END LIST*
D10*
G36*
X150072600Y-123870600D02*
G01*
X148243400Y-123870600D01*
X148243400Y-122041400D01*
X150072600Y-122041400D01*
X150072600Y-123870600D01*
X150072600Y-123870600D01*
G37*
G36*
X151877294Y-122054633D02*
G01*
X152049695Y-122106931D01*
X152208583Y-122191858D01*
X152347849Y-122306151D01*
X152462142Y-122445417D01*
X152547069Y-122604305D01*
X152599367Y-122776706D01*
X152617025Y-122956000D01*
X152599367Y-123135294D01*
X152547069Y-123307695D01*
X152462142Y-123466583D01*
X152347849Y-123605849D01*
X152208583Y-123720142D01*
X152049695Y-123805069D01*
X151877294Y-123857367D01*
X151742931Y-123870600D01*
X151653069Y-123870600D01*
X151518706Y-123857367D01*
X151346305Y-123805069D01*
X151187417Y-123720142D01*
X151048151Y-123605849D01*
X150933858Y-123466583D01*
X150848931Y-123307695D01*
X150796633Y-123135294D01*
X150778975Y-122956000D01*
X150796633Y-122776706D01*
X150848931Y-122604305D01*
X150933858Y-122445417D01*
X151048151Y-122306151D01*
X151187417Y-122191858D01*
X151346305Y-122106931D01*
X151518706Y-122054633D01*
X151653069Y-122041400D01*
X151742931Y-122041400D01*
X151877294Y-122054633D01*
X151877294Y-122054633D01*
G37*
G36*
X154504778Y-122076547D02*
G01*
X154671224Y-122145491D01*
X154821022Y-122245583D01*
X154948417Y-122372978D01*
X155048509Y-122522776D01*
X155117453Y-122689222D01*
X155152600Y-122865918D01*
X155152600Y-123046082D01*
X155117453Y-123222778D01*
X155048509Y-123389224D01*
X154948417Y-123539022D01*
X154821022Y-123666417D01*
X154671224Y-123766509D01*
X154504778Y-123835453D01*
X154328082Y-123870600D01*
X154147918Y-123870600D01*
X153971222Y-123835453D01*
X153804776Y-123766509D01*
X153654978Y-123666417D01*
X153527583Y-123539022D01*
X153427491Y-123389224D01*
X153358547Y-123222778D01*
X153323400Y-123046082D01*
X153323400Y-122865918D01*
X153358547Y-122689222D01*
X153427491Y-122522776D01*
X153527583Y-122372978D01*
X153654978Y-122245583D01*
X153804776Y-122145491D01*
X153971222Y-122076547D01*
X154147918Y-122041400D01*
X154328082Y-122041400D01*
X154504778Y-122076547D01*
X154504778Y-122076547D01*
G37*
G36*
X154504778Y-119536547D02*
G01*
X154671224Y-119605491D01*
X154821022Y-119705583D01*
X154948417Y-119832978D01*
X155048509Y-119982776D01*
X155117453Y-120149222D01*
X155152600Y-120325918D01*
X155152600Y-120506082D01*
X155117453Y-120682778D01*
X155048509Y-120849224D01*
X154948417Y-120999022D01*
X154821022Y-121126417D01*
X154671224Y-121226509D01*
X154504778Y-121295453D01*
X154328082Y-121330600D01*
X154147918Y-121330600D01*
X153971222Y-121295453D01*
X153804776Y-121226509D01*
X153654978Y-121126417D01*
X153527583Y-120999022D01*
X153427491Y-120849224D01*
X153358547Y-120682778D01*
X153323400Y-120506082D01*
X153323400Y-120325918D01*
X153358547Y-120149222D01*
X153427491Y-119982776D01*
X153527583Y-119832978D01*
X153654978Y-119705583D01*
X153804776Y-119605491D01*
X153971222Y-119536547D01*
X154147918Y-119501400D01*
X154328082Y-119501400D01*
X154504778Y-119536547D01*
X154504778Y-119536547D01*
G37*
G36*
X151877294Y-119514633D02*
G01*
X152049695Y-119566931D01*
X152208583Y-119651858D01*
X152347849Y-119766151D01*
X152462142Y-119905417D01*
X152547069Y-120064305D01*
X152599367Y-120236706D01*
X152617025Y-120416000D01*
X152599367Y-120595294D01*
X152547069Y-120767695D01*
X152462142Y-120926583D01*
X152347849Y-121065849D01*
X152208583Y-121180142D01*
X152049695Y-121265069D01*
X151877294Y-121317367D01*
X151742931Y-121330600D01*
X151653069Y-121330600D01*
X151518706Y-121317367D01*
X151346305Y-121265069D01*
X151187417Y-121180142D01*
X151048151Y-121065849D01*
X150933858Y-120926583D01*
X150848931Y-120767695D01*
X150796633Y-120595294D01*
X150778975Y-120416000D01*
X150796633Y-120236706D01*
X150848931Y-120064305D01*
X150933858Y-119905417D01*
X151048151Y-119766151D01*
X151187417Y-119651858D01*
X151346305Y-119566931D01*
X151518706Y-119514633D01*
X151653069Y-119501400D01*
X151742931Y-119501400D01*
X151877294Y-119514633D01*
X151877294Y-119514633D01*
G37*
G36*
X149337294Y-119514633D02*
G01*
X149509695Y-119566931D01*
X149668583Y-119651858D01*
X149807849Y-119766151D01*
X149922142Y-119905417D01*
X150007069Y-120064305D01*
X150059367Y-120236706D01*
X150077025Y-120416000D01*
X150059367Y-120595294D01*
X150007069Y-120767695D01*
X149922142Y-120926583D01*
X149807849Y-121065849D01*
X149668583Y-121180142D01*
X149509695Y-121265069D01*
X149337294Y-121317367D01*
X149202931Y-121330600D01*
X149113069Y-121330600D01*
X148978706Y-121317367D01*
X148806305Y-121265069D01*
X148647417Y-121180142D01*
X148508151Y-121065849D01*
X148393858Y-120926583D01*
X148308931Y-120767695D01*
X148256633Y-120595294D01*
X148238975Y-120416000D01*
X148256633Y-120236706D01*
X148308931Y-120064305D01*
X148393858Y-119905417D01*
X148508151Y-119766151D01*
X148647417Y-119651858D01*
X148806305Y-119566931D01*
X148978706Y-119514633D01*
X149113069Y-119501400D01*
X149202931Y-119501400D01*
X149337294Y-119514633D01*
X149337294Y-119514633D01*
G37*
G36*
X142769999Y-105879737D02*
G01*
X142784528Y-105884145D01*
X142797711Y-105889606D01*
X142821745Y-105894388D01*
X142846249Y-105894389D01*
X142870282Y-105889609D01*
X142892921Y-105880232D01*
X142894765Y-105879000D01*
X144126050Y-105879000D01*
X144138164Y-105885475D01*
X144161613Y-105892588D01*
X144185999Y-105894990D01*
X144210385Y-105892588D01*
X144233834Y-105885475D01*
X144238746Y-105883152D01*
X144250001Y-105879737D01*
X144266140Y-105878148D01*
X144803861Y-105878148D01*
X144822199Y-105879954D01*
X144834450Y-105880556D01*
X144852869Y-105880556D01*
X144875149Y-105882750D01*
X144959233Y-105899476D01*
X144980660Y-105905976D01*
X145059858Y-105938780D01*
X145065303Y-105941691D01*
X145065309Y-105941693D01*
X145074169Y-105946429D01*
X145074173Y-105946432D01*
X145079614Y-105949340D01*
X145150899Y-105996971D01*
X145168204Y-106011172D01*
X145228828Y-106071796D01*
X145243029Y-106089101D01*
X145290660Y-106160386D01*
X145293568Y-106165827D01*
X145293571Y-106165831D01*
X145298307Y-106174691D01*
X145298309Y-106174697D01*
X145301220Y-106180142D01*
X145334024Y-106259340D01*
X145340524Y-106280767D01*
X145357250Y-106364851D01*
X145359444Y-106387131D01*
X145359444Y-106405550D01*
X145360046Y-106417801D01*
X145361852Y-106436139D01*
X145361852Y-106923862D01*
X145360046Y-106942199D01*
X145359444Y-106954450D01*
X145359444Y-106972869D01*
X145357250Y-106995149D01*
X145340524Y-107079233D01*
X145334024Y-107100660D01*
X145301220Y-107179858D01*
X145298309Y-107185303D01*
X145298307Y-107185309D01*
X145293571Y-107194169D01*
X145293568Y-107194173D01*
X145290660Y-107199614D01*
X145243029Y-107270899D01*
X145228828Y-107288204D01*
X145168204Y-107348828D01*
X145150899Y-107363029D01*
X145079614Y-107410660D01*
X145074173Y-107413568D01*
X145074169Y-107413571D01*
X145065309Y-107418307D01*
X145065303Y-107418309D01*
X145059858Y-107421220D01*
X144980660Y-107454024D01*
X144959233Y-107460524D01*
X144875149Y-107477250D01*
X144852869Y-107479444D01*
X144834450Y-107479444D01*
X144822199Y-107480046D01*
X144803862Y-107481852D01*
X144266140Y-107481852D01*
X144250001Y-107480263D01*
X144235472Y-107475855D01*
X144222289Y-107470394D01*
X144198255Y-107465612D01*
X144173751Y-107465611D01*
X144149718Y-107470391D01*
X144127079Y-107479768D01*
X144125235Y-107481000D01*
X142893950Y-107481000D01*
X142881836Y-107474525D01*
X142858387Y-107467412D01*
X142834001Y-107465010D01*
X142809615Y-107467412D01*
X142786166Y-107474525D01*
X142781254Y-107476848D01*
X142769999Y-107480263D01*
X142753860Y-107481852D01*
X142216138Y-107481852D01*
X142197801Y-107480046D01*
X142185550Y-107479444D01*
X142167131Y-107479444D01*
X142144851Y-107477250D01*
X142060767Y-107460524D01*
X142039340Y-107454024D01*
X141960142Y-107421220D01*
X141954697Y-107418309D01*
X141954691Y-107418307D01*
X141945831Y-107413571D01*
X141945827Y-107413568D01*
X141940386Y-107410660D01*
X141869101Y-107363029D01*
X141851796Y-107348828D01*
X141791172Y-107288204D01*
X141776971Y-107270899D01*
X141729340Y-107199614D01*
X141726432Y-107194173D01*
X141726429Y-107194169D01*
X141721693Y-107185309D01*
X141721691Y-107185303D01*
X141718780Y-107179858D01*
X141685976Y-107100660D01*
X141679476Y-107079233D01*
X141662750Y-106995149D01*
X141660556Y-106972869D01*
X141660556Y-106954450D01*
X141659954Y-106942199D01*
X141658148Y-106923862D01*
X141658148Y-106436139D01*
X141659954Y-106417801D01*
X141660556Y-106405550D01*
X141660556Y-106387131D01*
X141662750Y-106364851D01*
X141679476Y-106280767D01*
X141685976Y-106259340D01*
X141718780Y-106180142D01*
X141721691Y-106174697D01*
X141721693Y-106174691D01*
X141726429Y-106165831D01*
X141726432Y-106165827D01*
X141729340Y-106160386D01*
X141776971Y-106089101D01*
X141791172Y-106071796D01*
X141851796Y-106011172D01*
X141869101Y-105996971D01*
X141940386Y-105949340D01*
X141945827Y-105946432D01*
X141945831Y-105946429D01*
X141954691Y-105941693D01*
X141954697Y-105941691D01*
X141960142Y-105938780D01*
X142039340Y-105905976D01*
X142060767Y-105899476D01*
X142144851Y-105882750D01*
X142167131Y-105880556D01*
X142185550Y-105880556D01*
X142197801Y-105879954D01*
X142216139Y-105878148D01*
X142753860Y-105878148D01*
X142769999Y-105879737D01*
X142769999Y-105879737D01*
G37*
G36*
X154526000Y-105961000D02*
G01*
X151924000Y-105961000D01*
X151924000Y-104859000D01*
X154526000Y-104859000D01*
X154526000Y-105961000D01*
X154526000Y-105961000D01*
G37*
G36*
X145159591Y-103173085D02*
G01*
X145193569Y-103183393D01*
X145224890Y-103200134D01*
X145252339Y-103222661D01*
X145274866Y-103250110D01*
X145291607Y-103281431D01*
X145301915Y-103315409D01*
X145306000Y-103356890D01*
X145306000Y-103958110D01*
X145301915Y-103999591D01*
X145291607Y-104033569D01*
X145274866Y-104064890D01*
X145252339Y-104092339D01*
X145224890Y-104114866D01*
X145193569Y-104131607D01*
X145159591Y-104141915D01*
X145118110Y-104146000D01*
X144441890Y-104146000D01*
X144400409Y-104141915D01*
X144366431Y-104131607D01*
X144335110Y-104114866D01*
X144307661Y-104092339D01*
X144285134Y-104064890D01*
X144268393Y-104033569D01*
X144258085Y-103999591D01*
X144254000Y-103958110D01*
X144254000Y-103356890D01*
X144258085Y-103315409D01*
X144268393Y-103281431D01*
X144285134Y-103250110D01*
X144307661Y-103222661D01*
X144335110Y-103200134D01*
X144366431Y-103183393D01*
X144400409Y-103173085D01*
X144441890Y-103169000D01*
X145118110Y-103169000D01*
X145159591Y-103173085D01*
X145159591Y-103173085D01*
G37*
G36*
X142619591Y-103173085D02*
G01*
X142653569Y-103183393D01*
X142684890Y-103200134D01*
X142712339Y-103222661D01*
X142734866Y-103250110D01*
X142751607Y-103281431D01*
X142761915Y-103315409D01*
X142766000Y-103356890D01*
X142766000Y-103958110D01*
X142761915Y-103999591D01*
X142751607Y-104033569D01*
X142734866Y-104064890D01*
X142712339Y-104092339D01*
X142684890Y-104114866D01*
X142653569Y-104131607D01*
X142619591Y-104141915D01*
X142578110Y-104146000D01*
X141901890Y-104146000D01*
X141860409Y-104141915D01*
X141826431Y-104131607D01*
X141795110Y-104114866D01*
X141767661Y-104092339D01*
X141745134Y-104064890D01*
X141728393Y-104033569D01*
X141718085Y-103999591D01*
X141714000Y-103958110D01*
X141714000Y-103356890D01*
X141718085Y-103315409D01*
X141728393Y-103281431D01*
X141745134Y-103250110D01*
X141767661Y-103222661D01*
X141795110Y-103200134D01*
X141826431Y-103183393D01*
X141860409Y-103173085D01*
X141901890Y-103169000D01*
X142578110Y-103169000D01*
X142619591Y-103173085D01*
X142619591Y-103173085D01*
G37*
G36*
X154526000Y-103421000D02*
G01*
X151924000Y-103421000D01*
X151924000Y-102319000D01*
X154526000Y-102319000D01*
X154526000Y-103421000D01*
X154526000Y-103421000D01*
G37*
G36*
X145159591Y-101598085D02*
G01*
X145193569Y-101608393D01*
X145224890Y-101625134D01*
X145252339Y-101647661D01*
X145274866Y-101675110D01*
X145291607Y-101706431D01*
X145301915Y-101740409D01*
X145306000Y-101781890D01*
X145306000Y-102383110D01*
X145301915Y-102424591D01*
X145291607Y-102458569D01*
X145274866Y-102489890D01*
X145252339Y-102517339D01*
X145224890Y-102539866D01*
X145193569Y-102556607D01*
X145159591Y-102566915D01*
X145118110Y-102571000D01*
X144441890Y-102571000D01*
X144400409Y-102566915D01*
X144366431Y-102556607D01*
X144335110Y-102539866D01*
X144307661Y-102517339D01*
X144285134Y-102489890D01*
X144268393Y-102458569D01*
X144258085Y-102424591D01*
X144254000Y-102383110D01*
X144254000Y-101781890D01*
X144258085Y-101740409D01*
X144268393Y-101706431D01*
X144285134Y-101675110D01*
X144307661Y-101647661D01*
X144335110Y-101625134D01*
X144366431Y-101608393D01*
X144400409Y-101598085D01*
X144441890Y-101594000D01*
X145118110Y-101594000D01*
X145159591Y-101598085D01*
X145159591Y-101598085D01*
G37*
G36*
X142619591Y-101598085D02*
G01*
X142653569Y-101608393D01*
X142684890Y-101625134D01*
X142712339Y-101647661D01*
X142734866Y-101675110D01*
X142751607Y-101706431D01*
X142761915Y-101740409D01*
X142766000Y-101781890D01*
X142766000Y-102383110D01*
X142761915Y-102424591D01*
X142751607Y-102458569D01*
X142734866Y-102489890D01*
X142712339Y-102517339D01*
X142684890Y-102539866D01*
X142653569Y-102556607D01*
X142619591Y-102566915D01*
X142578110Y-102571000D01*
X141901890Y-102571000D01*
X141860409Y-102566915D01*
X141826431Y-102556607D01*
X141795110Y-102539866D01*
X141767661Y-102517339D01*
X141745134Y-102489890D01*
X141728393Y-102458569D01*
X141718085Y-102424591D01*
X141714000Y-102383110D01*
X141714000Y-101781890D01*
X141718085Y-101740409D01*
X141728393Y-101706431D01*
X141745134Y-101675110D01*
X141767661Y-101647661D01*
X141795110Y-101625134D01*
X141826431Y-101608393D01*
X141860409Y-101598085D01*
X141901890Y-101594000D01*
X142578110Y-101594000D01*
X142619591Y-101598085D01*
X142619591Y-101598085D01*
G37*
G36*
X154526000Y-100881000D02*
G01*
X151924000Y-100881000D01*
X151924000Y-99779000D01*
X154526000Y-99779000D01*
X154526000Y-100881000D01*
X154526000Y-100881000D01*
G37*
G36*
X140051000Y-98497000D02*
G01*
X139349000Y-98497000D01*
X139349000Y-96895000D01*
X140051000Y-96895000D01*
X140051000Y-98497000D01*
X140051000Y-98497000D01*
G37*
G36*
X141321000Y-98497000D02*
G01*
X140619000Y-98497000D01*
X140619000Y-96895000D01*
X141321000Y-96895000D01*
X141321000Y-98497000D01*
X141321000Y-98497000D01*
G37*
G36*
X142591000Y-98497000D02*
G01*
X141889000Y-98497000D01*
X141889000Y-96895000D01*
X142591000Y-96895000D01*
X142591000Y-98497000D01*
X142591000Y-98497000D01*
G37*
G36*
X143861000Y-98497000D02*
G01*
X143159000Y-98497000D01*
X143159000Y-96895000D01*
X143861000Y-96895000D01*
X143861000Y-98497000D01*
X143861000Y-98497000D01*
G37*
G36*
X145131000Y-98497000D02*
G01*
X144429000Y-98497000D01*
X144429000Y-96895000D01*
X145131000Y-96895000D01*
X145131000Y-98497000D01*
X145131000Y-98497000D01*
G37*
G36*
X146401000Y-98497000D02*
G01*
X145699000Y-98497000D01*
X145699000Y-96895000D01*
X146401000Y-96895000D01*
X146401000Y-98497000D01*
X146401000Y-98497000D01*
G37*
G36*
X147671000Y-98497000D02*
G01*
X146969000Y-98497000D01*
X146969000Y-96895000D01*
X147671000Y-96895000D01*
X147671000Y-98497000D01*
X147671000Y-98497000D01*
G37*
G36*
X154526000Y-98341000D02*
G01*
X151924000Y-98341000D01*
X151924000Y-97239000D01*
X154526000Y-97239000D01*
X154526000Y-98341000D01*
X154526000Y-98341000D01*
G37*
G36*
X137539591Y-95553085D02*
G01*
X137573569Y-95563393D01*
X137604890Y-95580134D01*
X137632339Y-95602661D01*
X137654866Y-95630110D01*
X137671607Y-95661431D01*
X137681915Y-95695409D01*
X137686000Y-95736890D01*
X137686000Y-96338110D01*
X137681915Y-96379591D01*
X137671607Y-96413569D01*
X137654866Y-96444890D01*
X137632339Y-96472339D01*
X137604890Y-96494866D01*
X137573569Y-96511607D01*
X137539591Y-96521915D01*
X137498110Y-96526000D01*
X136821890Y-96526000D01*
X136780409Y-96521915D01*
X136746431Y-96511607D01*
X136715110Y-96494866D01*
X136687661Y-96472339D01*
X136665134Y-96444890D01*
X136648393Y-96413569D01*
X136638085Y-96379591D01*
X136634000Y-96338110D01*
X136634000Y-95736890D01*
X136638085Y-95695409D01*
X136648393Y-95661431D01*
X136665134Y-95630110D01*
X136687661Y-95602661D01*
X136715110Y-95580134D01*
X136746431Y-95563393D01*
X136780409Y-95553085D01*
X136821890Y-95549000D01*
X137498110Y-95549000D01*
X137539591Y-95553085D01*
X137539591Y-95553085D01*
G37*
G36*
X154526000Y-95801000D02*
G01*
X151924000Y-95801000D01*
X151924000Y-94699000D01*
X154526000Y-94699000D01*
X154526000Y-95801000D01*
X154526000Y-95801000D01*
G37*
G36*
X137539591Y-93978085D02*
G01*
X137573569Y-93988393D01*
X137604890Y-94005134D01*
X137632339Y-94027661D01*
X137654866Y-94055110D01*
X137671607Y-94086431D01*
X137681915Y-94120409D01*
X137686000Y-94161890D01*
X137686000Y-94763110D01*
X137681915Y-94804591D01*
X137671607Y-94838569D01*
X137654866Y-94869890D01*
X137632339Y-94897339D01*
X137604890Y-94919866D01*
X137573569Y-94936607D01*
X137539591Y-94946915D01*
X137498110Y-94951000D01*
X136821890Y-94951000D01*
X136780409Y-94946915D01*
X136746431Y-94936607D01*
X136715110Y-94919866D01*
X136687661Y-94897339D01*
X136665134Y-94869890D01*
X136648393Y-94838569D01*
X136638085Y-94804591D01*
X136634000Y-94763110D01*
X136634000Y-94161890D01*
X136638085Y-94120409D01*
X136648393Y-94086431D01*
X136665134Y-94055110D01*
X136687661Y-94027661D01*
X136715110Y-94005134D01*
X136746431Y-93988393D01*
X136780409Y-93978085D01*
X136821890Y-93974000D01*
X137498110Y-93974000D01*
X137539591Y-93978085D01*
X137539591Y-93978085D01*
G37*
G36*
X154526000Y-93261000D02*
G01*
X151924000Y-93261000D01*
X151924000Y-92159000D01*
X154526000Y-92159000D01*
X154526000Y-93261000D01*
X154526000Y-93261000D01*
G37*
G36*
X146401000Y-93097000D02*
G01*
X145699000Y-93097000D01*
X145699000Y-91495000D01*
X146401000Y-91495000D01*
X146401000Y-93097000D01*
X146401000Y-93097000D01*
G37*
G36*
X140051000Y-93097000D02*
G01*
X139349000Y-93097000D01*
X139349000Y-91495000D01*
X140051000Y-91495000D01*
X140051000Y-93097000D01*
X140051000Y-93097000D01*
G37*
G36*
X147671000Y-93097000D02*
G01*
X146969000Y-93097000D01*
X146969000Y-91495000D01*
X147671000Y-91495000D01*
X147671000Y-93097000D01*
X147671000Y-93097000D01*
G37*
G36*
X145131000Y-93097000D02*
G01*
X144429000Y-93097000D01*
X144429000Y-91495000D01*
X145131000Y-91495000D01*
X145131000Y-93097000D01*
X145131000Y-93097000D01*
G37*
G36*
X143861000Y-93097000D02*
G01*
X143159000Y-93097000D01*
X143159000Y-91495000D01*
X143861000Y-91495000D01*
X143861000Y-93097000D01*
X143861000Y-93097000D01*
G37*
G36*
X141321000Y-93097000D02*
G01*
X140619000Y-93097000D01*
X140619000Y-91495000D01*
X141321000Y-91495000D01*
X141321000Y-93097000D01*
X141321000Y-93097000D01*
G37*
G36*
X142591000Y-93097000D02*
G01*
X141889000Y-93097000D01*
X141889000Y-91495000D01*
X142591000Y-91495000D01*
X142591000Y-93097000D01*
X142591000Y-93097000D01*
G37*
G36*
X138809591Y-86663085D02*
G01*
X138843569Y-86673393D01*
X138874890Y-86690134D01*
X138902339Y-86712661D01*
X138924866Y-86740110D01*
X138941607Y-86771431D01*
X138951915Y-86805409D01*
X138956000Y-86846890D01*
X138956000Y-87448110D01*
X138951915Y-87489591D01*
X138941607Y-87523569D01*
X138924866Y-87554890D01*
X138902339Y-87582339D01*
X138874890Y-87604866D01*
X138843569Y-87621607D01*
X138809591Y-87631915D01*
X138768110Y-87636000D01*
X138091890Y-87636000D01*
X138050409Y-87631915D01*
X138016431Y-87621607D01*
X137985110Y-87604866D01*
X137957661Y-87582339D01*
X137935134Y-87554890D01*
X137918393Y-87523569D01*
X137908085Y-87489591D01*
X137904000Y-87448110D01*
X137904000Y-86846890D01*
X137908085Y-86805409D01*
X137918393Y-86771431D01*
X137935134Y-86740110D01*
X137957661Y-86712661D01*
X137985110Y-86690134D01*
X138016431Y-86673393D01*
X138050409Y-86663085D01*
X138091890Y-86659000D01*
X138768110Y-86659000D01*
X138809591Y-86663085D01*
X138809591Y-86663085D01*
G37*
G36*
X151509591Y-86663085D02*
G01*
X151543569Y-86673393D01*
X151574890Y-86690134D01*
X151602339Y-86712661D01*
X151624866Y-86740110D01*
X151641607Y-86771431D01*
X151651915Y-86805409D01*
X151656000Y-86846890D01*
X151656000Y-87448110D01*
X151651915Y-87489591D01*
X151641607Y-87523569D01*
X151624866Y-87554890D01*
X151602339Y-87582339D01*
X151574890Y-87604866D01*
X151543569Y-87621607D01*
X151509591Y-87631915D01*
X151468110Y-87636000D01*
X150791890Y-87636000D01*
X150750409Y-87631915D01*
X150716431Y-87621607D01*
X150685110Y-87604866D01*
X150657661Y-87582339D01*
X150635134Y-87554890D01*
X150618393Y-87523569D01*
X150608085Y-87489591D01*
X150604000Y-87448110D01*
X150604000Y-86846890D01*
X150608085Y-86805409D01*
X150618393Y-86771431D01*
X150635134Y-86740110D01*
X150657661Y-86712661D01*
X150685110Y-86690134D01*
X150716431Y-86673393D01*
X150750409Y-86663085D01*
X150791890Y-86659000D01*
X151468110Y-86659000D01*
X151509591Y-86663085D01*
X151509591Y-86663085D01*
G37*
G36*
X154049591Y-86663085D02*
G01*
X154083569Y-86673393D01*
X154114890Y-86690134D01*
X154142339Y-86712661D01*
X154164866Y-86740110D01*
X154181607Y-86771431D01*
X154191915Y-86805409D01*
X154196000Y-86846890D01*
X154196000Y-87448110D01*
X154191915Y-87489591D01*
X154181607Y-87523569D01*
X154164866Y-87554890D01*
X154142339Y-87582339D01*
X154114890Y-87604866D01*
X154083569Y-87621607D01*
X154049591Y-87631915D01*
X154008110Y-87636000D01*
X153331890Y-87636000D01*
X153290409Y-87631915D01*
X153256431Y-87621607D01*
X153225110Y-87604866D01*
X153197661Y-87582339D01*
X153175134Y-87554890D01*
X153158393Y-87523569D01*
X153148085Y-87489591D01*
X153144000Y-87448110D01*
X153144000Y-86846890D01*
X153148085Y-86805409D01*
X153158393Y-86771431D01*
X153175134Y-86740110D01*
X153197661Y-86712661D01*
X153225110Y-86690134D01*
X153256431Y-86673393D01*
X153290409Y-86663085D01*
X153331890Y-86659000D01*
X154008110Y-86659000D01*
X154049591Y-86663085D01*
X154049591Y-86663085D01*
G37*
G36*
X156589591Y-86663085D02*
G01*
X156623569Y-86673393D01*
X156654890Y-86690134D01*
X156682339Y-86712661D01*
X156704866Y-86740110D01*
X156721607Y-86771431D01*
X156731915Y-86805409D01*
X156736000Y-86846890D01*
X156736000Y-87448110D01*
X156731915Y-87489591D01*
X156721607Y-87523569D01*
X156704866Y-87554890D01*
X156682339Y-87582339D01*
X156654890Y-87604866D01*
X156623569Y-87621607D01*
X156589591Y-87631915D01*
X156548110Y-87636000D01*
X155871890Y-87636000D01*
X155830409Y-87631915D01*
X155796431Y-87621607D01*
X155765110Y-87604866D01*
X155737661Y-87582339D01*
X155715134Y-87554890D01*
X155698393Y-87523569D01*
X155688085Y-87489591D01*
X155684000Y-87448110D01*
X155684000Y-86846890D01*
X155688085Y-86805409D01*
X155698393Y-86771431D01*
X155715134Y-86740110D01*
X155737661Y-86712661D01*
X155765110Y-86690134D01*
X155796431Y-86673393D01*
X155830409Y-86663085D01*
X155871890Y-86659000D01*
X156548110Y-86659000D01*
X156589591Y-86663085D01*
X156589591Y-86663085D01*
G37*
G36*
X143889591Y-86663085D02*
G01*
X143923569Y-86673393D01*
X143954890Y-86690134D01*
X143982339Y-86712661D01*
X144004866Y-86740110D01*
X144021607Y-86771431D01*
X144031915Y-86805409D01*
X144036000Y-86846890D01*
X144036000Y-87448110D01*
X144031915Y-87489591D01*
X144021607Y-87523569D01*
X144004866Y-87554890D01*
X143982339Y-87582339D01*
X143954890Y-87604866D01*
X143923569Y-87621607D01*
X143889591Y-87631915D01*
X143848110Y-87636000D01*
X143171890Y-87636000D01*
X143130409Y-87631915D01*
X143096431Y-87621607D01*
X143065110Y-87604866D01*
X143037661Y-87582339D01*
X143015134Y-87554890D01*
X142998393Y-87523569D01*
X142988085Y-87489591D01*
X142984000Y-87448110D01*
X142984000Y-86846890D01*
X142988085Y-86805409D01*
X142998393Y-86771431D01*
X143015134Y-86740110D01*
X143037661Y-86712661D01*
X143065110Y-86690134D01*
X143096431Y-86673393D01*
X143130409Y-86663085D01*
X143171890Y-86659000D01*
X143848110Y-86659000D01*
X143889591Y-86663085D01*
X143889591Y-86663085D01*
G37*
G36*
X141349591Y-86663085D02*
G01*
X141383569Y-86673393D01*
X141414890Y-86690134D01*
X141442339Y-86712661D01*
X141464866Y-86740110D01*
X141481607Y-86771431D01*
X141491915Y-86805409D01*
X141496000Y-86846890D01*
X141496000Y-87448110D01*
X141491915Y-87489591D01*
X141481607Y-87523569D01*
X141464866Y-87554890D01*
X141442339Y-87582339D01*
X141414890Y-87604866D01*
X141383569Y-87621607D01*
X141349591Y-87631915D01*
X141308110Y-87636000D01*
X140631890Y-87636000D01*
X140590409Y-87631915D01*
X140556431Y-87621607D01*
X140525110Y-87604866D01*
X140497661Y-87582339D01*
X140475134Y-87554890D01*
X140458393Y-87523569D01*
X140448085Y-87489591D01*
X140444000Y-87448110D01*
X140444000Y-86846890D01*
X140448085Y-86805409D01*
X140458393Y-86771431D01*
X140475134Y-86740110D01*
X140497661Y-86712661D01*
X140525110Y-86690134D01*
X140556431Y-86673393D01*
X140590409Y-86663085D01*
X140631890Y-86659000D01*
X141308110Y-86659000D01*
X141349591Y-86663085D01*
X141349591Y-86663085D01*
G37*
G36*
X146429591Y-86663085D02*
G01*
X146463569Y-86673393D01*
X146494890Y-86690134D01*
X146522339Y-86712661D01*
X146544866Y-86740110D01*
X146561607Y-86771431D01*
X146571915Y-86805409D01*
X146576000Y-86846890D01*
X146576000Y-87448110D01*
X146571915Y-87489591D01*
X146561607Y-87523569D01*
X146544866Y-87554890D01*
X146522339Y-87582339D01*
X146494890Y-87604866D01*
X146463569Y-87621607D01*
X146429591Y-87631915D01*
X146388110Y-87636000D01*
X145711890Y-87636000D01*
X145670409Y-87631915D01*
X145636431Y-87621607D01*
X145605110Y-87604866D01*
X145577661Y-87582339D01*
X145555134Y-87554890D01*
X145538393Y-87523569D01*
X145528085Y-87489591D01*
X145524000Y-87448110D01*
X145524000Y-86846890D01*
X145528085Y-86805409D01*
X145538393Y-86771431D01*
X145555134Y-86740110D01*
X145577661Y-86712661D01*
X145605110Y-86690134D01*
X145636431Y-86673393D01*
X145670409Y-86663085D01*
X145711890Y-86659000D01*
X146388110Y-86659000D01*
X146429591Y-86663085D01*
X146429591Y-86663085D01*
G37*
G36*
X148969591Y-86663085D02*
G01*
X149003569Y-86673393D01*
X149034890Y-86690134D01*
X149062339Y-86712661D01*
X149084866Y-86740110D01*
X149101607Y-86771431D01*
X149111915Y-86805409D01*
X149116000Y-86846890D01*
X149116000Y-87448110D01*
X149111915Y-87489591D01*
X149101607Y-87523569D01*
X149084866Y-87554890D01*
X149062339Y-87582339D01*
X149034890Y-87604866D01*
X149003569Y-87621607D01*
X148969591Y-87631915D01*
X148928110Y-87636000D01*
X148251890Y-87636000D01*
X148210409Y-87631915D01*
X148176431Y-87621607D01*
X148145110Y-87604866D01*
X148117661Y-87582339D01*
X148095134Y-87554890D01*
X148078393Y-87523569D01*
X148068085Y-87489591D01*
X148064000Y-87448110D01*
X148064000Y-86846890D01*
X148068085Y-86805409D01*
X148078393Y-86771431D01*
X148095134Y-86740110D01*
X148117661Y-86712661D01*
X148145110Y-86690134D01*
X148176431Y-86673393D01*
X148210409Y-86663085D01*
X148251890Y-86659000D01*
X148928110Y-86659000D01*
X148969591Y-86663085D01*
X148969591Y-86663085D01*
G37*
G36*
X148969591Y-85088085D02*
G01*
X149003569Y-85098393D01*
X149034890Y-85115134D01*
X149062339Y-85137661D01*
X149084866Y-85165110D01*
X149101607Y-85196431D01*
X149111915Y-85230409D01*
X149116000Y-85271890D01*
X149116000Y-85873110D01*
X149111915Y-85914591D01*
X149101607Y-85948569D01*
X149084866Y-85979890D01*
X149062339Y-86007339D01*
X149034890Y-86029866D01*
X149003569Y-86046607D01*
X148969591Y-86056915D01*
X148928110Y-86061000D01*
X148251890Y-86061000D01*
X148210409Y-86056915D01*
X148176431Y-86046607D01*
X148145110Y-86029866D01*
X148117661Y-86007339D01*
X148095134Y-85979890D01*
X148078393Y-85948569D01*
X148068085Y-85914591D01*
X148064000Y-85873110D01*
X148064000Y-85271890D01*
X148068085Y-85230409D01*
X148078393Y-85196431D01*
X148095134Y-85165110D01*
X148117661Y-85137661D01*
X148145110Y-85115134D01*
X148176431Y-85098393D01*
X148210409Y-85088085D01*
X148251890Y-85084000D01*
X148928110Y-85084000D01*
X148969591Y-85088085D01*
X148969591Y-85088085D01*
G37*
G36*
X138809591Y-85088085D02*
G01*
X138843569Y-85098393D01*
X138874890Y-85115134D01*
X138902339Y-85137661D01*
X138924866Y-85165110D01*
X138941607Y-85196431D01*
X138951915Y-85230409D01*
X138956000Y-85271890D01*
X138956000Y-85873110D01*
X138951915Y-85914591D01*
X138941607Y-85948569D01*
X138924866Y-85979890D01*
X138902339Y-86007339D01*
X138874890Y-86029866D01*
X138843569Y-86046607D01*
X138809591Y-86056915D01*
X138768110Y-86061000D01*
X138091890Y-86061000D01*
X138050409Y-86056915D01*
X138016431Y-86046607D01*
X137985110Y-86029866D01*
X137957661Y-86007339D01*
X137935134Y-85979890D01*
X137918393Y-85948569D01*
X137908085Y-85914591D01*
X137904000Y-85873110D01*
X137904000Y-85271890D01*
X137908085Y-85230409D01*
X137918393Y-85196431D01*
X137935134Y-85165110D01*
X137957661Y-85137661D01*
X137985110Y-85115134D01*
X138016431Y-85098393D01*
X138050409Y-85088085D01*
X138091890Y-85084000D01*
X138768110Y-85084000D01*
X138809591Y-85088085D01*
X138809591Y-85088085D01*
G37*
G36*
X141349591Y-85088085D02*
G01*
X141383569Y-85098393D01*
X141414890Y-85115134D01*
X141442339Y-85137661D01*
X141464866Y-85165110D01*
X141481607Y-85196431D01*
X141491915Y-85230409D01*
X141496000Y-85271890D01*
X141496000Y-85873110D01*
X141491915Y-85914591D01*
X141481607Y-85948569D01*
X141464866Y-85979890D01*
X141442339Y-86007339D01*
X141414890Y-86029866D01*
X141383569Y-86046607D01*
X141349591Y-86056915D01*
X141308110Y-86061000D01*
X140631890Y-86061000D01*
X140590409Y-86056915D01*
X140556431Y-86046607D01*
X140525110Y-86029866D01*
X140497661Y-86007339D01*
X140475134Y-85979890D01*
X140458393Y-85948569D01*
X140448085Y-85914591D01*
X140444000Y-85873110D01*
X140444000Y-85271890D01*
X140448085Y-85230409D01*
X140458393Y-85196431D01*
X140475134Y-85165110D01*
X140497661Y-85137661D01*
X140525110Y-85115134D01*
X140556431Y-85098393D01*
X140590409Y-85088085D01*
X140631890Y-85084000D01*
X141308110Y-85084000D01*
X141349591Y-85088085D01*
X141349591Y-85088085D01*
G37*
G36*
X143889591Y-85088085D02*
G01*
X143923569Y-85098393D01*
X143954890Y-85115134D01*
X143982339Y-85137661D01*
X144004866Y-85165110D01*
X144021607Y-85196431D01*
X144031915Y-85230409D01*
X144036000Y-85271890D01*
X144036000Y-85873110D01*
X144031915Y-85914591D01*
X144021607Y-85948569D01*
X144004866Y-85979890D01*
X143982339Y-86007339D01*
X143954890Y-86029866D01*
X143923569Y-86046607D01*
X143889591Y-86056915D01*
X143848110Y-86061000D01*
X143171890Y-86061000D01*
X143130409Y-86056915D01*
X143096431Y-86046607D01*
X143065110Y-86029866D01*
X143037661Y-86007339D01*
X143015134Y-85979890D01*
X142998393Y-85948569D01*
X142988085Y-85914591D01*
X142984000Y-85873110D01*
X142984000Y-85271890D01*
X142988085Y-85230409D01*
X142998393Y-85196431D01*
X143015134Y-85165110D01*
X143037661Y-85137661D01*
X143065110Y-85115134D01*
X143096431Y-85098393D01*
X143130409Y-85088085D01*
X143171890Y-85084000D01*
X143848110Y-85084000D01*
X143889591Y-85088085D01*
X143889591Y-85088085D01*
G37*
G36*
X146429591Y-85088085D02*
G01*
X146463569Y-85098393D01*
X146494890Y-85115134D01*
X146522339Y-85137661D01*
X146544866Y-85165110D01*
X146561607Y-85196431D01*
X146571915Y-85230409D01*
X146576000Y-85271890D01*
X146576000Y-85873110D01*
X146571915Y-85914591D01*
X146561607Y-85948569D01*
X146544866Y-85979890D01*
X146522339Y-86007339D01*
X146494890Y-86029866D01*
X146463569Y-86046607D01*
X146429591Y-86056915D01*
X146388110Y-86061000D01*
X145711890Y-86061000D01*
X145670409Y-86056915D01*
X145636431Y-86046607D01*
X145605110Y-86029866D01*
X145577661Y-86007339D01*
X145555134Y-85979890D01*
X145538393Y-85948569D01*
X145528085Y-85914591D01*
X145524000Y-85873110D01*
X145524000Y-85271890D01*
X145528085Y-85230409D01*
X145538393Y-85196431D01*
X145555134Y-85165110D01*
X145577661Y-85137661D01*
X145605110Y-85115134D01*
X145636431Y-85098393D01*
X145670409Y-85088085D01*
X145711890Y-85084000D01*
X146388110Y-85084000D01*
X146429591Y-85088085D01*
X146429591Y-85088085D01*
G37*
G36*
X151509591Y-85088085D02*
G01*
X151543569Y-85098393D01*
X151574890Y-85115134D01*
X151602339Y-85137661D01*
X151624866Y-85165110D01*
X151641607Y-85196431D01*
X151651915Y-85230409D01*
X151656000Y-85271890D01*
X151656000Y-85873110D01*
X151651915Y-85914591D01*
X151641607Y-85948569D01*
X151624866Y-85979890D01*
X151602339Y-86007339D01*
X151574890Y-86029866D01*
X151543569Y-86046607D01*
X151509591Y-86056915D01*
X151468110Y-86061000D01*
X150791890Y-86061000D01*
X150750409Y-86056915D01*
X150716431Y-86046607D01*
X150685110Y-86029866D01*
X150657661Y-86007339D01*
X150635134Y-85979890D01*
X150618393Y-85948569D01*
X150608085Y-85914591D01*
X150604000Y-85873110D01*
X150604000Y-85271890D01*
X150608085Y-85230409D01*
X150618393Y-85196431D01*
X150635134Y-85165110D01*
X150657661Y-85137661D01*
X150685110Y-85115134D01*
X150716431Y-85098393D01*
X150750409Y-85088085D01*
X150791890Y-85084000D01*
X151468110Y-85084000D01*
X151509591Y-85088085D01*
X151509591Y-85088085D01*
G37*
G36*
X154049591Y-85088085D02*
G01*
X154083569Y-85098393D01*
X154114890Y-85115134D01*
X154142339Y-85137661D01*
X154164866Y-85165110D01*
X154181607Y-85196431D01*
X154191915Y-85230409D01*
X154196000Y-85271890D01*
X154196000Y-85873110D01*
X154191915Y-85914591D01*
X154181607Y-85948569D01*
X154164866Y-85979890D01*
X154142339Y-86007339D01*
X154114890Y-86029866D01*
X154083569Y-86046607D01*
X154049591Y-86056915D01*
X154008110Y-86061000D01*
X153331890Y-86061000D01*
X153290409Y-86056915D01*
X153256431Y-86046607D01*
X153225110Y-86029866D01*
X153197661Y-86007339D01*
X153175134Y-85979890D01*
X153158393Y-85948569D01*
X153148085Y-85914591D01*
X153144000Y-85873110D01*
X153144000Y-85271890D01*
X153148085Y-85230409D01*
X153158393Y-85196431D01*
X153175134Y-85165110D01*
X153197661Y-85137661D01*
X153225110Y-85115134D01*
X153256431Y-85098393D01*
X153290409Y-85088085D01*
X153331890Y-85084000D01*
X154008110Y-85084000D01*
X154049591Y-85088085D01*
X154049591Y-85088085D01*
G37*
G36*
X156589591Y-85088085D02*
G01*
X156623569Y-85098393D01*
X156654890Y-85115134D01*
X156682339Y-85137661D01*
X156704866Y-85165110D01*
X156721607Y-85196431D01*
X156731915Y-85230409D01*
X156736000Y-85271890D01*
X156736000Y-85873110D01*
X156731915Y-85914591D01*
X156721607Y-85948569D01*
X156704866Y-85979890D01*
X156682339Y-86007339D01*
X156654890Y-86029866D01*
X156623569Y-86046607D01*
X156589591Y-86056915D01*
X156548110Y-86061000D01*
X155871890Y-86061000D01*
X155830409Y-86056915D01*
X155796431Y-86046607D01*
X155765110Y-86029866D01*
X155737661Y-86007339D01*
X155715134Y-85979890D01*
X155698393Y-85948569D01*
X155688085Y-85914591D01*
X155684000Y-85873110D01*
X155684000Y-85271890D01*
X155688085Y-85230409D01*
X155698393Y-85196431D01*
X155715134Y-85165110D01*
X155737661Y-85137661D01*
X155765110Y-85115134D01*
X155796431Y-85098393D01*
X155830409Y-85088085D01*
X155871890Y-85084000D01*
X156548110Y-85084000D01*
X156589591Y-85088085D01*
X156589591Y-85088085D01*
G37*
G36*
X147786703Y-77201486D02*
G01*
X148077883Y-77322097D01*
X148339940Y-77497198D01*
X148562802Y-77720060D01*
X148737903Y-77982117D01*
X148858514Y-78273297D01*
X148920566Y-78585256D01*
X148920000Y-78590999D01*
X148920000Y-78889001D01*
X148920566Y-78894744D01*
X148858514Y-79206703D01*
X148737903Y-79497883D01*
X148562802Y-79759940D01*
X148339940Y-79982802D01*
X148077883Y-80157903D01*
X147786703Y-80278514D01*
X147477588Y-80340000D01*
X147162412Y-80340000D01*
X146853297Y-80278514D01*
X146562117Y-80157903D01*
X146300060Y-79982802D01*
X146077198Y-79759940D01*
X145902097Y-79497883D01*
X145781486Y-79206703D01*
X145719434Y-78894744D01*
X145720000Y-78889001D01*
X145720000Y-78590999D01*
X145719434Y-78585256D01*
X145781486Y-78273297D01*
X145902097Y-77982117D01*
X146077198Y-77720060D01*
X146300060Y-77497198D01*
X146562117Y-77322097D01*
X146853297Y-77201486D01*
X147162412Y-77140000D01*
X147477588Y-77140000D01*
X147786703Y-77201486D01*
X147786703Y-77201486D01*
G37*
G36*
X135213703Y-77201486D02*
G01*
X135504883Y-77322097D01*
X135766940Y-77497198D01*
X135989802Y-77720060D01*
X136164903Y-77982117D01*
X136285514Y-78273297D01*
X136347566Y-78585256D01*
X136347000Y-78590999D01*
X136347000Y-78889001D01*
X136347566Y-78894744D01*
X136285514Y-79206703D01*
X136164903Y-79497883D01*
X135989802Y-79759940D01*
X135766940Y-79982802D01*
X135504883Y-80157903D01*
X135213703Y-80278514D01*
X134904588Y-80340000D01*
X134589412Y-80340000D01*
X134280297Y-80278514D01*
X133989117Y-80157903D01*
X133727060Y-79982802D01*
X133504198Y-79759940D01*
X133329097Y-79497883D01*
X133208486Y-79206703D01*
X133146434Y-78894744D01*
X133147000Y-78889001D01*
X133147000Y-78590999D01*
X133146434Y-78585256D01*
X133208486Y-78273297D01*
X133329097Y-77982117D01*
X133504198Y-77720060D01*
X133727060Y-77497198D01*
X133989117Y-77322097D01*
X134280297Y-77201486D01*
X134589412Y-77140000D01*
X134904588Y-77140000D01*
X135213703Y-77201486D01*
X135213703Y-77201486D01*
G37*
G36*
X132898000Y-79916000D02*
G01*
X131396000Y-79916000D01*
X131396000Y-79014000D01*
X132898000Y-79014000D01*
X132898000Y-79916000D01*
X132898000Y-79916000D01*
G37*
G36*
X145471000Y-79916000D02*
G01*
X143969000Y-79916000D01*
X143969000Y-79014000D01*
X145471000Y-79014000D01*
X145471000Y-79916000D01*
X145471000Y-79916000D01*
G37*
G36*
X150671000Y-79916000D02*
G01*
X149169000Y-79916000D01*
X149169000Y-79014000D01*
X150671000Y-79014000D01*
X150671000Y-79916000D01*
X150671000Y-79916000D01*
G37*
G36*
X138098000Y-79916000D02*
G01*
X136596000Y-79916000D01*
X136596000Y-79014000D01*
X138098000Y-79014000D01*
X138098000Y-79916000D01*
X138098000Y-79916000D01*
G37*
G36*
X150671000Y-78466000D02*
G01*
X149169000Y-78466000D01*
X149169000Y-77564000D01*
X150671000Y-77564000D01*
X150671000Y-78466000D01*
X150671000Y-78466000D01*
G37*
G36*
X145471000Y-78466000D02*
G01*
X143969000Y-78466000D01*
X143969000Y-77564000D01*
X145471000Y-77564000D01*
X145471000Y-78466000D01*
X145471000Y-78466000D01*
G37*
G36*
X138098000Y-78466000D02*
G01*
X136596000Y-78466000D01*
X136596000Y-77564000D01*
X138098000Y-77564000D01*
X138098000Y-78466000D01*
X138098000Y-78466000D01*
G37*
G36*
X132898000Y-78466000D02*
G01*
X131396000Y-78466000D01*
X131396000Y-77564000D01*
X132898000Y-77564000D01*
X132898000Y-78466000D01*
X132898000Y-78466000D01*
G37*
M02*
