%TF.GenerationSoftware,KiCad,Pcbnew,(5.1.0)-1*%
%TF.CreationDate,2019-10-25T10:12:21-05:00*%
%TF.ProjectId,wenk_sao,77656e6b-5f73-4616-9f2e-6b696361645f,v01*%
%TF.SameCoordinates,Original*%
%TF.FileFunction,Paste,Bot*%
%TF.FilePolarity,Positive*%
%FSLAX46Y46*%
G04 Gerber Fmt 4.6, Leading zero omitted, Abs format (unit mm)*
G04 Created by KiCad (PCBNEW (5.1.0)-1) date 2019-10-25 10:12:21*
%MOMM*%
%LPD*%
G04 APERTURE LIST*
%ADD10C,0.100000*%
%ADD11C,0.875000*%
%ADD12R,1.400000X0.800000*%
%ADD13R,2.500000X1.000000*%
%ADD14R,0.600000X1.500000*%
G04 APERTURE END LIST*
D10*
%TO.C,C1*%
G36*
X156487691Y-86711053D02*
G01*
X156508926Y-86714203D01*
X156529750Y-86719419D01*
X156549962Y-86726651D01*
X156569368Y-86735830D01*
X156587781Y-86746866D01*
X156605024Y-86759654D01*
X156620930Y-86774070D01*
X156635346Y-86789976D01*
X156648134Y-86807219D01*
X156659170Y-86825632D01*
X156668349Y-86845038D01*
X156675581Y-86865250D01*
X156680797Y-86886074D01*
X156683947Y-86907309D01*
X156685000Y-86928750D01*
X156685000Y-87366250D01*
X156683947Y-87387691D01*
X156680797Y-87408926D01*
X156675581Y-87429750D01*
X156668349Y-87449962D01*
X156659170Y-87469368D01*
X156648134Y-87487781D01*
X156635346Y-87505024D01*
X156620930Y-87520930D01*
X156605024Y-87535346D01*
X156587781Y-87548134D01*
X156569368Y-87559170D01*
X156549962Y-87568349D01*
X156529750Y-87575581D01*
X156508926Y-87580797D01*
X156487691Y-87583947D01*
X156466250Y-87585000D01*
X155953750Y-87585000D01*
X155932309Y-87583947D01*
X155911074Y-87580797D01*
X155890250Y-87575581D01*
X155870038Y-87568349D01*
X155850632Y-87559170D01*
X155832219Y-87548134D01*
X155814976Y-87535346D01*
X155799070Y-87520930D01*
X155784654Y-87505024D01*
X155771866Y-87487781D01*
X155760830Y-87469368D01*
X155751651Y-87449962D01*
X155744419Y-87429750D01*
X155739203Y-87408926D01*
X155736053Y-87387691D01*
X155735000Y-87366250D01*
X155735000Y-86928750D01*
X155736053Y-86907309D01*
X155739203Y-86886074D01*
X155744419Y-86865250D01*
X155751651Y-86845038D01*
X155760830Y-86825632D01*
X155771866Y-86807219D01*
X155784654Y-86789976D01*
X155799070Y-86774070D01*
X155814976Y-86759654D01*
X155832219Y-86746866D01*
X155850632Y-86735830D01*
X155870038Y-86726651D01*
X155890250Y-86719419D01*
X155911074Y-86714203D01*
X155932309Y-86711053D01*
X155953750Y-86710000D01*
X156466250Y-86710000D01*
X156487691Y-86711053D01*
X156487691Y-86711053D01*
G37*
D11*
X156210000Y-87147500D03*
D10*
G36*
X156487691Y-85136053D02*
G01*
X156508926Y-85139203D01*
X156529750Y-85144419D01*
X156549962Y-85151651D01*
X156569368Y-85160830D01*
X156587781Y-85171866D01*
X156605024Y-85184654D01*
X156620930Y-85199070D01*
X156635346Y-85214976D01*
X156648134Y-85232219D01*
X156659170Y-85250632D01*
X156668349Y-85270038D01*
X156675581Y-85290250D01*
X156680797Y-85311074D01*
X156683947Y-85332309D01*
X156685000Y-85353750D01*
X156685000Y-85791250D01*
X156683947Y-85812691D01*
X156680797Y-85833926D01*
X156675581Y-85854750D01*
X156668349Y-85874962D01*
X156659170Y-85894368D01*
X156648134Y-85912781D01*
X156635346Y-85930024D01*
X156620930Y-85945930D01*
X156605024Y-85960346D01*
X156587781Y-85973134D01*
X156569368Y-85984170D01*
X156549962Y-85993349D01*
X156529750Y-86000581D01*
X156508926Y-86005797D01*
X156487691Y-86008947D01*
X156466250Y-86010000D01*
X155953750Y-86010000D01*
X155932309Y-86008947D01*
X155911074Y-86005797D01*
X155890250Y-86000581D01*
X155870038Y-85993349D01*
X155850632Y-85984170D01*
X155832219Y-85973134D01*
X155814976Y-85960346D01*
X155799070Y-85945930D01*
X155784654Y-85930024D01*
X155771866Y-85912781D01*
X155760830Y-85894368D01*
X155751651Y-85874962D01*
X155744419Y-85854750D01*
X155739203Y-85833926D01*
X155736053Y-85812691D01*
X155735000Y-85791250D01*
X155735000Y-85353750D01*
X155736053Y-85332309D01*
X155739203Y-85311074D01*
X155744419Y-85290250D01*
X155751651Y-85270038D01*
X155760830Y-85250632D01*
X155771866Y-85232219D01*
X155784654Y-85214976D01*
X155799070Y-85199070D01*
X155814976Y-85184654D01*
X155832219Y-85171866D01*
X155850632Y-85160830D01*
X155870038Y-85151651D01*
X155890250Y-85144419D01*
X155911074Y-85139203D01*
X155932309Y-85136053D01*
X155953750Y-85135000D01*
X156466250Y-85135000D01*
X156487691Y-85136053D01*
X156487691Y-85136053D01*
G37*
D11*
X156210000Y-85572500D03*
%TD*%
D10*
%TO.C,C2*%
G36*
X137437691Y-95601053D02*
G01*
X137458926Y-95604203D01*
X137479750Y-95609419D01*
X137499962Y-95616651D01*
X137519368Y-95625830D01*
X137537781Y-95636866D01*
X137555024Y-95649654D01*
X137570930Y-95664070D01*
X137585346Y-95679976D01*
X137598134Y-95697219D01*
X137609170Y-95715632D01*
X137618349Y-95735038D01*
X137625581Y-95755250D01*
X137630797Y-95776074D01*
X137633947Y-95797309D01*
X137635000Y-95818750D01*
X137635000Y-96256250D01*
X137633947Y-96277691D01*
X137630797Y-96298926D01*
X137625581Y-96319750D01*
X137618349Y-96339962D01*
X137609170Y-96359368D01*
X137598134Y-96377781D01*
X137585346Y-96395024D01*
X137570930Y-96410930D01*
X137555024Y-96425346D01*
X137537781Y-96438134D01*
X137519368Y-96449170D01*
X137499962Y-96458349D01*
X137479750Y-96465581D01*
X137458926Y-96470797D01*
X137437691Y-96473947D01*
X137416250Y-96475000D01*
X136903750Y-96475000D01*
X136882309Y-96473947D01*
X136861074Y-96470797D01*
X136840250Y-96465581D01*
X136820038Y-96458349D01*
X136800632Y-96449170D01*
X136782219Y-96438134D01*
X136764976Y-96425346D01*
X136749070Y-96410930D01*
X136734654Y-96395024D01*
X136721866Y-96377781D01*
X136710830Y-96359368D01*
X136701651Y-96339962D01*
X136694419Y-96319750D01*
X136689203Y-96298926D01*
X136686053Y-96277691D01*
X136685000Y-96256250D01*
X136685000Y-95818750D01*
X136686053Y-95797309D01*
X136689203Y-95776074D01*
X136694419Y-95755250D01*
X136701651Y-95735038D01*
X136710830Y-95715632D01*
X136721866Y-95697219D01*
X136734654Y-95679976D01*
X136749070Y-95664070D01*
X136764976Y-95649654D01*
X136782219Y-95636866D01*
X136800632Y-95625830D01*
X136820038Y-95616651D01*
X136840250Y-95609419D01*
X136861074Y-95604203D01*
X136882309Y-95601053D01*
X136903750Y-95600000D01*
X137416250Y-95600000D01*
X137437691Y-95601053D01*
X137437691Y-95601053D01*
G37*
D11*
X137160000Y-96037500D03*
D10*
G36*
X137437691Y-94026053D02*
G01*
X137458926Y-94029203D01*
X137479750Y-94034419D01*
X137499962Y-94041651D01*
X137519368Y-94050830D01*
X137537781Y-94061866D01*
X137555024Y-94074654D01*
X137570930Y-94089070D01*
X137585346Y-94104976D01*
X137598134Y-94122219D01*
X137609170Y-94140632D01*
X137618349Y-94160038D01*
X137625581Y-94180250D01*
X137630797Y-94201074D01*
X137633947Y-94222309D01*
X137635000Y-94243750D01*
X137635000Y-94681250D01*
X137633947Y-94702691D01*
X137630797Y-94723926D01*
X137625581Y-94744750D01*
X137618349Y-94764962D01*
X137609170Y-94784368D01*
X137598134Y-94802781D01*
X137585346Y-94820024D01*
X137570930Y-94835930D01*
X137555024Y-94850346D01*
X137537781Y-94863134D01*
X137519368Y-94874170D01*
X137499962Y-94883349D01*
X137479750Y-94890581D01*
X137458926Y-94895797D01*
X137437691Y-94898947D01*
X137416250Y-94900000D01*
X136903750Y-94900000D01*
X136882309Y-94898947D01*
X136861074Y-94895797D01*
X136840250Y-94890581D01*
X136820038Y-94883349D01*
X136800632Y-94874170D01*
X136782219Y-94863134D01*
X136764976Y-94850346D01*
X136749070Y-94835930D01*
X136734654Y-94820024D01*
X136721866Y-94802781D01*
X136710830Y-94784368D01*
X136701651Y-94764962D01*
X136694419Y-94744750D01*
X136689203Y-94723926D01*
X136686053Y-94702691D01*
X136685000Y-94681250D01*
X136685000Y-94243750D01*
X136686053Y-94222309D01*
X136689203Y-94201074D01*
X136694419Y-94180250D01*
X136701651Y-94160038D01*
X136710830Y-94140632D01*
X136721866Y-94122219D01*
X136734654Y-94104976D01*
X136749070Y-94089070D01*
X136764976Y-94074654D01*
X136782219Y-94061866D01*
X136800632Y-94050830D01*
X136820038Y-94041651D01*
X136840250Y-94034419D01*
X136861074Y-94029203D01*
X136882309Y-94026053D01*
X136903750Y-94025000D01*
X137416250Y-94025000D01*
X137437691Y-94026053D01*
X137437691Y-94026053D01*
G37*
D11*
X137160000Y-94462500D03*
%TD*%
D12*
%TO.C,D1*%
X137347000Y-78015000D03*
X137347000Y-79465000D03*
X132147000Y-78015000D03*
X132147000Y-79465000D03*
%TD*%
%TO.C,D2*%
X149920000Y-78015000D03*
X149920000Y-79465000D03*
X144720000Y-78015000D03*
X144720000Y-79465000D03*
%TD*%
D13*
%TO.C,J1*%
X153225000Y-92710000D03*
X153225000Y-95250000D03*
X153225000Y-97790000D03*
X153225000Y-100330000D03*
X153225000Y-102870000D03*
X153225000Y-105410000D03*
%TD*%
D10*
%TO.C,R1*%
G36*
X153947691Y-86711053D02*
G01*
X153968926Y-86714203D01*
X153989750Y-86719419D01*
X154009962Y-86726651D01*
X154029368Y-86735830D01*
X154047781Y-86746866D01*
X154065024Y-86759654D01*
X154080930Y-86774070D01*
X154095346Y-86789976D01*
X154108134Y-86807219D01*
X154119170Y-86825632D01*
X154128349Y-86845038D01*
X154135581Y-86865250D01*
X154140797Y-86886074D01*
X154143947Y-86907309D01*
X154145000Y-86928750D01*
X154145000Y-87366250D01*
X154143947Y-87387691D01*
X154140797Y-87408926D01*
X154135581Y-87429750D01*
X154128349Y-87449962D01*
X154119170Y-87469368D01*
X154108134Y-87487781D01*
X154095346Y-87505024D01*
X154080930Y-87520930D01*
X154065024Y-87535346D01*
X154047781Y-87548134D01*
X154029368Y-87559170D01*
X154009962Y-87568349D01*
X153989750Y-87575581D01*
X153968926Y-87580797D01*
X153947691Y-87583947D01*
X153926250Y-87585000D01*
X153413750Y-87585000D01*
X153392309Y-87583947D01*
X153371074Y-87580797D01*
X153350250Y-87575581D01*
X153330038Y-87568349D01*
X153310632Y-87559170D01*
X153292219Y-87548134D01*
X153274976Y-87535346D01*
X153259070Y-87520930D01*
X153244654Y-87505024D01*
X153231866Y-87487781D01*
X153220830Y-87469368D01*
X153211651Y-87449962D01*
X153204419Y-87429750D01*
X153199203Y-87408926D01*
X153196053Y-87387691D01*
X153195000Y-87366250D01*
X153195000Y-86928750D01*
X153196053Y-86907309D01*
X153199203Y-86886074D01*
X153204419Y-86865250D01*
X153211651Y-86845038D01*
X153220830Y-86825632D01*
X153231866Y-86807219D01*
X153244654Y-86789976D01*
X153259070Y-86774070D01*
X153274976Y-86759654D01*
X153292219Y-86746866D01*
X153310632Y-86735830D01*
X153330038Y-86726651D01*
X153350250Y-86719419D01*
X153371074Y-86714203D01*
X153392309Y-86711053D01*
X153413750Y-86710000D01*
X153926250Y-86710000D01*
X153947691Y-86711053D01*
X153947691Y-86711053D01*
G37*
D11*
X153670000Y-87147500D03*
D10*
G36*
X153947691Y-85136053D02*
G01*
X153968926Y-85139203D01*
X153989750Y-85144419D01*
X154009962Y-85151651D01*
X154029368Y-85160830D01*
X154047781Y-85171866D01*
X154065024Y-85184654D01*
X154080930Y-85199070D01*
X154095346Y-85214976D01*
X154108134Y-85232219D01*
X154119170Y-85250632D01*
X154128349Y-85270038D01*
X154135581Y-85290250D01*
X154140797Y-85311074D01*
X154143947Y-85332309D01*
X154145000Y-85353750D01*
X154145000Y-85791250D01*
X154143947Y-85812691D01*
X154140797Y-85833926D01*
X154135581Y-85854750D01*
X154128349Y-85874962D01*
X154119170Y-85894368D01*
X154108134Y-85912781D01*
X154095346Y-85930024D01*
X154080930Y-85945930D01*
X154065024Y-85960346D01*
X154047781Y-85973134D01*
X154029368Y-85984170D01*
X154009962Y-85993349D01*
X153989750Y-86000581D01*
X153968926Y-86005797D01*
X153947691Y-86008947D01*
X153926250Y-86010000D01*
X153413750Y-86010000D01*
X153392309Y-86008947D01*
X153371074Y-86005797D01*
X153350250Y-86000581D01*
X153330038Y-85993349D01*
X153310632Y-85984170D01*
X153292219Y-85973134D01*
X153274976Y-85960346D01*
X153259070Y-85945930D01*
X153244654Y-85930024D01*
X153231866Y-85912781D01*
X153220830Y-85894368D01*
X153211651Y-85874962D01*
X153204419Y-85854750D01*
X153199203Y-85833926D01*
X153196053Y-85812691D01*
X153195000Y-85791250D01*
X153195000Y-85353750D01*
X153196053Y-85332309D01*
X153199203Y-85311074D01*
X153204419Y-85290250D01*
X153211651Y-85270038D01*
X153220830Y-85250632D01*
X153231866Y-85232219D01*
X153244654Y-85214976D01*
X153259070Y-85199070D01*
X153274976Y-85184654D01*
X153292219Y-85171866D01*
X153310632Y-85160830D01*
X153330038Y-85151651D01*
X153350250Y-85144419D01*
X153371074Y-85139203D01*
X153392309Y-85136053D01*
X153413750Y-85135000D01*
X153926250Y-85135000D01*
X153947691Y-85136053D01*
X153947691Y-85136053D01*
G37*
D11*
X153670000Y-85572500D03*
%TD*%
D10*
%TO.C,R2*%
G36*
X142517691Y-103221053D02*
G01*
X142538926Y-103224203D01*
X142559750Y-103229419D01*
X142579962Y-103236651D01*
X142599368Y-103245830D01*
X142617781Y-103256866D01*
X142635024Y-103269654D01*
X142650930Y-103284070D01*
X142665346Y-103299976D01*
X142678134Y-103317219D01*
X142689170Y-103335632D01*
X142698349Y-103355038D01*
X142705581Y-103375250D01*
X142710797Y-103396074D01*
X142713947Y-103417309D01*
X142715000Y-103438750D01*
X142715000Y-103876250D01*
X142713947Y-103897691D01*
X142710797Y-103918926D01*
X142705581Y-103939750D01*
X142698349Y-103959962D01*
X142689170Y-103979368D01*
X142678134Y-103997781D01*
X142665346Y-104015024D01*
X142650930Y-104030930D01*
X142635024Y-104045346D01*
X142617781Y-104058134D01*
X142599368Y-104069170D01*
X142579962Y-104078349D01*
X142559750Y-104085581D01*
X142538926Y-104090797D01*
X142517691Y-104093947D01*
X142496250Y-104095000D01*
X141983750Y-104095000D01*
X141962309Y-104093947D01*
X141941074Y-104090797D01*
X141920250Y-104085581D01*
X141900038Y-104078349D01*
X141880632Y-104069170D01*
X141862219Y-104058134D01*
X141844976Y-104045346D01*
X141829070Y-104030930D01*
X141814654Y-104015024D01*
X141801866Y-103997781D01*
X141790830Y-103979368D01*
X141781651Y-103959962D01*
X141774419Y-103939750D01*
X141769203Y-103918926D01*
X141766053Y-103897691D01*
X141765000Y-103876250D01*
X141765000Y-103438750D01*
X141766053Y-103417309D01*
X141769203Y-103396074D01*
X141774419Y-103375250D01*
X141781651Y-103355038D01*
X141790830Y-103335632D01*
X141801866Y-103317219D01*
X141814654Y-103299976D01*
X141829070Y-103284070D01*
X141844976Y-103269654D01*
X141862219Y-103256866D01*
X141880632Y-103245830D01*
X141900038Y-103236651D01*
X141920250Y-103229419D01*
X141941074Y-103224203D01*
X141962309Y-103221053D01*
X141983750Y-103220000D01*
X142496250Y-103220000D01*
X142517691Y-103221053D01*
X142517691Y-103221053D01*
G37*
D11*
X142240000Y-103657500D03*
D10*
G36*
X142517691Y-101646053D02*
G01*
X142538926Y-101649203D01*
X142559750Y-101654419D01*
X142579962Y-101661651D01*
X142599368Y-101670830D01*
X142617781Y-101681866D01*
X142635024Y-101694654D01*
X142650930Y-101709070D01*
X142665346Y-101724976D01*
X142678134Y-101742219D01*
X142689170Y-101760632D01*
X142698349Y-101780038D01*
X142705581Y-101800250D01*
X142710797Y-101821074D01*
X142713947Y-101842309D01*
X142715000Y-101863750D01*
X142715000Y-102301250D01*
X142713947Y-102322691D01*
X142710797Y-102343926D01*
X142705581Y-102364750D01*
X142698349Y-102384962D01*
X142689170Y-102404368D01*
X142678134Y-102422781D01*
X142665346Y-102440024D01*
X142650930Y-102455930D01*
X142635024Y-102470346D01*
X142617781Y-102483134D01*
X142599368Y-102494170D01*
X142579962Y-102503349D01*
X142559750Y-102510581D01*
X142538926Y-102515797D01*
X142517691Y-102518947D01*
X142496250Y-102520000D01*
X141983750Y-102520000D01*
X141962309Y-102518947D01*
X141941074Y-102515797D01*
X141920250Y-102510581D01*
X141900038Y-102503349D01*
X141880632Y-102494170D01*
X141862219Y-102483134D01*
X141844976Y-102470346D01*
X141829070Y-102455930D01*
X141814654Y-102440024D01*
X141801866Y-102422781D01*
X141790830Y-102404368D01*
X141781651Y-102384962D01*
X141774419Y-102364750D01*
X141769203Y-102343926D01*
X141766053Y-102322691D01*
X141765000Y-102301250D01*
X141765000Y-101863750D01*
X141766053Y-101842309D01*
X141769203Y-101821074D01*
X141774419Y-101800250D01*
X141781651Y-101780038D01*
X141790830Y-101760632D01*
X141801866Y-101742219D01*
X141814654Y-101724976D01*
X141829070Y-101709070D01*
X141844976Y-101694654D01*
X141862219Y-101681866D01*
X141880632Y-101670830D01*
X141900038Y-101661651D01*
X141920250Y-101654419D01*
X141941074Y-101649203D01*
X141962309Y-101646053D01*
X141983750Y-101645000D01*
X142496250Y-101645000D01*
X142517691Y-101646053D01*
X142517691Y-101646053D01*
G37*
D11*
X142240000Y-102082500D03*
%TD*%
D10*
%TO.C,R3*%
G36*
X145057691Y-101646053D02*
G01*
X145078926Y-101649203D01*
X145099750Y-101654419D01*
X145119962Y-101661651D01*
X145139368Y-101670830D01*
X145157781Y-101681866D01*
X145175024Y-101694654D01*
X145190930Y-101709070D01*
X145205346Y-101724976D01*
X145218134Y-101742219D01*
X145229170Y-101760632D01*
X145238349Y-101780038D01*
X145245581Y-101800250D01*
X145250797Y-101821074D01*
X145253947Y-101842309D01*
X145255000Y-101863750D01*
X145255000Y-102301250D01*
X145253947Y-102322691D01*
X145250797Y-102343926D01*
X145245581Y-102364750D01*
X145238349Y-102384962D01*
X145229170Y-102404368D01*
X145218134Y-102422781D01*
X145205346Y-102440024D01*
X145190930Y-102455930D01*
X145175024Y-102470346D01*
X145157781Y-102483134D01*
X145139368Y-102494170D01*
X145119962Y-102503349D01*
X145099750Y-102510581D01*
X145078926Y-102515797D01*
X145057691Y-102518947D01*
X145036250Y-102520000D01*
X144523750Y-102520000D01*
X144502309Y-102518947D01*
X144481074Y-102515797D01*
X144460250Y-102510581D01*
X144440038Y-102503349D01*
X144420632Y-102494170D01*
X144402219Y-102483134D01*
X144384976Y-102470346D01*
X144369070Y-102455930D01*
X144354654Y-102440024D01*
X144341866Y-102422781D01*
X144330830Y-102404368D01*
X144321651Y-102384962D01*
X144314419Y-102364750D01*
X144309203Y-102343926D01*
X144306053Y-102322691D01*
X144305000Y-102301250D01*
X144305000Y-101863750D01*
X144306053Y-101842309D01*
X144309203Y-101821074D01*
X144314419Y-101800250D01*
X144321651Y-101780038D01*
X144330830Y-101760632D01*
X144341866Y-101742219D01*
X144354654Y-101724976D01*
X144369070Y-101709070D01*
X144384976Y-101694654D01*
X144402219Y-101681866D01*
X144420632Y-101670830D01*
X144440038Y-101661651D01*
X144460250Y-101654419D01*
X144481074Y-101649203D01*
X144502309Y-101646053D01*
X144523750Y-101645000D01*
X145036250Y-101645000D01*
X145057691Y-101646053D01*
X145057691Y-101646053D01*
G37*
D11*
X144780000Y-102082500D03*
D10*
G36*
X145057691Y-103221053D02*
G01*
X145078926Y-103224203D01*
X145099750Y-103229419D01*
X145119962Y-103236651D01*
X145139368Y-103245830D01*
X145157781Y-103256866D01*
X145175024Y-103269654D01*
X145190930Y-103284070D01*
X145205346Y-103299976D01*
X145218134Y-103317219D01*
X145229170Y-103335632D01*
X145238349Y-103355038D01*
X145245581Y-103375250D01*
X145250797Y-103396074D01*
X145253947Y-103417309D01*
X145255000Y-103438750D01*
X145255000Y-103876250D01*
X145253947Y-103897691D01*
X145250797Y-103918926D01*
X145245581Y-103939750D01*
X145238349Y-103959962D01*
X145229170Y-103979368D01*
X145218134Y-103997781D01*
X145205346Y-104015024D01*
X145190930Y-104030930D01*
X145175024Y-104045346D01*
X145157781Y-104058134D01*
X145139368Y-104069170D01*
X145119962Y-104078349D01*
X145099750Y-104085581D01*
X145078926Y-104090797D01*
X145057691Y-104093947D01*
X145036250Y-104095000D01*
X144523750Y-104095000D01*
X144502309Y-104093947D01*
X144481074Y-104090797D01*
X144460250Y-104085581D01*
X144440038Y-104078349D01*
X144420632Y-104069170D01*
X144402219Y-104058134D01*
X144384976Y-104045346D01*
X144369070Y-104030930D01*
X144354654Y-104015024D01*
X144341866Y-103997781D01*
X144330830Y-103979368D01*
X144321651Y-103959962D01*
X144314419Y-103939750D01*
X144309203Y-103918926D01*
X144306053Y-103897691D01*
X144305000Y-103876250D01*
X144305000Y-103438750D01*
X144306053Y-103417309D01*
X144309203Y-103396074D01*
X144314419Y-103375250D01*
X144321651Y-103355038D01*
X144330830Y-103335632D01*
X144341866Y-103317219D01*
X144354654Y-103299976D01*
X144369070Y-103284070D01*
X144384976Y-103269654D01*
X144402219Y-103256866D01*
X144420632Y-103245830D01*
X144440038Y-103236651D01*
X144460250Y-103229419D01*
X144481074Y-103224203D01*
X144502309Y-103221053D01*
X144523750Y-103220000D01*
X145036250Y-103220000D01*
X145057691Y-103221053D01*
X145057691Y-103221053D01*
G37*
D11*
X144780000Y-103657500D03*
%TD*%
D10*
%TO.C,R4*%
G36*
X138707691Y-85136053D02*
G01*
X138728926Y-85139203D01*
X138749750Y-85144419D01*
X138769962Y-85151651D01*
X138789368Y-85160830D01*
X138807781Y-85171866D01*
X138825024Y-85184654D01*
X138840930Y-85199070D01*
X138855346Y-85214976D01*
X138868134Y-85232219D01*
X138879170Y-85250632D01*
X138888349Y-85270038D01*
X138895581Y-85290250D01*
X138900797Y-85311074D01*
X138903947Y-85332309D01*
X138905000Y-85353750D01*
X138905000Y-85791250D01*
X138903947Y-85812691D01*
X138900797Y-85833926D01*
X138895581Y-85854750D01*
X138888349Y-85874962D01*
X138879170Y-85894368D01*
X138868134Y-85912781D01*
X138855346Y-85930024D01*
X138840930Y-85945930D01*
X138825024Y-85960346D01*
X138807781Y-85973134D01*
X138789368Y-85984170D01*
X138769962Y-85993349D01*
X138749750Y-86000581D01*
X138728926Y-86005797D01*
X138707691Y-86008947D01*
X138686250Y-86010000D01*
X138173750Y-86010000D01*
X138152309Y-86008947D01*
X138131074Y-86005797D01*
X138110250Y-86000581D01*
X138090038Y-85993349D01*
X138070632Y-85984170D01*
X138052219Y-85973134D01*
X138034976Y-85960346D01*
X138019070Y-85945930D01*
X138004654Y-85930024D01*
X137991866Y-85912781D01*
X137980830Y-85894368D01*
X137971651Y-85874962D01*
X137964419Y-85854750D01*
X137959203Y-85833926D01*
X137956053Y-85812691D01*
X137955000Y-85791250D01*
X137955000Y-85353750D01*
X137956053Y-85332309D01*
X137959203Y-85311074D01*
X137964419Y-85290250D01*
X137971651Y-85270038D01*
X137980830Y-85250632D01*
X137991866Y-85232219D01*
X138004654Y-85214976D01*
X138019070Y-85199070D01*
X138034976Y-85184654D01*
X138052219Y-85171866D01*
X138070632Y-85160830D01*
X138090038Y-85151651D01*
X138110250Y-85144419D01*
X138131074Y-85139203D01*
X138152309Y-85136053D01*
X138173750Y-85135000D01*
X138686250Y-85135000D01*
X138707691Y-85136053D01*
X138707691Y-85136053D01*
G37*
D11*
X138430000Y-85572500D03*
D10*
G36*
X138707691Y-86711053D02*
G01*
X138728926Y-86714203D01*
X138749750Y-86719419D01*
X138769962Y-86726651D01*
X138789368Y-86735830D01*
X138807781Y-86746866D01*
X138825024Y-86759654D01*
X138840930Y-86774070D01*
X138855346Y-86789976D01*
X138868134Y-86807219D01*
X138879170Y-86825632D01*
X138888349Y-86845038D01*
X138895581Y-86865250D01*
X138900797Y-86886074D01*
X138903947Y-86907309D01*
X138905000Y-86928750D01*
X138905000Y-87366250D01*
X138903947Y-87387691D01*
X138900797Y-87408926D01*
X138895581Y-87429750D01*
X138888349Y-87449962D01*
X138879170Y-87469368D01*
X138868134Y-87487781D01*
X138855346Y-87505024D01*
X138840930Y-87520930D01*
X138825024Y-87535346D01*
X138807781Y-87548134D01*
X138789368Y-87559170D01*
X138769962Y-87568349D01*
X138749750Y-87575581D01*
X138728926Y-87580797D01*
X138707691Y-87583947D01*
X138686250Y-87585000D01*
X138173750Y-87585000D01*
X138152309Y-87583947D01*
X138131074Y-87580797D01*
X138110250Y-87575581D01*
X138090038Y-87568349D01*
X138070632Y-87559170D01*
X138052219Y-87548134D01*
X138034976Y-87535346D01*
X138019070Y-87520930D01*
X138004654Y-87505024D01*
X137991866Y-87487781D01*
X137980830Y-87469368D01*
X137971651Y-87449962D01*
X137964419Y-87429750D01*
X137959203Y-87408926D01*
X137956053Y-87387691D01*
X137955000Y-87366250D01*
X137955000Y-86928750D01*
X137956053Y-86907309D01*
X137959203Y-86886074D01*
X137964419Y-86865250D01*
X137971651Y-86845038D01*
X137980830Y-86825632D01*
X137991866Y-86807219D01*
X138004654Y-86789976D01*
X138019070Y-86774070D01*
X138034976Y-86759654D01*
X138052219Y-86746866D01*
X138070632Y-86735830D01*
X138090038Y-86726651D01*
X138110250Y-86719419D01*
X138131074Y-86714203D01*
X138152309Y-86711053D01*
X138173750Y-86710000D01*
X138686250Y-86710000D01*
X138707691Y-86711053D01*
X138707691Y-86711053D01*
G37*
D11*
X138430000Y-87147500D03*
%TD*%
D10*
%TO.C,R5*%
G36*
X143787691Y-86711053D02*
G01*
X143808926Y-86714203D01*
X143829750Y-86719419D01*
X143849962Y-86726651D01*
X143869368Y-86735830D01*
X143887781Y-86746866D01*
X143905024Y-86759654D01*
X143920930Y-86774070D01*
X143935346Y-86789976D01*
X143948134Y-86807219D01*
X143959170Y-86825632D01*
X143968349Y-86845038D01*
X143975581Y-86865250D01*
X143980797Y-86886074D01*
X143983947Y-86907309D01*
X143985000Y-86928750D01*
X143985000Y-87366250D01*
X143983947Y-87387691D01*
X143980797Y-87408926D01*
X143975581Y-87429750D01*
X143968349Y-87449962D01*
X143959170Y-87469368D01*
X143948134Y-87487781D01*
X143935346Y-87505024D01*
X143920930Y-87520930D01*
X143905024Y-87535346D01*
X143887781Y-87548134D01*
X143869368Y-87559170D01*
X143849962Y-87568349D01*
X143829750Y-87575581D01*
X143808926Y-87580797D01*
X143787691Y-87583947D01*
X143766250Y-87585000D01*
X143253750Y-87585000D01*
X143232309Y-87583947D01*
X143211074Y-87580797D01*
X143190250Y-87575581D01*
X143170038Y-87568349D01*
X143150632Y-87559170D01*
X143132219Y-87548134D01*
X143114976Y-87535346D01*
X143099070Y-87520930D01*
X143084654Y-87505024D01*
X143071866Y-87487781D01*
X143060830Y-87469368D01*
X143051651Y-87449962D01*
X143044419Y-87429750D01*
X143039203Y-87408926D01*
X143036053Y-87387691D01*
X143035000Y-87366250D01*
X143035000Y-86928750D01*
X143036053Y-86907309D01*
X143039203Y-86886074D01*
X143044419Y-86865250D01*
X143051651Y-86845038D01*
X143060830Y-86825632D01*
X143071866Y-86807219D01*
X143084654Y-86789976D01*
X143099070Y-86774070D01*
X143114976Y-86759654D01*
X143132219Y-86746866D01*
X143150632Y-86735830D01*
X143170038Y-86726651D01*
X143190250Y-86719419D01*
X143211074Y-86714203D01*
X143232309Y-86711053D01*
X143253750Y-86710000D01*
X143766250Y-86710000D01*
X143787691Y-86711053D01*
X143787691Y-86711053D01*
G37*
D11*
X143510000Y-87147500D03*
D10*
G36*
X143787691Y-85136053D02*
G01*
X143808926Y-85139203D01*
X143829750Y-85144419D01*
X143849962Y-85151651D01*
X143869368Y-85160830D01*
X143887781Y-85171866D01*
X143905024Y-85184654D01*
X143920930Y-85199070D01*
X143935346Y-85214976D01*
X143948134Y-85232219D01*
X143959170Y-85250632D01*
X143968349Y-85270038D01*
X143975581Y-85290250D01*
X143980797Y-85311074D01*
X143983947Y-85332309D01*
X143985000Y-85353750D01*
X143985000Y-85791250D01*
X143983947Y-85812691D01*
X143980797Y-85833926D01*
X143975581Y-85854750D01*
X143968349Y-85874962D01*
X143959170Y-85894368D01*
X143948134Y-85912781D01*
X143935346Y-85930024D01*
X143920930Y-85945930D01*
X143905024Y-85960346D01*
X143887781Y-85973134D01*
X143869368Y-85984170D01*
X143849962Y-85993349D01*
X143829750Y-86000581D01*
X143808926Y-86005797D01*
X143787691Y-86008947D01*
X143766250Y-86010000D01*
X143253750Y-86010000D01*
X143232309Y-86008947D01*
X143211074Y-86005797D01*
X143190250Y-86000581D01*
X143170038Y-85993349D01*
X143150632Y-85984170D01*
X143132219Y-85973134D01*
X143114976Y-85960346D01*
X143099070Y-85945930D01*
X143084654Y-85930024D01*
X143071866Y-85912781D01*
X143060830Y-85894368D01*
X143051651Y-85874962D01*
X143044419Y-85854750D01*
X143039203Y-85833926D01*
X143036053Y-85812691D01*
X143035000Y-85791250D01*
X143035000Y-85353750D01*
X143036053Y-85332309D01*
X143039203Y-85311074D01*
X143044419Y-85290250D01*
X143051651Y-85270038D01*
X143060830Y-85250632D01*
X143071866Y-85232219D01*
X143084654Y-85214976D01*
X143099070Y-85199070D01*
X143114976Y-85184654D01*
X143132219Y-85171866D01*
X143150632Y-85160830D01*
X143170038Y-85151651D01*
X143190250Y-85144419D01*
X143211074Y-85139203D01*
X143232309Y-85136053D01*
X143253750Y-85135000D01*
X143766250Y-85135000D01*
X143787691Y-85136053D01*
X143787691Y-85136053D01*
G37*
D11*
X143510000Y-85572500D03*
%TD*%
D10*
%TO.C,R6*%
G36*
X141247691Y-85136053D02*
G01*
X141268926Y-85139203D01*
X141289750Y-85144419D01*
X141309962Y-85151651D01*
X141329368Y-85160830D01*
X141347781Y-85171866D01*
X141365024Y-85184654D01*
X141380930Y-85199070D01*
X141395346Y-85214976D01*
X141408134Y-85232219D01*
X141419170Y-85250632D01*
X141428349Y-85270038D01*
X141435581Y-85290250D01*
X141440797Y-85311074D01*
X141443947Y-85332309D01*
X141445000Y-85353750D01*
X141445000Y-85791250D01*
X141443947Y-85812691D01*
X141440797Y-85833926D01*
X141435581Y-85854750D01*
X141428349Y-85874962D01*
X141419170Y-85894368D01*
X141408134Y-85912781D01*
X141395346Y-85930024D01*
X141380930Y-85945930D01*
X141365024Y-85960346D01*
X141347781Y-85973134D01*
X141329368Y-85984170D01*
X141309962Y-85993349D01*
X141289750Y-86000581D01*
X141268926Y-86005797D01*
X141247691Y-86008947D01*
X141226250Y-86010000D01*
X140713750Y-86010000D01*
X140692309Y-86008947D01*
X140671074Y-86005797D01*
X140650250Y-86000581D01*
X140630038Y-85993349D01*
X140610632Y-85984170D01*
X140592219Y-85973134D01*
X140574976Y-85960346D01*
X140559070Y-85945930D01*
X140544654Y-85930024D01*
X140531866Y-85912781D01*
X140520830Y-85894368D01*
X140511651Y-85874962D01*
X140504419Y-85854750D01*
X140499203Y-85833926D01*
X140496053Y-85812691D01*
X140495000Y-85791250D01*
X140495000Y-85353750D01*
X140496053Y-85332309D01*
X140499203Y-85311074D01*
X140504419Y-85290250D01*
X140511651Y-85270038D01*
X140520830Y-85250632D01*
X140531866Y-85232219D01*
X140544654Y-85214976D01*
X140559070Y-85199070D01*
X140574976Y-85184654D01*
X140592219Y-85171866D01*
X140610632Y-85160830D01*
X140630038Y-85151651D01*
X140650250Y-85144419D01*
X140671074Y-85139203D01*
X140692309Y-85136053D01*
X140713750Y-85135000D01*
X141226250Y-85135000D01*
X141247691Y-85136053D01*
X141247691Y-85136053D01*
G37*
D11*
X140970000Y-85572500D03*
D10*
G36*
X141247691Y-86711053D02*
G01*
X141268926Y-86714203D01*
X141289750Y-86719419D01*
X141309962Y-86726651D01*
X141329368Y-86735830D01*
X141347781Y-86746866D01*
X141365024Y-86759654D01*
X141380930Y-86774070D01*
X141395346Y-86789976D01*
X141408134Y-86807219D01*
X141419170Y-86825632D01*
X141428349Y-86845038D01*
X141435581Y-86865250D01*
X141440797Y-86886074D01*
X141443947Y-86907309D01*
X141445000Y-86928750D01*
X141445000Y-87366250D01*
X141443947Y-87387691D01*
X141440797Y-87408926D01*
X141435581Y-87429750D01*
X141428349Y-87449962D01*
X141419170Y-87469368D01*
X141408134Y-87487781D01*
X141395346Y-87505024D01*
X141380930Y-87520930D01*
X141365024Y-87535346D01*
X141347781Y-87548134D01*
X141329368Y-87559170D01*
X141309962Y-87568349D01*
X141289750Y-87575581D01*
X141268926Y-87580797D01*
X141247691Y-87583947D01*
X141226250Y-87585000D01*
X140713750Y-87585000D01*
X140692309Y-87583947D01*
X140671074Y-87580797D01*
X140650250Y-87575581D01*
X140630038Y-87568349D01*
X140610632Y-87559170D01*
X140592219Y-87548134D01*
X140574976Y-87535346D01*
X140559070Y-87520930D01*
X140544654Y-87505024D01*
X140531866Y-87487781D01*
X140520830Y-87469368D01*
X140511651Y-87449962D01*
X140504419Y-87429750D01*
X140499203Y-87408926D01*
X140496053Y-87387691D01*
X140495000Y-87366250D01*
X140495000Y-86928750D01*
X140496053Y-86907309D01*
X140499203Y-86886074D01*
X140504419Y-86865250D01*
X140511651Y-86845038D01*
X140520830Y-86825632D01*
X140531866Y-86807219D01*
X140544654Y-86789976D01*
X140559070Y-86774070D01*
X140574976Y-86759654D01*
X140592219Y-86746866D01*
X140610632Y-86735830D01*
X140630038Y-86726651D01*
X140650250Y-86719419D01*
X140671074Y-86714203D01*
X140692309Y-86711053D01*
X140713750Y-86710000D01*
X141226250Y-86710000D01*
X141247691Y-86711053D01*
X141247691Y-86711053D01*
G37*
D11*
X140970000Y-87147500D03*
%TD*%
D10*
%TO.C,R7*%
G36*
X146327691Y-85136053D02*
G01*
X146348926Y-85139203D01*
X146369750Y-85144419D01*
X146389962Y-85151651D01*
X146409368Y-85160830D01*
X146427781Y-85171866D01*
X146445024Y-85184654D01*
X146460930Y-85199070D01*
X146475346Y-85214976D01*
X146488134Y-85232219D01*
X146499170Y-85250632D01*
X146508349Y-85270038D01*
X146515581Y-85290250D01*
X146520797Y-85311074D01*
X146523947Y-85332309D01*
X146525000Y-85353750D01*
X146525000Y-85791250D01*
X146523947Y-85812691D01*
X146520797Y-85833926D01*
X146515581Y-85854750D01*
X146508349Y-85874962D01*
X146499170Y-85894368D01*
X146488134Y-85912781D01*
X146475346Y-85930024D01*
X146460930Y-85945930D01*
X146445024Y-85960346D01*
X146427781Y-85973134D01*
X146409368Y-85984170D01*
X146389962Y-85993349D01*
X146369750Y-86000581D01*
X146348926Y-86005797D01*
X146327691Y-86008947D01*
X146306250Y-86010000D01*
X145793750Y-86010000D01*
X145772309Y-86008947D01*
X145751074Y-86005797D01*
X145730250Y-86000581D01*
X145710038Y-85993349D01*
X145690632Y-85984170D01*
X145672219Y-85973134D01*
X145654976Y-85960346D01*
X145639070Y-85945930D01*
X145624654Y-85930024D01*
X145611866Y-85912781D01*
X145600830Y-85894368D01*
X145591651Y-85874962D01*
X145584419Y-85854750D01*
X145579203Y-85833926D01*
X145576053Y-85812691D01*
X145575000Y-85791250D01*
X145575000Y-85353750D01*
X145576053Y-85332309D01*
X145579203Y-85311074D01*
X145584419Y-85290250D01*
X145591651Y-85270038D01*
X145600830Y-85250632D01*
X145611866Y-85232219D01*
X145624654Y-85214976D01*
X145639070Y-85199070D01*
X145654976Y-85184654D01*
X145672219Y-85171866D01*
X145690632Y-85160830D01*
X145710038Y-85151651D01*
X145730250Y-85144419D01*
X145751074Y-85139203D01*
X145772309Y-85136053D01*
X145793750Y-85135000D01*
X146306250Y-85135000D01*
X146327691Y-85136053D01*
X146327691Y-85136053D01*
G37*
D11*
X146050000Y-85572500D03*
D10*
G36*
X146327691Y-86711053D02*
G01*
X146348926Y-86714203D01*
X146369750Y-86719419D01*
X146389962Y-86726651D01*
X146409368Y-86735830D01*
X146427781Y-86746866D01*
X146445024Y-86759654D01*
X146460930Y-86774070D01*
X146475346Y-86789976D01*
X146488134Y-86807219D01*
X146499170Y-86825632D01*
X146508349Y-86845038D01*
X146515581Y-86865250D01*
X146520797Y-86886074D01*
X146523947Y-86907309D01*
X146525000Y-86928750D01*
X146525000Y-87366250D01*
X146523947Y-87387691D01*
X146520797Y-87408926D01*
X146515581Y-87429750D01*
X146508349Y-87449962D01*
X146499170Y-87469368D01*
X146488134Y-87487781D01*
X146475346Y-87505024D01*
X146460930Y-87520930D01*
X146445024Y-87535346D01*
X146427781Y-87548134D01*
X146409368Y-87559170D01*
X146389962Y-87568349D01*
X146369750Y-87575581D01*
X146348926Y-87580797D01*
X146327691Y-87583947D01*
X146306250Y-87585000D01*
X145793750Y-87585000D01*
X145772309Y-87583947D01*
X145751074Y-87580797D01*
X145730250Y-87575581D01*
X145710038Y-87568349D01*
X145690632Y-87559170D01*
X145672219Y-87548134D01*
X145654976Y-87535346D01*
X145639070Y-87520930D01*
X145624654Y-87505024D01*
X145611866Y-87487781D01*
X145600830Y-87469368D01*
X145591651Y-87449962D01*
X145584419Y-87429750D01*
X145579203Y-87408926D01*
X145576053Y-87387691D01*
X145575000Y-87366250D01*
X145575000Y-86928750D01*
X145576053Y-86907309D01*
X145579203Y-86886074D01*
X145584419Y-86865250D01*
X145591651Y-86845038D01*
X145600830Y-86825632D01*
X145611866Y-86807219D01*
X145624654Y-86789976D01*
X145639070Y-86774070D01*
X145654976Y-86759654D01*
X145672219Y-86746866D01*
X145690632Y-86735830D01*
X145710038Y-86726651D01*
X145730250Y-86719419D01*
X145751074Y-86714203D01*
X145772309Y-86711053D01*
X145793750Y-86710000D01*
X146306250Y-86710000D01*
X146327691Y-86711053D01*
X146327691Y-86711053D01*
G37*
D11*
X146050000Y-87147500D03*
%TD*%
D10*
%TO.C,R8*%
G36*
X151407691Y-86711053D02*
G01*
X151428926Y-86714203D01*
X151449750Y-86719419D01*
X151469962Y-86726651D01*
X151489368Y-86735830D01*
X151507781Y-86746866D01*
X151525024Y-86759654D01*
X151540930Y-86774070D01*
X151555346Y-86789976D01*
X151568134Y-86807219D01*
X151579170Y-86825632D01*
X151588349Y-86845038D01*
X151595581Y-86865250D01*
X151600797Y-86886074D01*
X151603947Y-86907309D01*
X151605000Y-86928750D01*
X151605000Y-87366250D01*
X151603947Y-87387691D01*
X151600797Y-87408926D01*
X151595581Y-87429750D01*
X151588349Y-87449962D01*
X151579170Y-87469368D01*
X151568134Y-87487781D01*
X151555346Y-87505024D01*
X151540930Y-87520930D01*
X151525024Y-87535346D01*
X151507781Y-87548134D01*
X151489368Y-87559170D01*
X151469962Y-87568349D01*
X151449750Y-87575581D01*
X151428926Y-87580797D01*
X151407691Y-87583947D01*
X151386250Y-87585000D01*
X150873750Y-87585000D01*
X150852309Y-87583947D01*
X150831074Y-87580797D01*
X150810250Y-87575581D01*
X150790038Y-87568349D01*
X150770632Y-87559170D01*
X150752219Y-87548134D01*
X150734976Y-87535346D01*
X150719070Y-87520930D01*
X150704654Y-87505024D01*
X150691866Y-87487781D01*
X150680830Y-87469368D01*
X150671651Y-87449962D01*
X150664419Y-87429750D01*
X150659203Y-87408926D01*
X150656053Y-87387691D01*
X150655000Y-87366250D01*
X150655000Y-86928750D01*
X150656053Y-86907309D01*
X150659203Y-86886074D01*
X150664419Y-86865250D01*
X150671651Y-86845038D01*
X150680830Y-86825632D01*
X150691866Y-86807219D01*
X150704654Y-86789976D01*
X150719070Y-86774070D01*
X150734976Y-86759654D01*
X150752219Y-86746866D01*
X150770632Y-86735830D01*
X150790038Y-86726651D01*
X150810250Y-86719419D01*
X150831074Y-86714203D01*
X150852309Y-86711053D01*
X150873750Y-86710000D01*
X151386250Y-86710000D01*
X151407691Y-86711053D01*
X151407691Y-86711053D01*
G37*
D11*
X151130000Y-87147500D03*
D10*
G36*
X151407691Y-85136053D02*
G01*
X151428926Y-85139203D01*
X151449750Y-85144419D01*
X151469962Y-85151651D01*
X151489368Y-85160830D01*
X151507781Y-85171866D01*
X151525024Y-85184654D01*
X151540930Y-85199070D01*
X151555346Y-85214976D01*
X151568134Y-85232219D01*
X151579170Y-85250632D01*
X151588349Y-85270038D01*
X151595581Y-85290250D01*
X151600797Y-85311074D01*
X151603947Y-85332309D01*
X151605000Y-85353750D01*
X151605000Y-85791250D01*
X151603947Y-85812691D01*
X151600797Y-85833926D01*
X151595581Y-85854750D01*
X151588349Y-85874962D01*
X151579170Y-85894368D01*
X151568134Y-85912781D01*
X151555346Y-85930024D01*
X151540930Y-85945930D01*
X151525024Y-85960346D01*
X151507781Y-85973134D01*
X151489368Y-85984170D01*
X151469962Y-85993349D01*
X151449750Y-86000581D01*
X151428926Y-86005797D01*
X151407691Y-86008947D01*
X151386250Y-86010000D01*
X150873750Y-86010000D01*
X150852309Y-86008947D01*
X150831074Y-86005797D01*
X150810250Y-86000581D01*
X150790038Y-85993349D01*
X150770632Y-85984170D01*
X150752219Y-85973134D01*
X150734976Y-85960346D01*
X150719070Y-85945930D01*
X150704654Y-85930024D01*
X150691866Y-85912781D01*
X150680830Y-85894368D01*
X150671651Y-85874962D01*
X150664419Y-85854750D01*
X150659203Y-85833926D01*
X150656053Y-85812691D01*
X150655000Y-85791250D01*
X150655000Y-85353750D01*
X150656053Y-85332309D01*
X150659203Y-85311074D01*
X150664419Y-85290250D01*
X150671651Y-85270038D01*
X150680830Y-85250632D01*
X150691866Y-85232219D01*
X150704654Y-85214976D01*
X150719070Y-85199070D01*
X150734976Y-85184654D01*
X150752219Y-85171866D01*
X150770632Y-85160830D01*
X150790038Y-85151651D01*
X150810250Y-85144419D01*
X150831074Y-85139203D01*
X150852309Y-85136053D01*
X150873750Y-85135000D01*
X151386250Y-85135000D01*
X151407691Y-85136053D01*
X151407691Y-85136053D01*
G37*
D11*
X151130000Y-85572500D03*
%TD*%
D10*
%TO.C,R9*%
G36*
X148867691Y-85136053D02*
G01*
X148888926Y-85139203D01*
X148909750Y-85144419D01*
X148929962Y-85151651D01*
X148949368Y-85160830D01*
X148967781Y-85171866D01*
X148985024Y-85184654D01*
X149000930Y-85199070D01*
X149015346Y-85214976D01*
X149028134Y-85232219D01*
X149039170Y-85250632D01*
X149048349Y-85270038D01*
X149055581Y-85290250D01*
X149060797Y-85311074D01*
X149063947Y-85332309D01*
X149065000Y-85353750D01*
X149065000Y-85791250D01*
X149063947Y-85812691D01*
X149060797Y-85833926D01*
X149055581Y-85854750D01*
X149048349Y-85874962D01*
X149039170Y-85894368D01*
X149028134Y-85912781D01*
X149015346Y-85930024D01*
X149000930Y-85945930D01*
X148985024Y-85960346D01*
X148967781Y-85973134D01*
X148949368Y-85984170D01*
X148929962Y-85993349D01*
X148909750Y-86000581D01*
X148888926Y-86005797D01*
X148867691Y-86008947D01*
X148846250Y-86010000D01*
X148333750Y-86010000D01*
X148312309Y-86008947D01*
X148291074Y-86005797D01*
X148270250Y-86000581D01*
X148250038Y-85993349D01*
X148230632Y-85984170D01*
X148212219Y-85973134D01*
X148194976Y-85960346D01*
X148179070Y-85945930D01*
X148164654Y-85930024D01*
X148151866Y-85912781D01*
X148140830Y-85894368D01*
X148131651Y-85874962D01*
X148124419Y-85854750D01*
X148119203Y-85833926D01*
X148116053Y-85812691D01*
X148115000Y-85791250D01*
X148115000Y-85353750D01*
X148116053Y-85332309D01*
X148119203Y-85311074D01*
X148124419Y-85290250D01*
X148131651Y-85270038D01*
X148140830Y-85250632D01*
X148151866Y-85232219D01*
X148164654Y-85214976D01*
X148179070Y-85199070D01*
X148194976Y-85184654D01*
X148212219Y-85171866D01*
X148230632Y-85160830D01*
X148250038Y-85151651D01*
X148270250Y-85144419D01*
X148291074Y-85139203D01*
X148312309Y-85136053D01*
X148333750Y-85135000D01*
X148846250Y-85135000D01*
X148867691Y-85136053D01*
X148867691Y-85136053D01*
G37*
D11*
X148590000Y-85572500D03*
D10*
G36*
X148867691Y-86711053D02*
G01*
X148888926Y-86714203D01*
X148909750Y-86719419D01*
X148929962Y-86726651D01*
X148949368Y-86735830D01*
X148967781Y-86746866D01*
X148985024Y-86759654D01*
X149000930Y-86774070D01*
X149015346Y-86789976D01*
X149028134Y-86807219D01*
X149039170Y-86825632D01*
X149048349Y-86845038D01*
X149055581Y-86865250D01*
X149060797Y-86886074D01*
X149063947Y-86907309D01*
X149065000Y-86928750D01*
X149065000Y-87366250D01*
X149063947Y-87387691D01*
X149060797Y-87408926D01*
X149055581Y-87429750D01*
X149048349Y-87449962D01*
X149039170Y-87469368D01*
X149028134Y-87487781D01*
X149015346Y-87505024D01*
X149000930Y-87520930D01*
X148985024Y-87535346D01*
X148967781Y-87548134D01*
X148949368Y-87559170D01*
X148929962Y-87568349D01*
X148909750Y-87575581D01*
X148888926Y-87580797D01*
X148867691Y-87583947D01*
X148846250Y-87585000D01*
X148333750Y-87585000D01*
X148312309Y-87583947D01*
X148291074Y-87580797D01*
X148270250Y-87575581D01*
X148250038Y-87568349D01*
X148230632Y-87559170D01*
X148212219Y-87548134D01*
X148194976Y-87535346D01*
X148179070Y-87520930D01*
X148164654Y-87505024D01*
X148151866Y-87487781D01*
X148140830Y-87469368D01*
X148131651Y-87449962D01*
X148124419Y-87429750D01*
X148119203Y-87408926D01*
X148116053Y-87387691D01*
X148115000Y-87366250D01*
X148115000Y-86928750D01*
X148116053Y-86907309D01*
X148119203Y-86886074D01*
X148124419Y-86865250D01*
X148131651Y-86845038D01*
X148140830Y-86825632D01*
X148151866Y-86807219D01*
X148164654Y-86789976D01*
X148179070Y-86774070D01*
X148194976Y-86759654D01*
X148212219Y-86746866D01*
X148230632Y-86735830D01*
X148250038Y-86726651D01*
X148270250Y-86719419D01*
X148291074Y-86714203D01*
X148312309Y-86711053D01*
X148333750Y-86710000D01*
X148846250Y-86710000D01*
X148867691Y-86711053D01*
X148867691Y-86711053D01*
G37*
D11*
X148590000Y-87147500D03*
%TD*%
D14*
%TO.C,U1*%
X139700000Y-97696000D03*
X140970000Y-97696000D03*
X142240000Y-97696000D03*
X143510000Y-97696000D03*
X144780000Y-97696000D03*
X146050000Y-97696000D03*
X147320000Y-97696000D03*
X147320000Y-92296000D03*
X146050000Y-92296000D03*
X144780000Y-92296000D03*
X143510000Y-92296000D03*
X142240000Y-92296000D03*
X140970000Y-92296000D03*
X139700000Y-92296000D03*
%TD*%
M02*
