%TF.GenerationSoftware,KiCad,Pcbnew,(5.1.0)-1*%
%TF.CreationDate,2019-10-25T10:12:22-05:00*%
%TF.ProjectId,wenk_sao,77656e6b-5f73-4616-9f2e-6b696361645f,v01*%
%TF.SameCoordinates,Original*%
%TF.FileFunction,Profile,NP*%
%FSLAX46Y46*%
G04 Gerber Fmt 4.6, Leading zero omitted, Abs format (unit mm)*
G04 Created by KiCad (PCBNEW (5.1.0)-1) date 2019-10-25 10:12:22*
%MOMM*%
%LPD*%
G04 APERTURE LIST*
%ADD10C,0.200000*%
G04 APERTURE END LIST*
D10*
X151359117Y-63398274D02*
X151359122Y-63398644D01*
X154846263Y-63728714D02*
X154676074Y-63696502D01*
X154676074Y-63696502D02*
X154503042Y-63668831D01*
X154503042Y-63668831D02*
X154321241Y-63643047D01*
X154321241Y-63643047D02*
X154142298Y-63619938D01*
X154142298Y-63619938D02*
X153958510Y-63597958D01*
X153958510Y-63597958D02*
X153776692Y-63577607D01*
X153776692Y-63577607D02*
X153592968Y-63558213D01*
X153592968Y-63558213D02*
X153408707Y-63539790D01*
X153408707Y-63539790D02*
X153221946Y-63522046D01*
X153221946Y-63522046D02*
X153036830Y-63505309D01*
X153036830Y-63505309D02*
X152846626Y-63488941D01*
X152846626Y-63488941D02*
X152659242Y-63473620D01*
X152659242Y-63473620D02*
X152468513Y-63458851D01*
X152468513Y-63458851D02*
X152277064Y-63444900D01*
X152277064Y-63444900D02*
X152088043Y-63432075D01*
X152088043Y-63432075D02*
X151898701Y-63420335D01*
X151898701Y-63420335D02*
X151704130Y-63409766D01*
X151704130Y-63409766D02*
X151509241Y-63401496D01*
X151509241Y-63401496D02*
X151359117Y-63398274D01*
X160804693Y-66326154D02*
X160689148Y-66241450D01*
X160689148Y-66241450D02*
X160572048Y-66157257D01*
X160572048Y-66157257D02*
X160452060Y-66072709D01*
X160452060Y-66072709D02*
X160333016Y-65990538D01*
X160333016Y-65990538D02*
X160213598Y-65909814D01*
X160213598Y-65909814D02*
X160092469Y-65829672D01*
X160092469Y-65829672D02*
X159969583Y-65750146D01*
X159969583Y-65750146D02*
X159843578Y-65670444D01*
X159843578Y-65670444D02*
X159715047Y-65591047D01*
X159715047Y-65591047D02*
X159588570Y-65514783D01*
X159588570Y-65514783D02*
X159460817Y-65439603D01*
X159460817Y-65439603D02*
X159332410Y-65365891D01*
X159332410Y-65365891D02*
X159199943Y-65291771D01*
X159199943Y-65291771D02*
X159068072Y-65219899D01*
X159068072Y-65219899D02*
X158936782Y-65150209D01*
X158936782Y-65150209D02*
X158802631Y-65080894D01*
X158802631Y-65080894D02*
X158666923Y-65012688D01*
X158666923Y-65012688D02*
X158524037Y-64942916D01*
X158524037Y-64942916D02*
X158380109Y-64874711D01*
X158380109Y-64874711D02*
X158239337Y-64809975D01*
X158239337Y-64809975D02*
X158100348Y-64747928D01*
X158100348Y-64747928D02*
X157952408Y-64683885D01*
X157952408Y-64683885D02*
X157803243Y-64621347D01*
X157803243Y-64621347D02*
X157652081Y-64560006D01*
X157652081Y-64560006D02*
X157501803Y-64501002D01*
X157501803Y-64501002D02*
X157356131Y-64445635D01*
X157356131Y-64445635D02*
X157208446Y-64391296D01*
X157208446Y-64391296D02*
X157057928Y-64337718D01*
X157057928Y-64337718D02*
X156908314Y-64286214D01*
X156908314Y-64286214D02*
X156754238Y-64234949D01*
X156754238Y-64234949D02*
X156601791Y-64185944D01*
X156601791Y-64185944D02*
X156446316Y-64137673D01*
X156446316Y-64137673D02*
X156285346Y-64089453D01*
X156285346Y-64089453D02*
X156124331Y-64042952D01*
X156124331Y-64042952D02*
X155963276Y-63998111D01*
X155963276Y-63998111D02*
X155802190Y-63954880D01*
X155802190Y-63954880D02*
X155642742Y-63913629D01*
X155642742Y-63913629D02*
X155479147Y-63872840D01*
X155479147Y-63872840D02*
X155315511Y-63833544D01*
X155315511Y-63833544D02*
X155150994Y-63795496D01*
X155150994Y-63795496D02*
X154983005Y-63758102D01*
X154983005Y-63758102D02*
X154846263Y-63728714D01*
X163720885Y-69262624D02*
X163634060Y-69148806D01*
X163634060Y-69148806D02*
X163543824Y-69035230D01*
X163543824Y-69035230D02*
X163453397Y-68925004D01*
X163453397Y-68925004D02*
X163359649Y-68813695D01*
X163359649Y-68813695D02*
X163266142Y-68705135D01*
X163266142Y-68705135D02*
X163171249Y-68597083D01*
X163171249Y-68597083D02*
X163074240Y-68488530D01*
X163074240Y-68488530D02*
X162975612Y-68379914D01*
X162975612Y-68379914D02*
X162878848Y-68274896D01*
X162878848Y-68274896D02*
X162781495Y-68170651D01*
X162781495Y-68170651D02*
X162683931Y-68067500D01*
X162683931Y-68067500D02*
X162584920Y-67964094D01*
X162584920Y-67964094D02*
X162481542Y-67857434D01*
X162481542Y-67857434D02*
X162378828Y-67752732D01*
X162378828Y-67752732D02*
X162277101Y-67650253D01*
X162277101Y-67650253D02*
X162171795Y-67545428D01*
X162171795Y-67545428D02*
X162068050Y-67443404D01*
X162068050Y-67443404D02*
X161964536Y-67342853D01*
X161964536Y-67342853D02*
X161859936Y-67242535D01*
X161859936Y-67242535D02*
X161754580Y-67142840D01*
X161754580Y-67142840D02*
X161650398Y-67045645D01*
X161650398Y-67045645D02*
X161544621Y-66948456D01*
X161544621Y-66948456D02*
X161437745Y-66851898D01*
X161437745Y-66851898D02*
X161330340Y-66756667D01*
X161330340Y-66756667D02*
X161223043Y-66663539D01*
X161223043Y-66663539D02*
X161113822Y-66571074D01*
X161113822Y-66571074D02*
X161003853Y-66480736D01*
X161003853Y-66480736D02*
X160892042Y-66392300D01*
X160892042Y-66392300D02*
X160804693Y-66326154D01*
X167474050Y-77506383D02*
X167429157Y-77345743D01*
X167429157Y-77345743D02*
X167384776Y-77189084D01*
X167384776Y-77189084D02*
X167337976Y-77026188D01*
X167337976Y-77026188D02*
X167291664Y-76867287D01*
X167291664Y-76867287D02*
X167245102Y-76709807D01*
X167245102Y-76709807D02*
X167196795Y-76548803D01*
X167196795Y-76548803D02*
X167149705Y-76394164D01*
X167149705Y-76394164D02*
X167101591Y-76238482D01*
X167101591Y-76238482D02*
X167048638Y-76069806D01*
X167048638Y-76069806D02*
X166999534Y-75915849D01*
X166999534Y-75915849D02*
X166948199Y-75757394D01*
X166948199Y-75757394D02*
X166895365Y-75596923D01*
X166895365Y-75596923D02*
X166844111Y-75443750D01*
X166844111Y-75443750D02*
X166793298Y-75294267D01*
X166793298Y-75294267D02*
X166739769Y-75139318D01*
X166739769Y-75139318D02*
X166686650Y-74988062D01*
X166686650Y-74988062D02*
X166633948Y-74840415D01*
X166633948Y-74840415D02*
X166580059Y-74691888D01*
X166580059Y-74691888D02*
X166525770Y-74544709D01*
X166525770Y-74544709D02*
X166468613Y-74392358D01*
X166468613Y-74392358D02*
X166410171Y-74239288D01*
X166410171Y-74239288D02*
X166353751Y-74094042D01*
X166353751Y-74094042D02*
X166296461Y-73949051D01*
X166296461Y-73949051D02*
X166236164Y-73799102D01*
X166236164Y-73799102D02*
X166176206Y-73652621D01*
X166176206Y-73652621D02*
X166116598Y-73509531D01*
X166116598Y-73509531D02*
X166054308Y-73362642D01*
X166054308Y-73362642D02*
X165991022Y-73216094D01*
X165991022Y-73216094D02*
X165928933Y-73074882D01*
X165928933Y-73074882D02*
X165866290Y-72934920D01*
X165866290Y-72934920D02*
X165803083Y-72796185D01*
X165803083Y-72796185D02*
X165737030Y-72653800D01*
X165737030Y-72653800D02*
X165672184Y-72516532D01*
X165672184Y-72516532D02*
X165607201Y-72381396D01*
X165607201Y-72381396D02*
X165534597Y-72233207D01*
X165534597Y-72233207D02*
X165466442Y-72096693D01*
X165466442Y-72096693D02*
X165394761Y-71955755D01*
X165394761Y-71955755D02*
X165325241Y-71821570D01*
X165325241Y-71821570D02*
X165255524Y-71689404D01*
X165255524Y-71689404D02*
X165183156Y-71554678D01*
X165183156Y-71554678D02*
X165111542Y-71423751D01*
X165111542Y-71423751D02*
X165039210Y-71293855D01*
X165039210Y-71293855D02*
X164965643Y-71164080D01*
X164965643Y-71164080D02*
X164890818Y-71034429D01*
X164890818Y-71034429D02*
X164816253Y-70907504D01*
X164816253Y-70907504D02*
X164735704Y-70772862D01*
X164735704Y-70772862D02*
X164655859Y-70641835D01*
X164655859Y-70641835D02*
X164575150Y-70511780D01*
X164575150Y-70511780D02*
X164495724Y-70386055D01*
X164495724Y-70386055D02*
X164411644Y-70255320D01*
X164411644Y-70255320D02*
X164331590Y-70133019D01*
X164331590Y-70133019D02*
X164247906Y-70007366D01*
X164247906Y-70007366D02*
X164166694Y-69887485D01*
X164166694Y-69887485D02*
X164081782Y-69764242D01*
X164081782Y-69764242D02*
X163998823Y-69645832D01*
X163998823Y-69645832D02*
X163911504Y-69523253D01*
X163911504Y-69523253D02*
X163822634Y-69400585D01*
X163822634Y-69400585D02*
X163733968Y-69280219D01*
X163733968Y-69280219D02*
X163720885Y-69262624D01*
X169878573Y-93642403D02*
X169865982Y-93452230D01*
X169865982Y-93452230D02*
X169853158Y-93262577D01*
X169853158Y-93262577D02*
X169839935Y-93071113D01*
X169839935Y-93071113D02*
X169825804Y-92870885D01*
X169825804Y-92870885D02*
X169811071Y-92666615D01*
X169811071Y-92666615D02*
X169796231Y-92465281D01*
X169796231Y-92465281D02*
X169782171Y-92278384D01*
X169782171Y-92278384D02*
X169767342Y-92085130D01*
X169767342Y-92085130D02*
X169751899Y-91887876D01*
X169751899Y-91887876D02*
X169734901Y-91675252D01*
X169734901Y-91675252D02*
X169719475Y-91486099D01*
X169719475Y-91486099D02*
X169703992Y-91299789D01*
X169703992Y-91299789D02*
X169687883Y-91109516D01*
X169687883Y-91109516D02*
X169671526Y-90919843D01*
X169671526Y-90919843D02*
X169654920Y-90730766D01*
X169654920Y-90730766D02*
X169638065Y-90542289D01*
X169638065Y-90542289D02*
X169620142Y-90345488D01*
X169620142Y-90345488D02*
X169602779Y-90158256D01*
X169602779Y-90158256D02*
X169583479Y-89953892D01*
X169583479Y-89953892D02*
X169565170Y-89763521D01*
X169565170Y-89763521D02*
X169547256Y-89580408D01*
X169547256Y-89580408D02*
X169528220Y-89389119D01*
X169528220Y-89389119D02*
X169508699Y-89196313D01*
X169508699Y-89196313D02*
X169489362Y-89008556D01*
X169489362Y-89008556D02*
X169469308Y-88817113D01*
X169469308Y-88817113D02*
X169448754Y-88624205D01*
X169448754Y-88624205D02*
X169428872Y-88440637D01*
X169428872Y-88440637D02*
X169408975Y-88259870D01*
X169408975Y-88259870D02*
X169387874Y-88071186D01*
X169387874Y-88071186D02*
X169366752Y-87885348D01*
X169366752Y-87885348D02*
X169345369Y-87700204D01*
X169345369Y-87700204D02*
X169323979Y-87517877D01*
X169323979Y-87517877D02*
X169301831Y-87332026D01*
X169301831Y-87332026D02*
X169278394Y-87138498D01*
X169278394Y-87138498D02*
X169256484Y-86960407D01*
X169256484Y-86960407D02*
X169233808Y-86778831D01*
X169233808Y-86778831D02*
X169210078Y-86591750D01*
X169210078Y-86591750D02*
X169187149Y-86413706D01*
X169187149Y-86413706D02*
X169162344Y-86224026D01*
X169162344Y-86224026D02*
X169138900Y-86047456D01*
X169138900Y-86047456D02*
X169111883Y-85847120D01*
X169111883Y-85847120D02*
X169085667Y-85655842D01*
X169085667Y-85655842D02*
X169060289Y-85473511D01*
X169060289Y-85473511D02*
X169033497Y-85283930D01*
X169033497Y-85283930D02*
X169005250Y-85087212D01*
X169005250Y-85087212D02*
X168977858Y-84899420D01*
X168977858Y-84899420D02*
X168951656Y-84722432D01*
X168951656Y-84722432D02*
X168925190Y-84546238D01*
X168925190Y-84546238D02*
X168897859Y-84366910D01*
X168897859Y-84366910D02*
X168870257Y-84188423D01*
X168870257Y-84188423D02*
X168842691Y-84012724D01*
X168842691Y-84012724D02*
X168812995Y-83826229D01*
X168812995Y-83826229D02*
X168783627Y-83644535D01*
X168783627Y-83644535D02*
X168755240Y-83471432D01*
X168755240Y-83471432D02*
X168723387Y-83280078D01*
X168723387Y-83280078D02*
X168694123Y-83106855D01*
X168694123Y-83106855D02*
X168663285Y-82926943D01*
X168663285Y-82926943D02*
X168631168Y-82742348D01*
X168631168Y-82742348D02*
X168600737Y-82569978D01*
X168600737Y-82569978D02*
X168570033Y-82398508D01*
X168570033Y-82398508D02*
X168539055Y-82227943D01*
X168539055Y-82227943D02*
X168507810Y-82058288D01*
X168507810Y-82058288D02*
X168474919Y-81882230D01*
X168474919Y-81882230D02*
X168441735Y-81707171D01*
X168441735Y-81707171D02*
X168408957Y-81536729D01*
X168408957Y-81536729D02*
X168375194Y-81363661D01*
X168375194Y-81363661D02*
X168341139Y-81191604D01*
X168341139Y-81191604D02*
X168306794Y-81020566D01*
X168306794Y-81020566D02*
X168272522Y-80852315D01*
X168272522Y-80852315D02*
X168237236Y-80681560D01*
X168237236Y-80681560D02*
X168202023Y-80513601D01*
X168202023Y-80513601D02*
X168166523Y-80346680D01*
X168166523Y-80346680D02*
X168128490Y-80170467D01*
X168128490Y-80170467D02*
X168089381Y-79992017D01*
X168089381Y-79992017D02*
X168052978Y-79828386D01*
X168052978Y-79828386D02*
X168014759Y-79659062D01*
X168014759Y-79659062D02*
X167973522Y-79479157D01*
X167973522Y-79479157D02*
X167934275Y-79310560D01*
X167934275Y-79310560D02*
X167893539Y-79138194D01*
X167893539Y-79138194D02*
X167854052Y-78973645D01*
X167854052Y-78973645D02*
X167811068Y-78797252D01*
X167811068Y-78797252D02*
X167770145Y-78631923D01*
X167770145Y-78631923D02*
X167728094Y-78464619D01*
X167728094Y-78464619D02*
X167683262Y-78289066D01*
X167683262Y-78289066D02*
X167640539Y-78124418D01*
X167640539Y-78124418D02*
X167598736Y-77965762D01*
X167598736Y-77965762D02*
X167554538Y-77800579D01*
X167554538Y-77800579D02*
X167508737Y-77632141D01*
X167508737Y-77632141D02*
X167474050Y-77506383D01*
X170033542Y-95981143D02*
X170019685Y-95774457D01*
X170019685Y-95774457D02*
X170006925Y-95583430D01*
X170006925Y-95583430D02*
X169992969Y-95373987D01*
X169992969Y-95373987D02*
X169978088Y-95150177D01*
X169978088Y-95150177D02*
X169963867Y-94935875D01*
X169963867Y-94935875D02*
X169949296Y-94715971D01*
X169949296Y-94715971D02*
X169935929Y-94513883D01*
X169935929Y-94513883D02*
X169922605Y-94312125D01*
X169922605Y-94312125D02*
X169909481Y-94113038D01*
X169909481Y-94113038D02*
X169896714Y-93918966D01*
X169896714Y-93918966D02*
X169882082Y-93695996D01*
X169882082Y-93695996D02*
X169878573Y-93642403D01*
X170086382Y-104487901D02*
X170110471Y-104308237D01*
X170110471Y-104308237D02*
X170114279Y-104109489D01*
X170114279Y-104109489D02*
X170116695Y-103911174D01*
X170116695Y-103911174D02*
X170118373Y-103708049D01*
X170118373Y-103708049D02*
X170119502Y-103507566D01*
X170119502Y-103507566D02*
X170120274Y-103296054D01*
X170120274Y-103296054D02*
X170120705Y-103091537D01*
X170120705Y-103091537D02*
X170120875Y-102891022D01*
X170120875Y-102891022D02*
X170120835Y-102686917D01*
X170120835Y-102686917D02*
X170120597Y-102475170D01*
X170120597Y-102475170D02*
X170120162Y-102256499D01*
X170120162Y-102256499D02*
X170119605Y-102054375D01*
X170119605Y-102054375D02*
X170118898Y-101847758D01*
X170118898Y-101847758D02*
X170118045Y-101637175D01*
X170118045Y-101637175D02*
X170117045Y-101423154D01*
X170117045Y-101423154D02*
X170115904Y-101206221D01*
X170115904Y-101206221D02*
X170114625Y-100986904D01*
X170114625Y-100986904D02*
X170113209Y-100765729D01*
X170113209Y-100765729D02*
X170111663Y-100543225D01*
X170111663Y-100543225D02*
X170109985Y-100319918D01*
X170109985Y-100319918D02*
X170108185Y-100096337D01*
X170108185Y-100096337D02*
X170106481Y-99897793D01*
X170106481Y-99897793D02*
X170104454Y-99675131D01*
X170104454Y-99675131D02*
X170102494Y-99472109D01*
X170102494Y-99472109D02*
X170100374Y-99264460D01*
X170100374Y-99264460D02*
X170098222Y-99064814D01*
X170098222Y-99064814D02*
X170095877Y-98858540D01*
X170095877Y-98858540D02*
X170093473Y-98658143D01*
X170093473Y-98658143D02*
X170090869Y-98452450D01*
X170090869Y-98452450D02*
X170088053Y-98242459D01*
X170088053Y-98242459D02*
X170084977Y-98026589D01*
X170084977Y-98026589D02*
X170081960Y-97827586D01*
X170081960Y-97827586D02*
X170078683Y-97624569D01*
X170078683Y-97624569D02*
X170075084Y-97416887D01*
X170075084Y-97416887D02*
X170071405Y-97219765D01*
X170071405Y-97219765D02*
X170067417Y-97022821D01*
X170067417Y-97022821D02*
X170063015Y-96824718D01*
X170063015Y-96824718D02*
X170057983Y-96622242D01*
X170057983Y-96622242D02*
X170052420Y-96427005D01*
X170052420Y-96427005D02*
X170045682Y-96229918D01*
X170045682Y-96229918D02*
X170037019Y-96038508D01*
X170037019Y-96038508D02*
X170033542Y-95981143D01*
X170120662Y-109648562D02*
X170121080Y-109444168D01*
X170121080Y-109444168D02*
X170121119Y-109224452D01*
X170121119Y-109224452D02*
X170120768Y-109006659D01*
X170120768Y-109006659D02*
X170120063Y-108788335D01*
X170120063Y-108788335D02*
X170119044Y-108569498D01*
X170119044Y-108569498D02*
X170117874Y-108370125D01*
X170117874Y-108370125D02*
X170116494Y-108170348D01*
X170116494Y-108170348D02*
X170114936Y-107970182D01*
X170114936Y-107970182D02*
X170113137Y-107759604D01*
X170113137Y-107759604D02*
X170111293Y-107558675D01*
X170111293Y-107558675D02*
X170109350Y-107357392D01*
X170109350Y-107357392D02*
X170107334Y-107155765D01*
X170107334Y-107155765D02*
X170104229Y-106852712D01*
X170104229Y-106852712D02*
X170102024Y-106638866D01*
X170102024Y-106638866D02*
X170099976Y-106437377D01*
X170099976Y-106437377D02*
X170097907Y-106229245D01*
X170097907Y-106229245D02*
X170095964Y-106025904D01*
X170095964Y-106025904D02*
X170094109Y-105821021D01*
X170094109Y-105821021D02*
X170092343Y-105610778D01*
X170092343Y-105610778D02*
X170090796Y-105408567D01*
X170090796Y-105408567D02*
X170089444Y-105208681D01*
X170089444Y-105208681D02*
X170088192Y-104990031D01*
X170088192Y-104990031D02*
X170087275Y-104789064D01*
X170087275Y-104789064D02*
X170086603Y-104585342D01*
X170086603Y-104585342D02*
X170086382Y-104487901D01*
X170128862Y-113054612D02*
X170130025Y-112855566D01*
X170130025Y-112855566D02*
X170131180Y-112632149D01*
X170131180Y-112632149D02*
X170132080Y-112431443D01*
X170132080Y-112431443D02*
X170132858Y-112226099D01*
X170132858Y-112226099D02*
X170133496Y-112017060D01*
X170133496Y-112017060D02*
X170133974Y-111805369D01*
X170133974Y-111805369D02*
X170134280Y-111584131D01*
X170134280Y-111584131D02*
X170134372Y-111371075D01*
X170134372Y-111371075D02*
X170134246Y-111159293D01*
X170134246Y-111159293D02*
X170133898Y-110957408D01*
X170133898Y-110957408D02*
X170133286Y-110752723D01*
X170133286Y-110752723D02*
X170132380Y-110551487D01*
X170132380Y-110551487D02*
X170131114Y-110351618D01*
X170131114Y-110351618D02*
X170129313Y-110145885D01*
X170129313Y-110145885D02*
X170126881Y-109947429D01*
X170126881Y-109947429D02*
X170123335Y-109750269D01*
X170123335Y-109750269D02*
X170120662Y-109648562D01*
X169703591Y-119018872D02*
X169741918Y-118821982D01*
X169741918Y-118821982D02*
X169776679Y-118643171D01*
X169776679Y-118643171D02*
X169809152Y-118475105D01*
X169809152Y-118475105D02*
X169841697Y-118304610D01*
X169841697Y-118304610D02*
X169874288Y-118130214D01*
X169874288Y-118130214D02*
X169906004Y-117954688D01*
X169906004Y-117954688D02*
X169935751Y-117781644D01*
X169935751Y-117781644D02*
X169963975Y-117605461D01*
X169963975Y-117605461D02*
X169989536Y-117429938D01*
X169989536Y-117429938D02*
X170012448Y-117252044D01*
X170012448Y-117252044D02*
X170032749Y-117068304D01*
X170032749Y-117068304D02*
X170049744Y-116884048D01*
X170049744Y-116884048D02*
X170064109Y-116693197D01*
X170064109Y-116693197D02*
X170075531Y-116504354D01*
X170075531Y-116504354D02*
X170084860Y-116311143D01*
X170084860Y-116311143D02*
X170092367Y-116115552D01*
X170092367Y-116115552D02*
X170098404Y-115918012D01*
X170098404Y-115918012D02*
X170103367Y-115714895D01*
X170103367Y-115714895D02*
X170107254Y-115518008D01*
X170107254Y-115518008D02*
X170110506Y-115317287D01*
X170110506Y-115317287D02*
X170113279Y-115110766D01*
X170113279Y-115110766D02*
X170115618Y-114903803D01*
X170115618Y-114903803D02*
X170117590Y-114700934D01*
X170117590Y-114700934D02*
X170119303Y-114500937D01*
X170119303Y-114500937D02*
X170121007Y-114279206D01*
X170121007Y-114279206D02*
X170122523Y-114063505D01*
X170122523Y-114063505D02*
X170123885Y-113857260D01*
X170123885Y-113857260D02*
X170125183Y-113652244D01*
X170125183Y-113652244D02*
X170126505Y-113438566D01*
X170126505Y-113438566D02*
X170128009Y-113193220D01*
X170128009Y-113193220D02*
X170128862Y-113054612D01*
X164460374Y-125527321D02*
X164644431Y-125466381D01*
X164644431Y-125466381D02*
X164795043Y-125413060D01*
X164795043Y-125413060D02*
X164959367Y-125351156D01*
X164959367Y-125351156D02*
X165109260Y-125291133D01*
X165109260Y-125291133D02*
X165252979Y-125230232D01*
X165252979Y-125230232D02*
X165394511Y-125166910D01*
X165394511Y-125166910D02*
X165536656Y-125099802D01*
X165536656Y-125099802D02*
X165671926Y-125032507D01*
X165671926Y-125032507D02*
X165809596Y-124960415D01*
X165809596Y-124960415D02*
X165938772Y-124889302D01*
X165938772Y-124889302D02*
X166069384Y-124813804D01*
X166069384Y-124813804D02*
X166195241Y-124737464D01*
X166195241Y-124737464D02*
X166327471Y-124653261D01*
X166327471Y-124653261D02*
X166448185Y-124572622D01*
X166448185Y-124572622D02*
X166566849Y-124489657D01*
X166566849Y-124489657D02*
X166683464Y-124404366D01*
X166683464Y-124404366D02*
X166798033Y-124316745D01*
X166798033Y-124316745D02*
X166910559Y-124226787D01*
X166910559Y-124226787D02*
X167020284Y-124135140D01*
X167020284Y-124135140D02*
X167129492Y-124039854D01*
X167129492Y-124039854D02*
X167241026Y-123938102D01*
X167241026Y-123938102D02*
X167368916Y-123815540D01*
X167368916Y-123815540D02*
X167470704Y-123713207D01*
X167470704Y-123713207D02*
X167570462Y-123608521D01*
X167570462Y-123608521D02*
X167668195Y-123501475D01*
X167668195Y-123501475D02*
X167763250Y-123392837D01*
X167763250Y-123392837D02*
X167855027Y-123283437D01*
X167855027Y-123283437D02*
X167944867Y-123171763D01*
X167944867Y-123171763D02*
X168034011Y-123056186D01*
X168034011Y-123056186D02*
X168121773Y-122937435D01*
X168121773Y-122937435D02*
X168205173Y-122819705D01*
X168205173Y-122819705D02*
X168286676Y-122699725D01*
X168286676Y-122699725D02*
X168368530Y-122573966D01*
X168368530Y-122573966D02*
X168446193Y-122449412D01*
X168446193Y-122449412D02*
X168521430Y-122323513D01*
X168521430Y-122323513D02*
X168597936Y-122189802D01*
X168597936Y-122189802D02*
X168669883Y-122058399D01*
X168669883Y-122058399D02*
X168739948Y-121924729D01*
X168739948Y-121924729D02*
X168813891Y-121777029D01*
X168813891Y-121777029D02*
X168880041Y-121638619D01*
X168880041Y-121638619D02*
X168949736Y-121485768D01*
X168949736Y-121485768D02*
X169015478Y-121334356D01*
X169015478Y-121334356D02*
X169075740Y-121188778D01*
X169075740Y-121188778D02*
X169132495Y-121045173D01*
X169132495Y-121045173D02*
X169187491Y-120899408D01*
X169187491Y-120899408D02*
X169240728Y-120751479D01*
X169240728Y-120751479D02*
X169293323Y-120598051D01*
X169293323Y-120598051D02*
X169343371Y-120444612D01*
X169343371Y-120444612D02*
X169391298Y-120290118D01*
X169391298Y-120290118D02*
X169437474Y-120133447D01*
X169437474Y-120133447D02*
X169481903Y-119974602D01*
X169481903Y-119974602D02*
X169524589Y-119813578D01*
X169524589Y-119813578D02*
X169571406Y-119626185D01*
X169571406Y-119626185D02*
X169610353Y-119460472D01*
X169610353Y-119460472D02*
X169646761Y-119296300D01*
X169646761Y-119296300D02*
X169681763Y-119128774D01*
X169681763Y-119128774D02*
X169703591Y-119018872D01*
X160228022Y-126414421D02*
X160404601Y-126385053D01*
X160404601Y-126385053D02*
X160578437Y-126355506D01*
X160578437Y-126355506D02*
X160753853Y-126325084D01*
X160753853Y-126325084D02*
X160930430Y-126293876D01*
X160930430Y-126293876D02*
X161117614Y-126260178D01*
X161117614Y-126260178D02*
X161295266Y-126227628D01*
X161295266Y-126227628D02*
X161465413Y-126195948D01*
X161465413Y-126195948D02*
X161639991Y-126162932D01*
X161639991Y-126162932D02*
X161818542Y-126128635D01*
X161818542Y-126128635D02*
X161988458Y-126095494D01*
X161988458Y-126095494D02*
X162161490Y-126061237D01*
X162161490Y-126061237D02*
X162334702Y-126026416D01*
X162334702Y-126026416D02*
X162502924Y-125992074D01*
X162502924Y-125992074D02*
X162677210Y-125955925D01*
X162677210Y-125955925D02*
X162847643Y-125919976D01*
X162847643Y-125919976D02*
X163013730Y-125884335D01*
X163013730Y-125884335D02*
X163181239Y-125847722D01*
X163181239Y-125847722D02*
X163346985Y-125810763D01*
X163346985Y-125810763D02*
X163509902Y-125773633D01*
X163509902Y-125773633D02*
X163676086Y-125734798D01*
X163676086Y-125734798D02*
X163837795Y-125695898D01*
X163837795Y-125695898D02*
X163999377Y-125655655D01*
X163999377Y-125655655D02*
X164159710Y-125613927D01*
X164159710Y-125613927D02*
X164316675Y-125570570D01*
X164316675Y-125570570D02*
X164460374Y-125527321D01*
X155807136Y-126844051D02*
X155994404Y-126830276D01*
X155994404Y-126830276D02*
X156189671Y-126816309D01*
X156189671Y-126816309D02*
X156377675Y-126803232D01*
X156377675Y-126803232D02*
X156576328Y-126789789D01*
X156576328Y-126789789D02*
X156771307Y-126776926D01*
X156771307Y-126776926D02*
X156960265Y-126764709D01*
X156960265Y-126764709D02*
X157156474Y-126752171D01*
X157156474Y-126752171D02*
X157346415Y-126740022D01*
X157346415Y-126740022D02*
X157535188Y-126727740D01*
X157535188Y-126727740D02*
X157725473Y-126714886D01*
X157725473Y-126714886D02*
X157916682Y-126701183D01*
X157916682Y-126701183D02*
X158102801Y-126686764D01*
X158102801Y-126686764D02*
X158292596Y-126670657D01*
X158292596Y-126670657D02*
X158477180Y-126653402D01*
X158477180Y-126653402D02*
X158665253Y-126634066D01*
X158665253Y-126634066D02*
X158846012Y-126613776D01*
X158846012Y-126613776D02*
X159030052Y-126591452D01*
X159030052Y-126591452D02*
X159210463Y-126568035D01*
X159210463Y-126568035D02*
X159389280Y-126543470D01*
X159389280Y-126543470D02*
X159566229Y-126517981D01*
X159566229Y-126517981D02*
X159745525Y-126491088D01*
X159745525Y-126491088D02*
X159921938Y-126463717D01*
X159921938Y-126463717D02*
X160102403Y-126434903D01*
X160102403Y-126434903D02*
X160228022Y-126414421D01*
X153553982Y-126944421D02*
X153755562Y-126944351D01*
X153755562Y-126944351D02*
X153956673Y-126938686D01*
X153956673Y-126938686D02*
X154154009Y-126931270D01*
X154154009Y-126931270D02*
X154350621Y-126922821D01*
X154350621Y-126922821D02*
X154549287Y-126913538D01*
X154549287Y-126913538D02*
X154747186Y-126903717D01*
X154747186Y-126903717D02*
X154940306Y-126893676D01*
X154940306Y-126893676D02*
X155136462Y-126883076D01*
X155136462Y-126883076D02*
X155329163Y-126872293D01*
X155329163Y-126872293D02*
X155520220Y-126861263D01*
X155520220Y-126861263D02*
X155719142Y-126849415D01*
X155719142Y-126849415D02*
X155807136Y-126844051D01*
X150573896Y-126950421D02*
X150769269Y-126956664D01*
X150769269Y-126956664D02*
X150966515Y-126961486D01*
X150966515Y-126961486D02*
X151163650Y-126965107D01*
X151163650Y-126965107D02*
X151361040Y-126967724D01*
X151361040Y-126967724D02*
X151562089Y-126969483D01*
X151562089Y-126969483D02*
X151764401Y-126970426D01*
X151764401Y-126970426D02*
X151967582Y-126970597D01*
X151967582Y-126970597D02*
X152190216Y-126969937D01*
X152190216Y-126969937D02*
X152390716Y-126968597D01*
X152390716Y-126968597D02*
X152596914Y-126966477D01*
X152596914Y-126966477D02*
X152797614Y-126963652D01*
X152797614Y-126963652D02*
X152999546Y-126959988D01*
X152999546Y-126959988D02*
X153200912Y-126955400D01*
X153200912Y-126955400D02*
X153397693Y-126949824D01*
X153397693Y-126949824D02*
X153553982Y-126944421D01*
X146977863Y-126811591D02*
X147169248Y-126823084D01*
X147169248Y-126823084D02*
X147359813Y-126833070D01*
X147359813Y-126833070D02*
X147560053Y-126842973D01*
X147560053Y-126842973D02*
X147756070Y-126852311D01*
X147756070Y-126852311D02*
X147954412Y-126861492D01*
X147954412Y-126861492D02*
X148159029Y-126870736D01*
X148159029Y-126870736D02*
X148351815Y-126879253D01*
X148351815Y-126879253D02*
X148546374Y-126887670D01*
X148546374Y-126887670D02*
X148748032Y-126896214D01*
X148748032Y-126896214D02*
X148947223Y-126904463D01*
X148947223Y-126904463D02*
X149144304Y-126912423D01*
X149144304Y-126912423D02*
X149337160Y-126920000D01*
X149337160Y-126920000D02*
X149541887Y-126927773D01*
X149541887Y-126927773D02*
X149736111Y-126934830D01*
X149736111Y-126934830D02*
X149936590Y-126941688D01*
X149936590Y-126941688D02*
X150133718Y-126947814D01*
X150133718Y-126947814D02*
X150333352Y-126952921D01*
X150333352Y-126952921D02*
X150531802Y-126954682D01*
X150531802Y-126954682D02*
X150573896Y-126950421D01*
X146977863Y-126811961D02*
X146977863Y-126811591D01*
X136633186Y-125328571D02*
X136795139Y-125369061D01*
X136795139Y-125369061D02*
X136955912Y-125408505D01*
X136955912Y-125408505D02*
X137121811Y-125448431D01*
X137121811Y-125448431D02*
X137290818Y-125488307D01*
X137290818Y-125488307D02*
X137454473Y-125526163D01*
X137454473Y-125526163D02*
X137624483Y-125564711D01*
X137624483Y-125564711D02*
X137795578Y-125602719D01*
X137795578Y-125602719D02*
X137960184Y-125638553D01*
X137960184Y-125638553D02*
X138128020Y-125674363D01*
X138128020Y-125674363D02*
X138310160Y-125712406D01*
X138310160Y-125712406D02*
X138479192Y-125746962D01*
X138479192Y-125746962D02*
X138646012Y-125780374D01*
X138646012Y-125780374D02*
X138817318Y-125813983D01*
X138817318Y-125813983D02*
X138988676Y-125846898D01*
X138988676Y-125846898D02*
X139163503Y-125879773D01*
X139163503Y-125879773D02*
X139334995Y-125911338D01*
X139334995Y-125911338D02*
X139520409Y-125944720D01*
X139520409Y-125944720D02*
X139695601Y-125975568D01*
X139695601Y-125975568D02*
X139870897Y-126005770D01*
X139870897Y-126005770D02*
X140042751Y-126034748D01*
X140042751Y-126034748D02*
X140222982Y-126064481D01*
X140222982Y-126064481D02*
X140414176Y-126095303D01*
X140414176Y-126095303D02*
X140587567Y-126122628D01*
X140587567Y-126122628D02*
X140764665Y-126149936D01*
X140764665Y-126149936D02*
X140940640Y-126176483D01*
X140940640Y-126176483D02*
X141115452Y-126202283D01*
X141115452Y-126202283D02*
X141295300Y-126228249D01*
X141295300Y-126228249D02*
X141471499Y-126253128D01*
X141471499Y-126253128D02*
X141647754Y-126277480D01*
X141647754Y-126277480D02*
X141825330Y-126301480D01*
X141825330Y-126301480D02*
X142004243Y-126325130D01*
X142004243Y-126325130D02*
X142187101Y-126348766D01*
X142187101Y-126348766D02*
X142373979Y-126372376D01*
X142373979Y-126372376D02*
X142554459Y-126394664D01*
X142554459Y-126394664D02*
X142738960Y-126416941D01*
X142738960Y-126416941D02*
X142922228Y-126438571D01*
X142922228Y-126438571D02*
X143101538Y-126459266D01*
X143101538Y-126459266D02*
X143287611Y-126480265D01*
X143287611Y-126480265D02*
X143472405Y-126500648D01*
X143472405Y-126500648D02*
X143658624Y-126520725D01*
X143658624Y-126520725D02*
X143843516Y-126540212D01*
X143843516Y-126540212D02*
X144032618Y-126559692D01*
X144032618Y-126559692D02*
X144214758Y-126578033D01*
X144214758Y-126578033D02*
X144396847Y-126595965D01*
X144396847Y-126595965D02*
X144588862Y-126614451D01*
X144588862Y-126614451D02*
X144775191Y-126631980D01*
X144775191Y-126631980D02*
X144965830Y-126649509D01*
X144965830Y-126649509D02*
X145152099Y-126666250D01*
X145152099Y-126666250D02*
X145342713Y-126682998D01*
X145342713Y-126682998D02*
X145531818Y-126699237D01*
X145531818Y-126699237D02*
X145722353Y-126715226D01*
X145722353Y-126715226D02*
X145911321Y-126730729D01*
X145911321Y-126730729D02*
X146098673Y-126745757D01*
X146098673Y-126745757D02*
X146285876Y-126760440D01*
X146285876Y-126760440D02*
X146477530Y-126775136D01*
X146477530Y-126775136D02*
X146672167Y-126789721D01*
X146672167Y-126789721D02*
X146862024Y-126803626D01*
X146862024Y-126803626D02*
X146977863Y-126811961D01*
X132154453Y-119191962D02*
X132189181Y-119362698D01*
X132189181Y-119362698D02*
X132224870Y-119529803D01*
X132224870Y-119529803D02*
X132262056Y-119695808D01*
X132262056Y-119695808D02*
X132300185Y-119858220D01*
X132300185Y-119858220D02*
X132340740Y-120023106D01*
X132340740Y-120023106D02*
X132382277Y-120184333D01*
X132382277Y-120184333D02*
X132425731Y-120345450D01*
X132425731Y-120345450D02*
X132470170Y-120502907D01*
X132470170Y-120502907D02*
X132515904Y-120657890D01*
X132515904Y-120657890D02*
X132564339Y-120814848D01*
X132564339Y-120814848D02*
X132613789Y-120968096D01*
X132613789Y-120968096D02*
X132665340Y-121120913D01*
X132665340Y-121120913D02*
X132717905Y-121270024D01*
X132717905Y-121270024D02*
X132771852Y-121416521D01*
X132771852Y-121416521D02*
X132828785Y-121564480D01*
X132828785Y-121564480D02*
X132897049Y-121733608D01*
X132897049Y-121733608D02*
X132956728Y-121874608D01*
X132956728Y-121874608D02*
X133018717Y-122014807D01*
X133018717Y-122014807D02*
X133083079Y-122154089D01*
X133083079Y-122154089D02*
X133151694Y-122296008D01*
X133151694Y-122296008D02*
X133221502Y-122433924D01*
X133221502Y-122433924D02*
X133291525Y-122566145D01*
X133291525Y-122566145D02*
X133363611Y-122696283D01*
X133363611Y-122696283D02*
X133440773Y-122829304D01*
X133440773Y-122829304D02*
X133517151Y-122954984D01*
X133517151Y-122954984D02*
X133595171Y-123077608D01*
X133595171Y-123077608D02*
X133676961Y-123200284D01*
X133676961Y-123200284D02*
X133762111Y-123322016D01*
X133762111Y-123322016D02*
X133847964Y-123438946D01*
X133847964Y-123438946D02*
X133935015Y-123551914D01*
X133935015Y-123551914D02*
X134026106Y-123664447D01*
X134026106Y-123664447D02*
X134121379Y-123776298D01*
X134121379Y-123776298D02*
X134216787Y-123882660D01*
X134216787Y-123882660D02*
X134314668Y-123986248D01*
X134314668Y-123986248D02*
X134416301Y-124088213D01*
X134416301Y-124088213D02*
X134519259Y-124186020D01*
X134519259Y-124186020D02*
X134626737Y-124282558D01*
X134626737Y-124282558D02*
X134735594Y-124374855D01*
X134735594Y-124374855D02*
X134847805Y-124464544D01*
X134847805Y-124464544D02*
X134964129Y-124551991D01*
X134964129Y-124551991D02*
X135082593Y-124635572D01*
X135082593Y-124635572D02*
X135203198Y-124715290D01*
X135203198Y-124715290D02*
X135331713Y-124794585D01*
X135331713Y-124794585D02*
X135459645Y-124868033D01*
X135459645Y-124868033D02*
X135592814Y-124938978D01*
X135592814Y-124938978D02*
X135734420Y-125008578D01*
X135734420Y-125008578D02*
X135873185Y-125071243D01*
X135873185Y-125071243D02*
X136015914Y-125130278D01*
X136015914Y-125130278D02*
X136161889Y-125185254D01*
X136161889Y-125185254D02*
X136312779Y-125236627D01*
X136312779Y-125236627D02*
X136471196Y-125284902D01*
X136471196Y-125284902D02*
X136631501Y-125328145D01*
X136631501Y-125328145D02*
X136633186Y-125328571D01*
X131762392Y-114690392D02*
X131767615Y-114886735D01*
X131767615Y-114886735D02*
X131773297Y-115084800D01*
X131773297Y-115084800D02*
X131779537Y-115285560D01*
X131779537Y-115285560D02*
X131786147Y-115481325D01*
X131786147Y-115481325D02*
X131793420Y-115679069D01*
X131793420Y-115679069D02*
X131801213Y-115872966D01*
X131801213Y-115872966D02*
X131809687Y-116065616D01*
X131809687Y-116065616D02*
X131818973Y-116258067D01*
X131818973Y-116258067D02*
X131829093Y-116448857D01*
X131829093Y-116448857D02*
X131840409Y-116642505D01*
X131840409Y-116642505D02*
X131853074Y-116838502D01*
X131853074Y-116838502D02*
X131866440Y-117025678D01*
X131866440Y-117025678D02*
X131881252Y-117213644D01*
X131881252Y-117213644D02*
X131897260Y-117397777D01*
X131897260Y-117397777D02*
X131914892Y-117581929D01*
X131914892Y-117581929D02*
X131933945Y-117762951D01*
X131933945Y-117762951D02*
X131955198Y-117946980D01*
X131955198Y-117946980D02*
X131977688Y-118125117D01*
X131977688Y-118125117D02*
X132002080Y-118302736D01*
X132002080Y-118302736D02*
X132028101Y-118477826D01*
X132028101Y-118477826D02*
X132056117Y-118652958D01*
X132056117Y-118652958D02*
X132086250Y-118828909D01*
X132086250Y-118828909D02*
X132118300Y-119004747D01*
X132118300Y-119004747D02*
X132150943Y-119174235D01*
X132150943Y-119174235D02*
X132154453Y-119191962D01*
X131652413Y-111737892D02*
X131663394Y-111927096D01*
X131663394Y-111927096D02*
X131673203Y-112123317D01*
X131673203Y-112123317D02*
X131682057Y-112317567D01*
X131682057Y-112317567D02*
X131690259Y-112509936D01*
X131690259Y-112509936D02*
X131698367Y-112710770D01*
X131698367Y-112710770D02*
X131706068Y-112910812D01*
X131706068Y-112910812D02*
X131713526Y-113113081D01*
X131713526Y-113113081D02*
X131720460Y-113308765D01*
X131720460Y-113308765D02*
X131727180Y-113505665D01*
X131727180Y-113505665D02*
X131733650Y-113702403D01*
X131733650Y-113702403D02*
X131740045Y-113904589D01*
X131740045Y-113904589D02*
X131746314Y-114111114D01*
X131746314Y-114111114D02*
X131752300Y-114317319D01*
X131752300Y-114317319D02*
X131757958Y-114521958D01*
X131757958Y-114521958D02*
X131762392Y-114690392D01*
X131554573Y-108821772D02*
X131558860Y-109027352D01*
X131558860Y-109027352D02*
X131563425Y-109229019D01*
X131563425Y-109229019D02*
X131568351Y-109432109D01*
X131568351Y-109432109D02*
X131573604Y-109635394D01*
X131573604Y-109635394D02*
X131579136Y-109837638D01*
X131579136Y-109837638D02*
X131584808Y-110034302D01*
X131584808Y-110034302D02*
X131590773Y-110230841D01*
X131590773Y-110230841D02*
X131596999Y-110425816D01*
X131596999Y-110425816D02*
X131603656Y-110623725D01*
X131603656Y-110623725D02*
X131610521Y-110816957D01*
X131610521Y-110816957D02*
X131617998Y-111014911D01*
X131617998Y-111014911D02*
X131625989Y-111211893D01*
X131625989Y-111211893D02*
X131634672Y-111407788D01*
X131634672Y-111407788D02*
X131644259Y-111599409D01*
X131644259Y-111599409D02*
X131652413Y-111737892D01*
X131514232Y-106782772D02*
X131554573Y-108821772D01*
X131400328Y-107009372D02*
X131514232Y-106782772D01*
X130932921Y-107850092D02*
X131013530Y-107709569D01*
X131013530Y-107709569D02*
X131086074Y-107581892D01*
X131086074Y-107581892D02*
X131160612Y-107449510D01*
X131160612Y-107449510D02*
X131233839Y-107318131D01*
X131233839Y-107318131D02*
X131305084Y-107188625D01*
X131305084Y-107188625D02*
X131375280Y-107057967D01*
X131375280Y-107057967D02*
X131400328Y-107009372D01*
X128777289Y-110537112D02*
X128906645Y-110466219D01*
X128906645Y-110466219D02*
X129025425Y-110382846D01*
X129025425Y-110382846D02*
X129136178Y-110292316D01*
X129136178Y-110292316D02*
X129242595Y-110195451D01*
X129242595Y-110195451D02*
X129343282Y-110095974D01*
X129343282Y-110095974D02*
X129441122Y-109992772D01*
X129441122Y-109992772D02*
X129537510Y-109885353D01*
X129537510Y-109885353D02*
X129629865Y-109777477D01*
X129629865Y-109777477D02*
X129721983Y-109665367D01*
X129721983Y-109665367D02*
X129811422Y-109552448D01*
X129811422Y-109552448D02*
X129900098Y-109436739D01*
X129900098Y-109436739D02*
X129985551Y-109321845D01*
X129985551Y-109321845D02*
X130069812Y-109205419D01*
X130069812Y-109205419D02*
X130152729Y-109087912D01*
X130152729Y-109087912D02*
X130236495Y-108966320D01*
X130236495Y-108966320D02*
X130318690Y-108844266D01*
X130318690Y-108844266D02*
X130399185Y-108722147D01*
X130399185Y-108722147D02*
X130477872Y-108600342D01*
X130477872Y-108600342D02*
X130557060Y-108475371D01*
X130557060Y-108475371D02*
X130636695Y-108347300D01*
X130636695Y-108347300D02*
X130715511Y-108218201D01*
X130715511Y-108218201D02*
X130792223Y-108090322D01*
X130792223Y-108090322D02*
X130866759Y-107963974D01*
X130866759Y-107963974D02*
X130932921Y-107850092D01*
X127311160Y-109486922D02*
X127360539Y-109637620D01*
X127360539Y-109637620D02*
X127415022Y-109786205D01*
X127415022Y-109786205D02*
X127473895Y-109927855D01*
X127473895Y-109927855D02*
X127539389Y-110064722D01*
X127539389Y-110064722D02*
X127611488Y-110192980D01*
X127611488Y-110192980D02*
X127692286Y-110312225D01*
X127692286Y-110312225D02*
X127788187Y-110424745D01*
X127788187Y-110424745D02*
X127897035Y-110520057D01*
X127897035Y-110520057D02*
X128023166Y-110594643D01*
X128023166Y-110594643D02*
X128175164Y-110642890D01*
X128175164Y-110642890D02*
X128365836Y-110652600D01*
X128365836Y-110652600D02*
X128537195Y-110623603D01*
X128537195Y-110623603D02*
X128689551Y-110574092D01*
X128689551Y-110574092D02*
X128777289Y-110537112D01*
X127029431Y-106157232D02*
X127030537Y-106358639D01*
X127030537Y-106358639D02*
X127034619Y-106557775D01*
X127034619Y-106557775D02*
X127040943Y-106756675D01*
X127040943Y-106756675D02*
X127048824Y-106949249D01*
X127048824Y-106949249D02*
X127058501Y-107147497D01*
X127058501Y-107147497D02*
X127069371Y-107341734D01*
X127069371Y-107341734D02*
X127081140Y-107529968D01*
X127081140Y-107529968D02*
X127094103Y-107718442D01*
X127094103Y-107718442D02*
X127108312Y-107907631D01*
X127108312Y-107907631D02*
X127124010Y-108099757D01*
X127124010Y-108099757D02*
X127140654Y-108287276D01*
X127140654Y-108287276D02*
X127158484Y-108472080D01*
X127158484Y-108472080D02*
X127177605Y-108653658D01*
X127177605Y-108653658D02*
X127198509Y-108833937D01*
X127198509Y-108833937D02*
X127221919Y-109014176D01*
X127221919Y-109014176D02*
X127248149Y-109189277D01*
X127248149Y-109189277D02*
X127279215Y-109358837D01*
X127279215Y-109358837D02*
X127311160Y-109486922D01*
X127310088Y-102891412D02*
X127277474Y-103061784D01*
X127277474Y-103061784D02*
X127240750Y-103226554D01*
X127240750Y-103226554D02*
X127206591Y-103393574D01*
X127206591Y-103393574D02*
X127176518Y-103565413D01*
X127176518Y-103565413D02*
X127150412Y-103742989D01*
X127150412Y-103742989D02*
X127128431Y-103921314D01*
X127128431Y-103921314D02*
X127109291Y-104106412D01*
X127109291Y-104106412D02*
X127093126Y-104292810D01*
X127093126Y-104292810D02*
X127079435Y-104481143D01*
X127079435Y-104481143D02*
X127067937Y-104670423D01*
X127067937Y-104670423D02*
X127058257Y-104862337D01*
X127058257Y-104862337D02*
X127050195Y-105057261D01*
X127050195Y-105057261D02*
X127043682Y-105252604D01*
X127043682Y-105252604D02*
X127038536Y-105448600D01*
X127038536Y-105448600D02*
X127034622Y-105645179D01*
X127034622Y-105645179D02*
X127031821Y-105842580D01*
X127031821Y-105842580D02*
X127030009Y-106044943D01*
X127030009Y-106044943D02*
X127029431Y-106157232D01*
X131238574Y-93076123D02*
X131158698Y-93203364D01*
X131158698Y-93203364D02*
X131079491Y-93330910D01*
X131079491Y-93330910D02*
X130999534Y-93461077D01*
X130999534Y-93461077D02*
X130920275Y-93591540D01*
X130920275Y-93591540D02*
X130841017Y-93723461D01*
X130841017Y-93723461D02*
X130765244Y-93850983D01*
X130765244Y-93850983D02*
X130690144Y-93978768D01*
X130690144Y-93978768D02*
X130608921Y-94118565D01*
X130608921Y-94118565D02*
X130534556Y-94248047D01*
X130534556Y-94248047D02*
X130454218Y-94389576D01*
X130454218Y-94389576D02*
X130379981Y-94521918D01*
X130379981Y-94521918D02*
X130307774Y-94652127D01*
X130307774Y-94652127D02*
X130236916Y-94781369D01*
X130236916Y-94781369D02*
X130165465Y-94913196D01*
X130165465Y-94913196D02*
X130094100Y-95046421D01*
X130094100Y-95046421D02*
X130019709Y-95187005D01*
X130019709Y-95187005D02*
X129949856Y-95320640D01*
X129949856Y-95320640D02*
X129879520Y-95456855D01*
X129879520Y-95456855D02*
X129811166Y-95590861D01*
X129811166Y-95590861D02*
X129742961Y-95726239D01*
X129742961Y-95726239D02*
X129673148Y-95866587D01*
X129673148Y-95866587D02*
X129603572Y-96008307D01*
X129603572Y-96008307D02*
X129537153Y-96145378D01*
X129537153Y-96145378D02*
X129462373Y-96301864D01*
X129462373Y-96301864D02*
X129396516Y-96441647D01*
X129396516Y-96441647D02*
X129331481Y-96581565D01*
X129331481Y-96581565D02*
X129267277Y-96721607D01*
X129267277Y-96721607D02*
X129204984Y-96859343D01*
X129204984Y-96859343D02*
X129140283Y-97004441D01*
X129140283Y-97004441D02*
X129072257Y-97159328D01*
X129072257Y-97159328D02*
X129009413Y-97304632D01*
X129009413Y-97304632D02*
X128948496Y-97447595D01*
X128948496Y-97447595D02*
X128886439Y-97595482D01*
X128886439Y-97595482D02*
X128827311Y-97738584D01*
X128827311Y-97738584D02*
X128768580Y-97882957D01*
X128768580Y-97882957D02*
X128708823Y-98032230D01*
X128708823Y-98032230D02*
X128651457Y-98177898D01*
X128651457Y-98177898D02*
X128594086Y-98326022D01*
X128594086Y-98326022D02*
X128535844Y-98479023D01*
X128535844Y-98479023D02*
X128481334Y-98624747D01*
X128481334Y-98624747D02*
X128418041Y-98797179D01*
X128418041Y-98797179D02*
X128361255Y-98955029D01*
X128361255Y-98955029D02*
X128303885Y-99117705D01*
X128303885Y-99117705D02*
X128249362Y-99275486D01*
X128249362Y-99275486D02*
X128197585Y-99428359D01*
X128197585Y-99428359D02*
X128142091Y-99595725D01*
X128142091Y-99595725D02*
X128091759Y-99750885D01*
X128091759Y-99750885D02*
X128042527Y-99905959D01*
X128042527Y-99905959D02*
X127994401Y-100060936D01*
X127994401Y-100060936D02*
X127947386Y-100215805D01*
X127947386Y-100215805D02*
X127897947Y-100382636D01*
X127897947Y-100382636D02*
X127851187Y-100544482D01*
X127851187Y-100544482D02*
X127804320Y-100710995D01*
X127804320Y-100710995D02*
X127760068Y-100872504D01*
X127760068Y-100872504D02*
X127713901Y-101045860D01*
X127713901Y-101045860D02*
X127672235Y-101206968D01*
X127672235Y-101206968D02*
X127630638Y-101372663D01*
X127630638Y-101372663D02*
X127590950Y-101535719D01*
X127590950Y-101535719D02*
X127552013Y-101700919D01*
X127552013Y-101700919D02*
X127509086Y-101889730D01*
X127509086Y-101889730D02*
X127471511Y-102061483D01*
X127471511Y-102061483D02*
X127433457Y-102242422D01*
X127433457Y-102242422D02*
X127398466Y-102415854D01*
X127398466Y-102415854D02*
X127364118Y-102593651D01*
X127364118Y-102593651D02*
X127332676Y-102763946D01*
X127332676Y-102763946D02*
X127310088Y-102891412D01*
X131708835Y-92331392D02*
X131238574Y-93076123D01*
X131708470Y-91774003D02*
X131708835Y-92331392D01*
X131971273Y-85138883D02*
X131960715Y-85360701D01*
X131960715Y-85360701D02*
X131950630Y-85574575D01*
X131950630Y-85574575D02*
X131941015Y-85780206D01*
X131941015Y-85780206D02*
X131931873Y-85977355D01*
X131931873Y-85977355D02*
X131922414Y-86182957D01*
X131922414Y-86182957D02*
X131913048Y-86388228D01*
X131913048Y-86388228D02*
X131903782Y-86592952D01*
X131903782Y-86592952D02*
X131895005Y-86788435D01*
X131895005Y-86788435D02*
X131885586Y-86999903D01*
X131885586Y-86999903D02*
X131876673Y-87201704D01*
X131876673Y-87201704D02*
X131868256Y-87393778D01*
X131868256Y-87393778D02*
X131859613Y-87592627D01*
X131859613Y-87592627D02*
X131851121Y-87789651D01*
X131851121Y-87789651D02*
X131842445Y-87992716D01*
X131842445Y-87992716D02*
X131834287Y-88185351D01*
X131834287Y-88185351D02*
X131824996Y-88406950D01*
X131824996Y-88406950D02*
X131815956Y-88624837D01*
X131815956Y-88624837D02*
X131807185Y-88838674D01*
X131807185Y-88838674D02*
X131798693Y-89048119D01*
X131798693Y-89048119D02*
X131790497Y-89252832D01*
X131790497Y-89252832D02*
X131782883Y-89445432D01*
X131782883Y-89445432D02*
X131775302Y-89639860D01*
X131775302Y-89639860D02*
X131767552Y-89841797D01*
X131767552Y-89841797D02*
X131759963Y-90043100D01*
X131759963Y-90043100D02*
X131752597Y-90242553D01*
X131752597Y-90242553D02*
X131745106Y-90450407D01*
X131745106Y-90450407D02*
X131738048Y-90652301D01*
X131738048Y-90652301D02*
X131731337Y-90851527D01*
X131731337Y-90851527D02*
X131724846Y-91054124D01*
X131724846Y-91054124D02*
X131718901Y-91253495D01*
X131718901Y-91253495D02*
X131713723Y-91448675D01*
X131713723Y-91448675D02*
X131709635Y-91646953D01*
X131709635Y-91646953D02*
X131708470Y-91774003D01*
X132038402Y-83370723D02*
X132036701Y-83573066D01*
X132036701Y-83573066D02*
X132030030Y-83775746D01*
X132030030Y-83775746D02*
X132022259Y-83982183D01*
X132022259Y-83982183D02*
X132014256Y-84180604D01*
X132014256Y-84180604D02*
X132005644Y-84384448D01*
X132005644Y-84384448D02*
X131996951Y-84582911D01*
X131996951Y-84582911D02*
X131987996Y-84781382D01*
X131987996Y-84781382D02*
X131978419Y-84987981D01*
X131978419Y-84987981D02*
X131971273Y-85138883D01*
X130621907Y-83207303D02*
X130808403Y-83226984D01*
X130808403Y-83226984D02*
X130996259Y-83247084D01*
X130996259Y-83247084D02*
X131190232Y-83268158D01*
X131190232Y-83268158D02*
X131373967Y-83288463D01*
X131373967Y-83288463D02*
X131556645Y-83309073D01*
X131556645Y-83309073D02*
X131736391Y-83329944D01*
X131736391Y-83329944D02*
X131916234Y-83351971D01*
X131916234Y-83351971D02*
X132038402Y-83370723D01*
X127777844Y-82849373D02*
X127943083Y-82886263D01*
X127943083Y-82886263D02*
X128117133Y-82913312D01*
X128117133Y-82913312D02*
X128298023Y-82938722D01*
X128298023Y-82938722D02*
X128481244Y-82962979D01*
X128481244Y-82962979D02*
X128664118Y-82986219D01*
X128664118Y-82986219D02*
X128848524Y-83008931D01*
X128848524Y-83008931D02*
X129029941Y-83030721D01*
X129029941Y-83030721D02*
X129215496Y-83052534D01*
X129215496Y-83052534D02*
X129395784Y-83073343D01*
X129395784Y-83073343D02*
X129576284Y-83093838D01*
X129576284Y-83093838D02*
X129759827Y-83114368D01*
X129759827Y-83114368D02*
X129945631Y-83134859D01*
X129945631Y-83134859D02*
X130137387Y-83155727D01*
X130137387Y-83155727D02*
X130334785Y-83176930D01*
X130334785Y-83176930D02*
X130518866Y-83196463D01*
X130518866Y-83196463D02*
X130621907Y-83207303D01*
X127730364Y-82652773D02*
X127759084Y-82824100D01*
X127759084Y-82824100D02*
X127777844Y-82849373D01*
X129894921Y-81921253D02*
X129725019Y-81963361D01*
X129725019Y-81963361D02*
X129540159Y-82009155D01*
X129540159Y-82009155D02*
X129378442Y-82049217D01*
X129378442Y-82049217D02*
X129210860Y-82090769D01*
X129210860Y-82090769D02*
X129035684Y-82134301D01*
X129035684Y-82134301D02*
X128870456Y-82175531D01*
X128870456Y-82175531D02*
X128707813Y-82216399D01*
X128707813Y-82216399D02*
X128543687Y-82258111D01*
X128543687Y-82258111D02*
X128380639Y-82300358D01*
X128380639Y-82300358D02*
X128220509Y-82343255D01*
X128220509Y-82343255D02*
X128063989Y-82387860D01*
X128063989Y-82387860D02*
X127912201Y-82437218D01*
X127912201Y-82437218D02*
X127775797Y-82502452D01*
X127775797Y-82502452D02*
X127730364Y-82652773D01*
X131758470Y-81450923D02*
X131598503Y-81493658D01*
X131598503Y-81493658D02*
X131436881Y-81535060D01*
X131436881Y-81535060D02*
X131266553Y-81578283D01*
X131266553Y-81578283D02*
X131105453Y-81618951D01*
X131105453Y-81618951D02*
X130931722Y-81662645D01*
X130931722Y-81662645D02*
X130762943Y-81704973D01*
X130762943Y-81704973D02*
X130588908Y-81748511D01*
X130588908Y-81748511D02*
X130416981Y-81791428D01*
X130416981Y-81791428D02*
X130244003Y-81834523D01*
X130244003Y-81834523D02*
X130065829Y-81878828D01*
X130065829Y-81878828D02*
X129894921Y-81921253D01*
X131507809Y-81066963D02*
X131602861Y-81172420D01*
X131602861Y-81172420D02*
X131693341Y-81281963D01*
X131693341Y-81281963D02*
X131769821Y-81405870D01*
X131769821Y-81405870D02*
X131758470Y-81450923D01*
X131645280Y-76159663D02*
X131546437Y-76262400D01*
X131546437Y-76262400D02*
X131450658Y-76370227D01*
X131450658Y-76370227D02*
X131360336Y-76480462D01*
X131360336Y-76480462D02*
X131273419Y-76595654D01*
X131273419Y-76595654D02*
X131191320Y-76714099D01*
X131191320Y-76714099D02*
X131110990Y-76840829D01*
X131110990Y-76840829D02*
X131037379Y-76968391D01*
X131037379Y-76968391D02*
X130968195Y-77100660D01*
X130968195Y-77100660D02*
X130901868Y-77241797D01*
X130901868Y-77241797D02*
X130839544Y-77391278D01*
X130839544Y-77391278D02*
X130785257Y-77539773D01*
X130785257Y-77539773D02*
X130736202Y-77695092D01*
X130736202Y-77695092D02*
X130690634Y-77867314D01*
X130690634Y-77867314D02*
X130655144Y-78033445D01*
X130655144Y-78033445D02*
X130626102Y-78211055D01*
X130626102Y-78211055D02*
X130605737Y-78392173D01*
X130605737Y-78392173D02*
X130594272Y-78581636D01*
X130594272Y-78581636D02*
X130593006Y-78781628D01*
X130593006Y-78781628D02*
X130602666Y-78978676D01*
X130602666Y-78978676D02*
X130622504Y-79169719D01*
X130622504Y-79169719D02*
X130650287Y-79346713D01*
X130650287Y-79346713D02*
X130684811Y-79512719D01*
X130684811Y-79512719D02*
X130727008Y-79675822D01*
X130727008Y-79675822D02*
X130775664Y-79832658D01*
X130775664Y-79832658D02*
X130831822Y-79987366D01*
X130831822Y-79987366D02*
X130891224Y-80130068D01*
X130891224Y-80130068D02*
X130955753Y-80267468D01*
X130955753Y-80267468D02*
X131025966Y-80401235D01*
X131025966Y-80401235D02*
X131100663Y-80529518D01*
X131100663Y-80529518D02*
X131179825Y-80652846D01*
X131179825Y-80652846D02*
X131263144Y-80771175D01*
X131263144Y-80771175D02*
X131350316Y-80884481D01*
X131350316Y-80884481D02*
X131442839Y-80994810D01*
X131442839Y-80994810D02*
X131507809Y-81066963D01*
X133624519Y-75051673D02*
X133462734Y-75095183D01*
X133462734Y-75095183D02*
X133307597Y-75141371D01*
X133307597Y-75141371D02*
X133153701Y-75192306D01*
X133153701Y-75192306D02*
X133006862Y-75246469D01*
X133006862Y-75246469D02*
X132863852Y-75305271D01*
X132863852Y-75305271D02*
X132726659Y-75368096D01*
X132726659Y-75368096D02*
X132593152Y-75436030D01*
X132593152Y-75436030D02*
X132461375Y-75510357D01*
X132461375Y-75510357D02*
X132334574Y-75589309D01*
X132334574Y-75589309D02*
X132212598Y-75672596D01*
X132212598Y-75672596D02*
X132097034Y-75758439D01*
X132097034Y-75758439D02*
X131985195Y-75848081D01*
X131985195Y-75848081D02*
X131872643Y-75944833D01*
X131872643Y-75944833D02*
X131766075Y-76042374D01*
X131766075Y-76042374D02*
X131660756Y-76144248D01*
X131660756Y-76144248D02*
X131645280Y-76159663D01*
X133873399Y-74887883D02*
X133782136Y-74996850D01*
X133782136Y-74996850D02*
X133633434Y-75049360D01*
X133633434Y-75049360D02*
X133624519Y-75051673D01*
X134894619Y-72156983D02*
X134829294Y-72293755D01*
X134829294Y-72293755D02*
X134766226Y-72431404D01*
X134766226Y-72431404D02*
X134703507Y-72572795D01*
X134703507Y-72572795D02*
X134641928Y-72715386D01*
X134641928Y-72715386D02*
X134582146Y-72857039D01*
X134582146Y-72857039D02*
X134521337Y-73004138D01*
X134521337Y-73004138D02*
X134462282Y-73149766D01*
X134462282Y-73149766D02*
X134404398Y-73295127D01*
X134404398Y-73295127D02*
X134347096Y-73441588D01*
X134347096Y-73441588D02*
X134290503Y-73588861D01*
X134290503Y-73588861D02*
X134234499Y-73737364D01*
X134234499Y-73737364D02*
X134180248Y-73884114D01*
X134180248Y-73884114D02*
X134126700Y-74032253D01*
X134126700Y-74032253D02*
X134074315Y-74181039D01*
X134074315Y-74181039D02*
X134022158Y-74334233D01*
X134022158Y-74334233D02*
X133973084Y-74485184D01*
X133973084Y-74485184D02*
X133926519Y-74639363D01*
X133926519Y-74639363D02*
X133885835Y-74798766D01*
X133885835Y-74798766D02*
X133873399Y-74887883D01*
X137798672Y-68298444D02*
X137693915Y-68399441D01*
X137693915Y-68399441D02*
X137589608Y-68501106D01*
X137589608Y-68501106D02*
X137488728Y-68600568D01*
X137488728Y-68600568D02*
X137388310Y-68700796D01*
X137388310Y-68700796D02*
X137287503Y-68802749D01*
X137287503Y-68802749D02*
X137185539Y-68907359D01*
X137185539Y-68907359D02*
X137086121Y-69010937D01*
X137086121Y-69010937D02*
X136985754Y-69117241D01*
X136985754Y-69117241D02*
X136887940Y-69222670D01*
X136887940Y-69222670D02*
X136792595Y-69327344D01*
X136792595Y-69327344D02*
X136696462Y-69434958D01*
X136696462Y-69434958D02*
X136602774Y-69542022D01*
X136602774Y-69542022D02*
X136508429Y-69652217D01*
X136508429Y-69652217D02*
X136416480Y-69762108D01*
X136416480Y-69762108D02*
X136318260Y-69882458D01*
X136318260Y-69882458D02*
X136228203Y-69995729D01*
X136228203Y-69995729D02*
X136137624Y-70112711D01*
X136137624Y-70112711D02*
X136049242Y-70230039D01*
X136049242Y-70230039D02*
X135962927Y-70347886D01*
X135962927Y-70347886D02*
X135878546Y-70466428D01*
X135878546Y-70466428D02*
X135795969Y-70585843D01*
X135795969Y-70585843D02*
X135710214Y-70713641D01*
X135710214Y-70713641D02*
X135630937Y-70835402D01*
X135630937Y-70835402D02*
X135553064Y-70958569D01*
X135553064Y-70958569D02*
X135476461Y-71083316D01*
X135476461Y-71083316D02*
X135400992Y-71209818D01*
X135400992Y-71209818D02*
X135327093Y-71337269D01*
X135327093Y-71337269D02*
X135250728Y-71472779D01*
X135250728Y-71472779D02*
X135177909Y-71605670D01*
X135177909Y-71605670D02*
X135107874Y-71736881D01*
X135107874Y-71736881D02*
X135038834Y-71869510D01*
X135038834Y-71869510D02*
X134969044Y-72006882D01*
X134969044Y-72006882D02*
X134902160Y-72141599D01*
X134902160Y-72141599D02*
X134894619Y-72156983D01*
X146334431Y-63892514D02*
X146161673Y-63922886D01*
X146161673Y-63922886D02*
X145984952Y-63955971D01*
X145984952Y-63955971D02*
X145815879Y-63989552D01*
X145815879Y-63989552D02*
X145642861Y-64025891D01*
X145642861Y-64025891D02*
X145475124Y-64063050D01*
X145475124Y-64063050D02*
X145310331Y-64101428D01*
X145310331Y-64101428D02*
X145141631Y-64142665D01*
X145141631Y-64142665D02*
X144978138Y-64184524D01*
X144978138Y-64184524D02*
X144815290Y-64228101D01*
X144815290Y-64228101D02*
X144653084Y-64273396D01*
X144653084Y-64273396D02*
X144496001Y-64319077D01*
X144496001Y-64319077D02*
X144339526Y-64366381D01*
X144339526Y-64366381D02*
X144185882Y-64414596D01*
X144185882Y-64414596D02*
X144032830Y-64464386D01*
X144032830Y-64464386D02*
X143878163Y-64516508D01*
X143878163Y-64516508D02*
X143728499Y-64568694D01*
X143728499Y-64568694D02*
X143579411Y-64622409D01*
X143579411Y-64622409D02*
X143422180Y-64680952D01*
X143422180Y-64680952D02*
X143265593Y-64741209D01*
X143265593Y-64741209D02*
X143116139Y-64800565D01*
X143116139Y-64800565D02*
X142971583Y-64859706D01*
X142971583Y-64859706D02*
X142829734Y-64919418D01*
X142829734Y-64919418D02*
X142688425Y-64980569D01*
X142688425Y-64980569D02*
X142543406Y-65045081D01*
X142543406Y-65045081D02*
X142398963Y-65111121D01*
X142398963Y-65111121D02*
X142259322Y-65176681D01*
X142259322Y-65176681D02*
X142120225Y-65243681D01*
X142120225Y-65243681D02*
X141983769Y-65311073D01*
X141983769Y-65311073D02*
X141849927Y-65378794D01*
X141849927Y-65378794D02*
X141710361Y-65451138D01*
X141710361Y-65451138D02*
X141569286Y-65526081D01*
X141569286Y-65526081D02*
X141434977Y-65599142D01*
X141434977Y-65599142D02*
X141301195Y-65673601D01*
X141301195Y-65673601D02*
X141165900Y-65750633D01*
X141165900Y-65750633D02*
X141039301Y-65824308D01*
X141039301Y-65824308D02*
X140911156Y-65900474D01*
X140911156Y-65900474D02*
X140784520Y-65977330D01*
X140784520Y-65977330D02*
X140658373Y-66055475D01*
X140658373Y-66055475D02*
X140525696Y-66139397D01*
X140525696Y-66139397D02*
X140398561Y-66221497D01*
X140398561Y-66221497D02*
X140277904Y-66300957D01*
X140277904Y-66300957D02*
X140142839Y-66391712D01*
X140142839Y-66391712D02*
X140024148Y-66473054D01*
X140024148Y-66473054D02*
X139904924Y-66556280D01*
X139904924Y-66556280D02*
X139786166Y-66640717D01*
X139786166Y-66640717D02*
X139669819Y-66724932D01*
X139669819Y-66724932D02*
X139553917Y-66810316D01*
X139553917Y-66810316D02*
X139427812Y-66904930D01*
X139427812Y-66904930D02*
X139313810Y-66992015D01*
X139313810Y-66992015D02*
X139198325Y-67081756D01*
X139198325Y-67081756D02*
X139083296Y-67172683D01*
X139083296Y-67172683D02*
X138968720Y-67264801D01*
X138968720Y-67264801D02*
X138858398Y-67354974D01*
X138858398Y-67354974D02*
X138744719Y-67449427D01*
X138744719Y-67449427D02*
X138635260Y-67541857D01*
X138635260Y-67541857D02*
X138526227Y-67635398D01*
X138526227Y-67635398D02*
X138410147Y-67736616D01*
X138410147Y-67736616D02*
X138302927Y-67831622D01*
X138302927Y-67831622D02*
X138194272Y-67929399D01*
X138194272Y-67929399D02*
X138086973Y-68027453D01*
X138086973Y-68027453D02*
X137980103Y-68126617D01*
X137980103Y-68126617D02*
X137875489Y-68225152D01*
X137875489Y-68225152D02*
X137798672Y-68298444D01*
X151359122Y-63398644D02*
X151158947Y-63400242D01*
X151158947Y-63400242D02*
X150958602Y-63405261D01*
X150958602Y-63405261D02*
X150763402Y-63412411D01*
X150763402Y-63412411D02*
X150570401Y-63421218D01*
X150570401Y-63421218D02*
X150379988Y-63431353D01*
X150379988Y-63431353D02*
X150189979Y-63442752D01*
X150189979Y-63442752D02*
X150000822Y-63455268D01*
X150000822Y-63455268D02*
X149809820Y-63469020D01*
X149809820Y-63469020D02*
X149615796Y-63484083D01*
X149615796Y-63484083D02*
X149430043Y-63499500D01*
X149430043Y-63499500D02*
X149241042Y-63516150D01*
X149241042Y-63516150D02*
X149052056Y-63533764D01*
X149052056Y-63533764D02*
X148869378Y-63551692D01*
X148869378Y-63551692D02*
X148682563Y-63570932D01*
X148682563Y-63570932D02*
X148497665Y-63590873D01*
X148497665Y-63590873D02*
X148315223Y-63611425D01*
X148315223Y-63611425D02*
X148129692Y-63633220D01*
X148129692Y-63633220D02*
X147947382Y-63655521D01*
X147947382Y-63655521D02*
X147768715Y-63678227D01*
X147768715Y-63678227D02*
X147587809Y-63702092D01*
X147587809Y-63702092D02*
X147411154Y-63726249D01*
X147411154Y-63726249D02*
X147232687Y-63751524D01*
X147232687Y-63751524D02*
X147052538Y-63777934D01*
X147052538Y-63777934D02*
X146870844Y-63805502D01*
X146870844Y-63805502D02*
X146654901Y-63839505D01*
X146654901Y-63839505D02*
X146476913Y-63868563D01*
X146476913Y-63868563D02*
X146334431Y-63892514D01*
M02*
